<svg width="154" height="92" viewBox="0 0 154 92" fill="none" xmlns="http://www.w3.org/2000/svg">
<g clip-path="url(#clip0_444_1811)">
<path d="M43.7673 33.5648C43.7673 35.4352 43.9699 36.9516 44.3245 38.0637C44.7298 39.1758 45.2363 40.389 45.9455 41.7033C46.1988 42.1077 46.3002 42.5121 46.3002 42.8659C46.3002 43.3714 45.9962 43.8769 45.3377 44.3824L42.1462 46.5055C41.6903 46.8088 41.2344 46.9604 40.8291 46.9604C40.3225 46.9604 39.8159 46.7077 39.3094 46.2527C38.6002 45.4945 37.9923 44.6857 37.4857 43.8769C36.9791 43.0176 36.4725 42.0571 35.9153 40.8945C31.964 45.545 26.9995 47.8703 21.0219 47.8703C16.7666 47.8703 13.3725 46.6571 10.8903 44.2308C8.40805 41.8044 7.1416 38.5692 7.1416 34.5253C7.1416 30.2286 8.66134 26.7406 11.7515 24.1121C14.8416 21.4835 18.9449 20.1692 24.1627 20.1692C25.885 20.1692 27.658 20.3209 29.5324 20.5736C31.4067 20.8264 33.3317 21.2308 35.358 21.6857V17.9956C35.358 14.1538 34.5475 11.4747 32.9771 9.90768C31.3561 8.34065 28.6205 7.5824 24.7199 7.5824C22.9469 7.5824 21.1232 7.7846 19.2488 8.23955C17.3745 8.69449 15.5508 9.25054 13.7778 9.95823C12.9673 10.3121 12.3594 10.5143 12.0048 10.6154C11.6502 10.7165 11.3969 10.767 11.1942 10.767C10.485 10.767 10.1304 10.2615 10.1304 9.19999V6.72306C10.1304 5.91427 10.2317 5.30768 10.485 4.95383C10.7383 4.59999 11.1942 4.24614 11.9034 3.89229C13.6765 2.9824 15.8041 2.22416 18.2863 1.61757C20.7686 0.960426 23.4028 0.657129 26.189 0.657129C32.2173 0.657129 36.6245 2.02196 39.4613 4.75163C42.2475 7.4813 43.6659 11.6264 43.6659 17.1868V33.5648H43.7673ZM23.2002 41.2483C24.8719 41.2483 26.5942 40.945 28.4179 40.3384C30.2416 39.7319 31.8627 38.6198 33.2304 37.1033C34.0409 36.1428 34.6488 35.0813 34.9528 33.8681C35.2567 32.6549 35.4594 31.189 35.4594 29.4703V27.3472C33.9903 26.9934 32.4199 26.6901 30.7988 26.4879C29.1778 26.2857 27.6074 26.1846 26.037 26.1846C22.6429 26.1846 20.1607 26.8417 18.489 28.2066C16.8173 29.5714 16.0067 31.4923 16.0067 34.0198C16.0067 36.3956 16.6146 38.1648 17.8811 39.378C19.0969 40.6417 20.8699 41.2483 23.2002 41.2483ZM63.8784 46.7077C62.9666 46.7077 62.3587 46.556 61.9534 46.2022C61.5482 45.8989 61.1936 45.1912 60.8896 44.2308L48.985 5.15603C48.6811 4.14504 48.5291 3.4879 48.5291 3.13405C48.5291 2.32526 48.9344 1.87032 49.7449 1.87032H54.7094C55.6719 1.87032 56.3304 2.02196 56.685 2.37581C57.0903 2.67911 57.3942 3.3868 57.6982 4.34724L66.2087 37.811L74.1113 4.34724C74.3646 3.33625 74.6686 2.67911 75.0738 2.37581C75.4791 2.07251 76.1883 1.87032 77.1001 1.87032H81.1528C82.1153 1.87032 82.7738 2.02196 83.1791 2.37581C83.5844 2.67911 83.939 3.3868 84.1416 4.34724L92.1455 38.2154L100.909 4.34724C101.213 3.33625 101.568 2.67911 101.923 2.37581C102.328 2.07251 102.986 1.87032 103.898 1.87032H108.609C109.42 1.87032 109.876 2.27471 109.876 3.13405C109.876 3.3868 109.825 3.63955 109.774 3.94284C109.724 4.24614 109.623 4.65054 109.42 5.20658L97.2113 44.2813C96.9074 45.2923 96.5528 45.9494 96.1475 46.2527C95.7423 46.556 95.0837 46.7582 94.2225 46.7582H89.8659C88.9034 46.7582 88.2449 46.6066 87.8396 46.2527C87.4344 45.8989 87.0798 45.2417 86.8771 44.2308L79.0251 11.6264L71.2238 44.1802C70.9706 45.1912 70.6666 45.8483 70.2613 46.2022C69.8561 46.556 69.1469 46.7077 68.235 46.7077H63.8784ZM128.974 48.0725C126.34 48.0725 123.705 47.7692 121.173 47.1626C118.64 46.556 116.664 45.8989 115.347 45.1406C114.536 44.6857 113.979 44.1802 113.776 43.7253C113.574 43.2703 113.473 42.7648 113.473 42.3099V39.7319C113.473 38.6703 113.878 38.1648 114.638 38.1648C114.942 38.1648 115.246 38.2154 115.549 38.3165C115.853 38.4176 116.309 38.6198 116.816 38.822C118.538 39.5802 120.413 40.1868 122.388 40.5912C124.415 40.9956 126.39 41.1978 128.417 41.1978C131.608 41.1978 134.09 40.6417 135.813 39.5297C137.535 38.4176 138.447 36.8 138.447 34.7275C138.447 33.3121 137.991 32.1494 137.079 31.189C136.167 30.2286 134.445 29.3692 131.963 28.5604L124.617 26.2857C120.919 25.1231 118.184 23.4044 116.512 21.1297C114.84 18.9055 113.979 16.4286 113.979 13.8C113.979 11.6769 114.435 9.80658 115.347 8.189C116.259 6.57141 117.474 5.15603 118.994 4.04394C120.514 2.8813 122.236 2.02196 124.263 1.41537C126.289 0.808777 128.417 0.55603 130.646 0.55603C131.76 0.55603 132.925 0.60658 134.04 0.758228C135.205 0.909876 136.269 1.11207 137.332 1.31427C138.346 1.56702 139.308 1.81977 140.22 2.12306C141.132 2.42636 141.841 2.72966 142.348 3.03295C143.057 3.43735 143.563 3.84174 143.867 4.29669C144.171 4.70109 144.323 5.25713 144.323 5.96482V8.34064C144.323 9.40218 143.918 9.95823 143.158 9.95823C142.753 9.95823 142.094 9.75603 141.233 9.35163C138.346 8.03735 135.103 7.38021 131.507 7.38021C128.619 7.38021 126.34 7.83515 124.769 8.79559C123.199 9.75603 122.388 11.222 122.388 13.2945C122.388 14.7099 122.895 15.9231 123.908 16.8835C124.921 17.8439 126.796 18.8044 129.48 19.6637L136.674 21.9384C140.321 23.1011 142.955 24.7187 144.526 26.7912C146.096 28.8637 146.856 31.2395 146.856 33.8681C146.856 36.0417 146.4 38.0132 145.539 39.7319C144.627 41.4505 143.411 42.967 141.841 44.1802C140.271 45.4439 138.396 46.3538 136.218 47.011C133.938 47.7187 131.557 48.0725 128.974 48.0725Z" fill="white" fill-opacity="0.7"/>
<path fill-rule="evenodd" clip-rule="evenodd" d="M138.549 72.6395C121.883 84.923 97.6682 91.4439 76.8478 91.4439C47.6688 91.4439 21.3774 80.6769 1.5195 62.7824C-0.0508965 61.367 1.36752 59.4461 3.24187 60.5582C24.7208 72.9934 51.2149 80.5252 78.6208 80.5252C97.1109 80.5252 117.425 76.6835 136.118 68.7978C138.904 67.534 141.285 70.6175 138.549 72.6395Z" fill="white" fill-opacity="0.7"/>
<path fill-rule="evenodd" clip-rule="evenodd" d="M145.489 64.7538C143.362 62.0241 131.406 63.4395 125.986 64.0967C124.365 64.2989 124.112 62.8835 125.581 61.8219C135.104 55.1494 150.758 57.0703 152.581 59.2945C154.405 61.5692 152.075 77.189 143.159 84.6703C141.791 85.8329 140.474 85.2263 141.082 83.7098C143.108 78.7055 147.617 67.4329 145.489 64.7538Z" fill="white" fill-opacity="0.7"/>
</g>
<defs>
<clipPath id="clip0_444_1811">
<rect width="154" height="92" fill="white"/>
</clipPath>
</defs>
</svg>
