<?xml version="1.0" encoding="UTF-8"?>
<svg width="112" height="112" preserveAspectRatio="none" version="1.0" viewBox="0 0 1728 1690" xmlns="http://www.w3.org/2000/svg">
<g fill="#c2c2c2">
<path d="m778.73 25.86c9.09-0.27 18.13-1.45 27.18-2.33 6.06 0.12 12.03-1.11 18.09-1.06 25.66-0.51 51.34-0.46 77 0.07 21.77 1.52 43.59 3.04 65.24 6.1 9.14 39.99 19.13 79.79 28.61 119.71 37.46 6.85 74.14 17.42 110.24 29.44 15.42-15.14 30.53-30.6 46.24-45.46 13.72-13.61 27.49-27.19 41.19-40.82 0.84-0.92 1.92-1.79 3.21-1.06 57.44 24.72 112.96 54.52 163.11 92.05-1.65 8.51-4.73 16.66-6.9 25.04-7.36 25.32-14.75 50.63-22.06 75.95-1.27 5.43-3.63 10.61-4.49 16.12 7.36 6.65 15.41 12.54 22.65 19.36 20.57 18.05 39.96 37.47 58.14 57.92 0.95 1.38 2.66 0.28 3.88-0.04 23.09-8.99 46.29-17.69 69.38-26.68 13.56-5.04 26.92-10.63 40.6-15.34 11.68 15.1 23.45 30.16 34.4 45.81 25.08 35.84 47.77 73.39 67.57 112.4-14.19 15.45-29.26 30.05-43.86 45.11-11.95 12.72-24.32 25.03-36.57 37.47-1.45 1.5-3.06 2.9-4.2 4.67 0.28 3.79 2.54 7.08 3.74 10.62 6.66 17.54 14.53 34.64 19.92 52.64 3.44 11.54 7.09 23.03 9.82 34.76 39.42 5.12 78.84 10.38 118.19 16.06 1.38 0.07 2.9 0.58 3.15 2.19 8.93 40.22 13.77 81.24 16.34 122.31 0.76 8.69 1.08 17.4 1.13 26.14 1.29 11.68 0.75 23.48 0.99 35.21-39.05 12.7-77.85 26.25-116.98 38.68-3.29 34.95-7.74 69.87-15.28 104.2 30.08 21.29 60.73 41.85 89.47 64.98 3.34 2.7 6.87 5.23 9.87 8.33 0.37 3.19-0.79 6.26-1.59 9.3-16.03 59.15-41.57 115.28-70.79 168.99-35.08-8.03-70.29-15.49-105.42-23.28-4.54-0.75-8.99-2.48-13.62-2.2-5.13 7.34-9.5 15.21-14.56 22.6-16.45 25.08-34.56 49-52.76 72.82-15.57-11.91-30.82-24.21-46.29-36.24-14.83-11.88-30.06-23.26-44.52-35.59-23.81-19.81-47.56-39.69-71.31-59.55 5.32-7.36 11.56-13.98 17.17-21.11 5.94-6.23 10.83-13.33 15.91-20.25 38.42-53.17 66.52-113.7 82.75-177.24 0.97-3.45 1.89-6.93 2.14-10.51 0.07 0.52 0.15 1.05 0.25 1.6 5.05-23.41 9.44-47 11.5-70.87 2.58-24.53 2.21-49.26 1.75-73.89-0.54-5.32-0.97-10.65-0.97-16-2.17-21.23-4.62-42.49-9.24-63.36-16.98-83.79-55.46-162.99-110.15-228.64-48.29-58.18-109.25-105.82-177.46-138.48-81.52-39.17-173.41-56.38-263.53-49.57-65.51 4.74-130.17 22.08-189.24 50.88-66.69 32.38-126.3 79.16-173.85 136-53.66 64.15-91.82 141.23-109.67 222.97-4.93 21.92-8.23 44.18-10.15 66.55-2.16 22.12-1.98 44.41-1.53 66.63 2.61 50.16 13.5 99.76 30.44 147.02 23.97 66.71 59.76 129.27 105.84 183.18 1.5 1.2 0.86 3.1-0.69 3.9-52.75 42.65-105.22 85.66-158.04 128.24-11.51-14.01-22.53-28.38-33.99-42.41-13.43-17.24-26.11-35.09-37.49-53.75-0.92-1.26-1.73-3.48-3.67-2.64-41.02 7.39-82.09 14.56-123.09 22.09-32.01-57.28-56.21-118.73-73.63-181.95 35.23-21.79 70.7-43.21 105.99-64.89 0.96-2.45-0.7-5.17-1.02-7.67-7.48-34.27-13.33-69.05-14.78-104.11-36.26-10.58-72.5-21.25-108.75-31.85-3.7-1.14-7.39-2.3-11.18-3.07-0.35-14.02-0.26-28.04-0.18-42.06 0.08-9.34 0.03-18.7 1.08-27.99-0.17-7.04 0.94-13.98 1.42-20.98 3.06-33.15 8.66-66.09 16.57-98.44 31.21-4.05 62.42-8.07 93.67-11.77 10.66-1.62 21.43-2.44 32.04-4.4 0.3-4.25 1.93-8.2 3.03-12.27 8.45-29.86 18.96-59.14 31.29-87.63 0.51-1.15 0.4-2.54-0.65-3.33-8.84-9.14-17.82-18.16-26.74-27.22-13.5-13.83-26.81-27.84-40.47-41.52-6.16-6.47-12.84-12.51-18.46-19.45 19.3-40.54 43.05-78.93 70.15-114.71 12.89-17.2 26.94-33.47 40.98-49.72 27.35 12.58 54.42 25.78 81.71 38.48 9.35 4.74 19.05 8.74 28.3 13.67 25.47-25.42 51.72-50.08 79.42-73.06 1-0.89 2.13-1.7 2.88-2.85-6.16-18.84-12.49-37.63-18.7-56.45-6.5-20.21-13.62-40.22-19.78-60.53 54.33-36.07 110.67-69.79 171.25-94.32 1.48-0.39 3.45-0.87 4.48 0.66 24.57 27.47 48.98 55.09 73.58 82.54 2.32 2.68 4.55 5.47 7.19 7.85 1.22 0.12 2.39-0.28 3.53-0.7 35.42-12.35 72.23-20.16 109.13-26.57 5.64-21.84 11.97-43.51 17.85-65.29 5.32-18.68 10.09-37.53 15.66-56.14m38.24 27.99c-4.7 0.73-9.47 0.61-14.2 0.86-11.26 39.89-21.95 79.96-33.25 119.83-6.61 1.9-13.57 2.33-20.33 3.55-21.19 3.82-42.4 7.69-63.21 13.23-20.28 5.06-40.17 11.6-59.75 18.9-1.34 0.37-3.12 1.24-3.99-0.36-26.2-29.51-52.54-58.89-78.71-88.43-0.97-1.17-2.57-2.02-3.95-0.99-44.11 19.67-86.06 43.88-126.51 70.2 0.98 5.03 3.06 9.73 4.51 14.63 11.12 33.3 21.97 66.7 33.19 99.97-8.37 7.49-17.42 14.21-25.8 21.71-14.7 12.28-28.8 25.24-42.79 38.32-14.75 13.79-28.71 28.43-42.98 42.73-36.32-17.09-72.55-34.38-108.88-51.45-30.81 36.57-58.17 76.13-80.5 118.45-0.62 1.24-1.22 3.01 0.18 3.98 5.25 5.43 10.63 10.74 15.83 16.22 14.24 15.08 29.14 29.52 43.37 44.61 8.36 8.92 17.4 17.24 25.53 26.36-0.86 3.96-3.25 7.42-4.68 11.2-18.36 40.23-32.28 82.38-42.62 125.36-15.88 2.42-31.87 4.07-47.8 6.17-25.61 3.44-51.28 6.31-76.88 9.75-7.25 33.7-11.32 68.01-13.17 102.38-0.3 10.01-0.01 20.04-0.85 30.02 0.05 1.96-0.39 4.31 1.13 5.88 39.65 11.25 79.11 23.18 118.71 34.58 0.58 38.73 5.41 77.35 13.72 115.2 2.07 11.64 5.79 22.95 7.62 34.63-34.98 21.31-70.03 42.53-104.84 64.14 0.57 4.12 2.05 8.03 3.2 12.02 13.29 41.73 29.87 82.45 50.07 121.33 7.22-0.81 14.32-2.46 21.48-3.68 23.38-3.92 46.66-8.42 70.03-12.45 10.9-1.69 21.66-4.36 32.64-5.5 18.08 31.63 38.93 61.67 62.61 89.36 24.31-19.89 48.76-39.6 73.1-59.46 12.88-10.58 26.07-20.79 38.7-31.68-33.24-42.6-60.35-89.91-81.28-139.69-21.47-51.29-36.37-105.55-42.07-160.91-2.58-22.5-2.5-45.19-2.07-67.82-0.02-5.35 0.19-10.69 0.85-15.99 0-9.98 1.81-19.8 2.48-29.73 2.42-18.73 5.49-37.39 9.64-55.81 18.3-81.38 55.42-158.4 107.52-223.52 36.86-46.4 81.31-86.69 130.83-119.23 66.79-43.74 143.15-72.98 222.2-84.37 12.17-1.93 24.42-3.35 36.72-4.07 7.69-1.35 15.55-0.43 23.27-1.59 14.66-0.18 29.36-0.58 44.01 0.25 78.06 3.17 155.44 23.36 225.2 58.64 69.35 34.98 131.26 84.7 180.37 144.87 51.13 62.27 88.41 135.84 108.31 213.92 1.79 7.77 4.33 15.45 4.94 23.45 0.09-0.56 0.19-1.11 0.31-1.65 4.09 21.81 8 43.71 9.64 65.85 1.14 6.27 0.39 12.69 1.44 18.98 0.73 15.31 0.53 30.66 0.43 45.99-2.12 76.76-21.2 152.91-54.26 222.19-17.75 36.9-39.25 72.12-64.98 104 8.72 7.46 17.64 14.69 26.39 22.13 14.06 11.56 27.75 23.59 42.19 34.68 14.73 11.66 29.62 23.13 44.24 34.92 10.69-14.04 20.9-28.43 30.67-43.11 9.92-14.42 18.64-29.59 27.74-44.51 30.18 7.08 60.56 13.31 90.8 20.13 9.04 1.56 17.84 4.46 26.96 5.48 19.16-37.49 36.65-75.99 49.37-116.18 1.34-4.53 3.24-8.93 3.98-13.61 0.32-2.48-2.77-3.28-4.19-4.74-30.92-23.81-63.53-45.31-95.14-68.17 11.93-45.21 16.84-91.82 21.23-138.23-0.28-2.12 2.14-2.53 3.62-3.09 36.85-12.13 73.55-24.73 110.48-36.62 0.29-24.19-1.66-48.28-3.74-72.34-2.03-21.22-5.48-42.28-8.82-63.32-20.03-3.35-40.23-5.64-60.33-8.54-20.05-2.27-39.99-5.46-60.04-7.75-4.47-19.98-9.91-39.74-16.18-59.23-2.61-8.38-6.21-16.39-9.34-24.57-6.13-15.19-12.04-30.47-18.25-45.63-0.53-1.52-1.59-3.58-0.02-4.84 8.82-9.19 18-18.03 26.62-27.41 13.64-14.02 27.56-27.77 40.98-42.01 4.62-5.05 9.89-9.56 14.22-14.86-3.22-8.14-8.45-15.37-12.53-23.11-18.62-32.11-38.99-63.27-61.78-92.58-15.56 5.36-30.76 11.72-46.17 17.48-21.77 8.33-43.48 16.82-65.29 25.04-20.42-23.71-41.78-46.67-65.08-67.59-13.89-12.71-28.69-24.37-43.48-36.01 5.8-18.95 11.04-38.07 16.76-57.04 5.36-19.74 11.83-39.19 16.8-59.03-37.49-26.35-78.01-48.14-119.66-67.14-1.34-0.68-3.11-0.76-4.06 0.57-28.64 27.71-56.6 56.14-85.26 83.84-1.2 1.28-3.02 0.46-4.41 0.12-45.54-16.34-92.35-29.52-140.21-36.92-7.03-28.87-13.91-57.78-20.89-86.66-2.29-10.72-5.6-21.22-7.47-32.04-18.69-1.46-37.34-3.44-56.12-3.38-9.96-1.05-19.99-0.65-29.99-0.71-6 0.13-12.04-0.29-18 0.55-6.66 0.51-13.37 0.03-20.03 0.7z"/>
<path d="m804.02 1289.4c9.62-1.04 19.32-0.74 28.98-0.93 23.01-0.26 46.03-0.12 69.03 0.35 7.17 1.05 14.43 0.46 21.63 1.1 4.9 0.83 9.91 0.31 14.83 1.05 149.49 10.03 297.14 47.53 433.51 109.65-7.55 17.04-15.85 33.76-23.18 50.89 18.77 7.86 36.88 17.19 54.76 26.89 10.3 5.07 19.82 11.51 29.66 17.39 2.9 1.84 6 3.42 8.71 5.58-0.45 3.41-2.62 6.24-4.12 9.25-28.83 53.77-57.5 107.61-86.39 161.35-16.45-7.39-32.7-15.27-49.36-22.19-41.79-17.83-84.66-33.23-128.48-45.28-10.45-2.7-20.91-5.35-31.35-8.09 6.55-26.19 13.16-52.37 19.49-78.62-43.99-11.54-88.75-20.06-133.79-26.34-26.86-3.69-53.82-6.71-80.87-8.3-4.98-0.94-10.09-0.27-15.06-1.2-6.87-0.68-13.82-0.18-20.66-1.14-8.78-0.4-17.58-0.22-26.36-0.49-13.64-1.04-27.34-0.36-41-0.55-5.36-0.22-10.66 0.79-16.01 0.65-8.67 0.22-17.37-0.2-26 0.77-83.09 3.44-165.83 15.53-246.8 34.67 6.27 26.61 13.11 53.11 19.66 79.66-18.58 5.2-37.4 9.53-55.82 15.34-46.16 14.18-91.26 31.74-135.08 52-6.15 2.65-12.01 5.97-18.33 8.23-30.56-56.66-60.56-113.62-91.23-170.22 10.54-6.31 20.88-12.97 31.51-19.11 20.36-10.83 40.57-22.14 62.03-30.64-1.69-6.13-5.16-11.58-7.68-17.38-5.33-11.34-10.72-22.65-16.05-33.99 80.69-36.98 165.47-64.94 252.17-83.86 45.09-9.66 90.7-17.06 136.6-21.49 15.1-1.85 30.29-2.53 45.43-3.88 8.55-0.32 17.05-1.24 25.62-1.12m2.96 29.45c-7.29 0.99-14.68 0.37-21.99 1.12-137.71 8.11-274.04 40.37-400.95 94.57 16.47 35.12 33.18 70.13 49.77 105.19 96.28-31.95 196.04-53.59 297.01-63.3 9.42-1.2 18.93-1.38 28.33-2.72 5-0.26 10.03-0.26 15-1.02 8.99 0.02 17.88-1.37 26.88-1.15 6.03 0.27 11.94-1.17 17.97-0.95 28.35-0.32 56.71-0.37 85.07 0.14 5.28 0.67 10.59 0.89 15.92 0.88 114.34 5.53 228.19 26.4 336.65 63.39 8.54 2.74 16.75 6.52 25.36 8.99 3.19-5.15 5.23-10.95 7.9-16.38 10.95-23.58 21.88-47.17 32.77-70.77 3.07-7.12 7.02-13.88 9.42-21.27-130.27-55.84-270.55-88.26-411.97-95.96-8.21 0.15-16.35-1.09-24.55-1.01-5.53-0.13-11.06-0.14-16.58-0.25-12.96-1.15-26-0.47-39-0.58-10.97 1.12-22.02 0.45-33.01 1.08m-440.56 165.11c21.13 42.29 42.62 84.41 63.54 126.81 3.64-1.31 7.24-2.72 10.8-4.22-19.29-43.29-39.34-86.24-59.73-129.04-4.9 2.08-9.76 4.26-14.61 6.45m959.57 16.23c-16.31 35.84-33.15 71.43-49.67 107.17 3.61 1.41 7.24 2.78 10.85 4.22 20.97-42.39 42.41-84.55 63.52-126.88-4.71-2.28-9.56-4.26-14.32-6.39-3.82 7.12-6.79 14.65-10.38 21.88m-986.98-2.47c21.46 41.35 43.43 82.43 64.91 123.78 4.04-1.59 8.06-3.21 12.02-4.98-20.86-42.05-42.25-83.84-63.01-125.93-4.67 2.3-9.32 4.66-13.92 7.13m1025.3-6.41c-20.91 42.04-42.12 83.92-63.11 125.92 3.44 1.42 6.77 3.12 10.32 4.31 1.14 0.63 2.44 0.21 2.85-1.07 21.5-40.51 42.51-81.29 64.18-121.7-4.7-2.59-9.45-5.08-14.24-7.46m-1049.9 20.2c0.19 3.3 2.84 6.04 4.13 9.05 20.07 37.35 40.05 74.75 60.03 112.15 3.77-1.51 7.45-3.21 11.11-4.95-2.95-4.93-5.36-10.15-8.17-15.15-18.73-35.85-37.68-71.6-56.47-107.42-3.53 2.07-7.77 3.42-10.63 6.32m1077.3-5.48c-21.53 40.73-42.75 81.62-64.41 122.28 3.76 1.59 7.27 4.35 11.46 4.54 3.67-6.34 6.88-12.94 10.44-19.34 17.91-33.85 36.38-67.43 54.04-101.41-3.71-2.29-7.51-4.42-11.53-6.07m-956.61 51.02c6.3 14.77 13.25 29.25 19.69 43.96 3.79-1.02 7.46-2.45 11.19-3.71-3.77-10.91-8.88-21.3-12.94-32.1-0.88-1.82-1.29-4.11-3.11-5.22-4.87-1.3-9.79-2.58-14.83-2.93m830.91 3.81c-4.74 12.52-10.34 24.7-15.04 37.24 3.8 1.07 7.49 2.53 11.24 3.79 6.85-14.91 13.81-29.76 20.62-44.67-5.67 0.89-11.19 2.55-16.82 3.64m-796.96 3.52c3.67 9.25 7.58 18.42 11.39 27.62 3.92-1.04 7.74-2.38 11.58-3.68-1.89-5.8-4.46-11.34-6.49-17.08-0.74-1.38-0.88-3.5-2.68-3.84-4.51-1.38-9.18-2.14-13.8-3.02m764.29 4.11c-3.38 6.61-5.76 13.73-8.29 20.71 3.87 1.13 7.69 2.44 11.54 3.65 3.79-9.22 7.78-18.36 11.33-27.66-4.92 0.77-9.87 1.7-14.58 3.3m-731.31 2.93c1.21 4.18 3 8.16 4.71 12.16 7.2-2.3 14.62-3.92 21.69-6.62-8.73-2.16-17.65-3.46-26.4-5.54m685.74 6.49c7.69 1.67 15.05 4.6 22.79 6.09 1.69-3.83 3.22-7.74 4.37-11.76-9.04 1.97-18.17 3.52-27.16 5.67z"/>
</g>
<g fill="#c2c2c2">
<path d="m844.22 218.49c3.33-0.45 6.73-1.21 10.07-0.3 0.04 5.61 0.19 11.22 0.48 16.82 0.99 5.95 0.38 12.02 1.35 17.97 0.48 4.81 0.34 9.65 0.55 14.48-3.3 0.35-6.59 0.89-9.9 1.07-7.81-10.85-14.47-22.48-22.28-33.33-0.54 11.47 1.53 22.85 1.26 34.34-3.32 0.02-6.64 0.16-9.95 0.11 0.17-11.26-1.39-22.42-1.44-33.66-0.51-5.38-1.09-10.76-0.98-16.18 3.61-0.15 7.23-0.29 10.86-0.43 7.16 10.62 13.58 21.74 21.22 32.02 0.67-11-1.25-21.92-1.24-32.91z"/>
<path d="m886.52 218.42c3.4 0.04 6.79 0.09 10.2 0.14-0.06 16.69-0.27 33.39-1.05 50.06-3.44-0.06-6.87-0.12-10.3-0.12 0.26-10.5-0.24-21.04 0.94-31.49 0.14-6.19 0.15-12.39 0.21-18.59z"/>
<path d="m905.16 269.44c0.57-16.69 2.59-33.28 3.54-49.94 3.76 0.34 7.69 0.28 11.3 1.44 3.18 6.59 6.13 13.3 9.33 19.9 2.53 5.19 4.51 10.68 7.71 15.53 0.37-11.41 1.78-22.75 2.46-34.12 3.09 0.14 6.19 0.31 9.3 0.42-0.02 16.72-2.51 33.32-3.31 50-3.65-0.05-7.32-0.18-10.86-1.1-5.27-11.76-11.05-23.28-16.3-35.04-0.37-0.03-1.1-0.09-1.47-0.12-0.28 11.42-1.24 22.82-2.45 34.18-3.09-0.4-6.15-0.95-9.25-1.15z"/>
</g>
<g fill="#c2c2c2">
<path d="m775.42 224.44c3.97-0.85 8.03-1.04 12.08-1.24 5.42 10.51 10.3 21.29 15.53 31.9 2.4 5.13 5.15 10.11 7.23 15.39-3.7 0.92-7.51 1.11-11.31 1.15-1.2-3.14-2.64-6.17-3.8-9.32-6.15 0-12.18 1.39-18.33 1.46-0.71 3.6-1.64 7.14-2.4 10.72-3.67 0.57-7.34 1.1-11.04 1.36 4.07-17.13 7.99-34.29 12.04-51.42m7.25 10.57c-1.51 6.6-2.68 13.26-4.23 19.84 4.16-0.28 8.36-0.41 12.47-1.2-2.75-6.21-5.39-12.47-8.24-18.64z"/>
<path d="m687.28 242.43c6.23-1.87 12.6-3.28 18.86-5.04 4.45-1.35 9.26-1.44 13.83-0.68 7.74 2.52 11.9 10.28 14.24 17.55 0.9 4.52 0.65 9.17 0.65 13.76 0.41 7.68-5.46 14.71-12.65 16.86-7.42 2.12-14.95 3.88-22.4 5.92-4.33-16.08-8.27-32.27-12.53-48.37m12.06 6.14c3.29 10.25 5.15 20.89 8.37 31.16 4.78-1.82 10.77-1.52 14.45-5.5 3.68-3.8 2.42-9.54 2.25-14.3-1.21-5.41-3.28-11.95-8.89-14.22-5.56-1-10.97 1.19-16.18 2.86z"/>
<path d="m1071 253.26c3.97 0.29 7.63 1.94 11.37 3.15 9.24 3.01 18.43 6.19 27.64 9.31-0.73 2.8-1.63 5.55-2.58 8.28-4.94-1.05-9.62-2.99-14.36-4.68-4.03 12.96-8.7 25.71-12.76 38.66-3.51-0.47-6.81-1.76-10.13-2.89 3.89-13.17 9.01-25.95 12.75-39.17-4.63-1.47-9.21-3.06-13.83-4.54 0.67-2.7 1.44-5.38 1.9-8.12z"/>
<path d="m616.1 267.35c3.23-1.41 6.55-2.64 10.02-3.35 5.37 15.6 11.72 30.85 16.91 46.51-3.13 1.36-6.33 2.51-9.45 3.87-6.01-15.6-11.85-31.29-17.48-47.03z"/>
<path d="m1398.3 521.81c5.04-0.94 10.59-0.85 15.12 1.86 5.83 3.03 9.71 8.83 11.62 14.99 1.87 6.95 0.35 15.24-5.41 19.97-0.33 0.02-0.98 0.07-1.31 0.1-2.31-2.11-3.47-5.23-5.23-7.79 1.56-2.73 3.97-5.5 3.32-8.88-0.85-3.91-3.11-7.87-6.94-9.46-3.58-1.91-7.9-1.09-11.42 0.51-6.09 2.54-11.96 6.98-14.21 13.41-1.58 5.32 1.95 10.84 6.64 13.23 2.7 1.44 5.89 0.51 8.7-0.16 1.4 3.03 4.94 5.7 4.52 9.2-4.65 1.67-9.9 2.32-14.63 0.62-7.37-2.46-12.61-9.28-14.72-16.56-1.83-5.84-0.24-12.27 3.22-17.18 5.07-6.8 12.5-11.8 20.73-13.86z"/>
<path d="m261.27 628.34c2.51-0.8 5.2 1.2 7.62 1.96-0.92 2.98-2.04 5.88-2.9 8.88 12.86 5.33 25.97 10.08 38.75 15.61-1.04 2.74-2.13 5.47-3.24 8.2-7.21-1.63-13.8-5.16-20.7-7.73-6.31-2.3-12.36-5.33-18.84-7.13-2.25 6.04-4.65 12.05-6.31 18.29 0.02 3.96-1.49 7.63-2.44 11.42 1.73 0.46 3.48 0.85 5.21 1.3-0.41-5.49 1.37-11.39 5.74-14.94 5.34-4.52 13.86-3.85 19.03 0.65 4.33 3.37 6.72 8.46 8.61 13.47-2.77 1.85-5.61 3.68-8.82 4.67-2.21-4.88-4.76-10.88-10.35-12.5-4.46-0.97-5.85 4.33-6.78 7.58-1.09 2.21 0.84 4.44 3 4.84 8 2.65 15.91 5.61 23.99 8-0.69 2.88-1.6 5.71-2.77 8.44-3.23 0.49-6.34-1.76-9.51-2.48-0.95 5.7-2.53 11.72-6.93 15.78-4.19 4.45-11.38 5.14-16.67 2.38-4.1-1.97-6.87-6.49-6.64-11.05-0.2-4.7 1.79-9.05 3.09-13.45 1.83-0.09 3.66-0.22 5.49-0.42-2.48-1.58-5.29-2.52-8.17-3.04-2.57 8.71-5.33 17.38-7.83 26.11-0.12 3.76-0.44 7.51-1.61 11.11 13.48 3.58 27.15 6.38 40.56 10.23-0.25 3.15-1.18 6.19-2.37 9.11-13.56-3.76-27.32-6.74-40.97-10.12-0.13 3.9 0.5 7.9-0.87 11.66 8.66 2.01 17.35 3.96 25.9 6.41 1.6 0.12 1.31 2.05 1.09 3.13-3.63 4.5-9.02 7.01-13.85 9.96-1.54 1.09-3.47 1.04-5.26 1.19-0.05-3.02 0.15-6.02 0.32-9.02-3.48-0.51-6.86-1.51-10.22-2.52-1.03 3.55-2.08 7.09-2.89 10.7-0.37 1.73 1.22 3.22 0.94 4.98-0.17 2.4-0.79 4.73-1.2 7.1 13.81 2.26 27.53 5.06 41.27 7.71-0.35 3.02-1.02 5.98-1.48 8.99-13.92-1.83-27.63-5.1-41.47-7.47-0.3 2.4-1.86 4.89-0.7 7.27 1.3 3.14 0.22 6.55 0.09 9.82 13.79 1.76 27.51 4.17 41.36 5.38-0.06 3.28-0.66 6.52-1.2 9.76-13.93-1.95-27.85-4.34-41.89-5.32-0.03 4.99 0.43 9.97 0.19 14.96 8.82 0.34 17.58 1.4 26.35 2.21 5.22-0.08 10.33 0.94 15.52 1.17-0.09 3.02-0.19 6.05-0.34 9.09-2.84 0.02-5.67-0.19-8.5-0.29 3.54 8.01 7.36 16.67 5.61 25.63-1.57 5.31-5.73 11.51-12.04 10.7-2.67 0.18-4.4-2.02-6.2-3.6-2.58 4.23-6.61 8.66-11.97 8.55-3.26 0.19-5.75-2.77-6.13-5.8-0.86-5.19 0.7-10.39 0.44-15.6h-3.96c0.13 6.92 0.19 13.88-0.7 20.76 0.84 4.41 2.14 8.78 1.68 13.35 14.01 0.16 27.97-1.12 41.98-0.98 0.07 3.1 0.1 6.22 0.09 9.33-14.12-0.13-28.2 1.15-42.32 0.91 1.17 4.24 1.7 8.61 1.42 13.02 14.24-0.01 28.48-0.38 42.72-0.36 0.03 3.05 0.05 6.1 0.07 9.17-5.5 0.17-10.99 0.04-16.49 0.23 6.46 6.66 12.44 13.77 19.04 20.3-1.7 2.63-3.53 5.15-5.32 7.72-5.08-5.12-8.9-11.29-13.6-16.74-0.55 4.92-1.96 10.66-6.7 13.17-5.19 1.39-10.61 1.34-15.95 1.41 0.03 2.29 0.07 4.58 0.15 6.89-2.65 0.3-5.29 0.68-7.93 1.08-1.48-7.32-1.35-14.84-2.15-22.25-0.51-1.51-1.64-2.81-1.77-4.42-0.38-7.33 0.5-14.81-1.33-22-1.71-8.55 0.78-17.5-1.81-25.88-0.61-14.31 2.3-28.75 0.23-42.94 0.68-6.33 1.42-12.68 1.66-19.02-2.1-4.57 0.3-9.3-0.01-13.98-0.29-2.21-0.47-4.42-0.64-6.63 0.58-0.21 1.17-0.42 1.76-0.61 0.28-2.46 1.45-5.03 0.36-7.44-1.45-3.25 0.05-6.73 0.69-9.98-5.46 1.83-12.54 2.6-16.75-2.2-5.53-6.22-6.45-15.74-3.7-23.41 2.91-7.35 8.33-13.29 13.48-19.15 5.02-5.7 11.25-10.15 16.56-15.54 1.95-3.66 2.07-7.91 2.33-11.95 1.31-6.18 3.96-12.04 5.04-18.26-0.17-4.81 2.52-8.99 3.64-13.54 0.63-1.95 0.15-4.06 0.73-6.01 3.28-10.17 6.84-20.25 10.43-30.3 0.62-2.42 1.32-4.82 2.38-7.07 1.93-2.65 2.64-6.04 4.58-8.6m0.43 62.58c-2.15 4.31-3.41 9.8-1 14.25 1.23 2.88 5.4 2.98 7.45 0.97 3.56-2.88 3.93-8.1 3.1-12.28-3.03-1.41-6.28-2.33-9.55-2.94m-52.67 74.44c-1.18 4.99 2.26 11.71 7.98 11.41 2.46-0.06 5.39 0.05 7.29-1.79 1.27-4.12-0.81-8.33 0.32-12.43 1.43-5.97 2.8-11.95 4.38-17.87 0.88-3.09 0.21-6.31 0.31-9.46-9.08 8.07-18.35 17.63-20.28 30.14m19.22 85.23c3.8-0.02 7.6 0.02 11.4 0.11 0.24 7.43-0.61 14.87 0.07 22.29 1.26-0.75 2.57-1.78 2.83-3.3 1.09-5.32 0.67-10.79 0.94-16.18 2.11-0.68 4.18-1.5 6.25-2.28 0 3.23-0.3 6.46-0.13 9.7 0.86 2.4 2.33 5.87 5.36 5.7 2.1-0.66 3.42-2.71 4.34-4.58 1.33-7.89-3.08-15.19-6.27-22.08-8.06-1.51-16.4-1.62-24.57-2.5-0.11 4.37-0.09 8.74-0.22 13.12m3.08 75.66c0.17 5.42 0.37 10.85 1.03 16.26 4.64-0.87 9.37-0.79 14.05-1.24 4.15-3.92 3.95-11.09-0.48-14.74-4.82-0.74-9.74-0.02-14.6-0.28z"/>
<path d="m1478.4 764.75c7.05-1.81 14.79-1.67 21.38 1.68 12.96 7.16 15.94 27.31 5.51 37.84-6.03 6.07-15 7.97-23.28 7.48-8.81 0.69-17.41-5.04-20.65-13.16-2.53-5.06-2.23-10.9-1.74-16.37 1.65-9.18 9.82-15.93 18.78-17.47m4.05 9.87c-4.51 0.99-9.44 2.51-12.17 6.5-2.62 3.2-2.26 7.65-1.62 11.46 1.71 5.6 7.7 8.88 13.31 8.9 5.8 0.2 12.09-1.1 16.61-4.93 5.72-4.91 5.16-14.8-0.69-19.36-4.45-3.22-10.23-3.29-15.44-2.57z"/>
<path d="m1472.3 825.26c5.02-3.89 11.45-5.47 17.7-5.73 7.75-0.3 16.12 2.17 21.12 8.42 4.44 4.84 5.8 11.7 5.42 18.1 0.15 8.78-6.09 17.49-14.95 19.07-0.41-3.36-0.92-6.7-1.07-10.08 3.75-1.97 7.45-5.42 7.11-10.04 1.03-6.81-4.53-13.06-11.04-14.18-5.44-0.81-11.2-0.57-16.29 1.67-4.63 2.28-7.74 7.25-6.99 12.5-0.73 6.41 5.12 11.72 11.24 12.02-0.05-3.85-0.18-7.69-0.26-11.53 2.73-0.03 5.48-0.09 8.23-0.18 0.43 7.02 1.37 14 1.14 21.06-8.94-0.2-17.76 1.66-26.7 1.25-0.11-2.22-0.2-4.42-0.31-6.62 2-0.5 3.99-1.08 6.02-1.57-5.05-3.44-8.91-9.07-8.43-15.4-0.77-7.11 2.29-14.49 8.06-18.76z"/>
<path d="m1484.5 890.31c10.44-4.84 20.23-11.08 30.85-15.53-0.04 3.4 0.12 6.81-0.23 10.21-0.31 2.56-3.04 3.07-4.95 4.04-5.75 2.43-11.43 5.03-17.07 7.68 7.21 3.2 14.11 7.04 21.32 10.27-0.01 3.94-0.04 7.87-0.14 11.81-10.55-5.17-20.38-11.68-30.76-17.14-6.24-1.05-13.03 0.67-18.96-1.64-0.05-3.2 0.14-6.39 0.14-9.58 6.59-0.25 13.24 0.5 19.8-0.12z"/>
<path d="m1460.7 943.25c9.5-0.19 18.86 1.69 28.3 2.49 7.16 1.3 14.47 1.48 21.64 2.75-1.29 9.26-1.66 18.66-3.56 27.83-1.4 6.26-7.59 11.25-14.13 10.06-3.95-0.29-7.22-2.93-9-6.35-2.63 2.74-5.79 5.83-9.89 5.53-7.11 0.62-14.32-4.69-15.55-11.76-0.97-10.27 2.14-20.31 2.19-30.55m7.86 10.91c-0.58 5.22-1.64 10.47-1.21 15.75-0.01 2 1.63 3.45 3.18 4.48 2.91 0.46 7.28 1.25 8.46-2.34 1.98-5.27 1.74-11.08 2.73-16.58-4.31-1.09-8.76-1.13-13.16-1.31m21.3 2.2c-0.05 4.93-1.41 9.76-1.22 14.71-0.02 2.14 1.61 4.15 3.66 4.77 2.66 1.4 6.27-0.97 6.56-3.89 1-4.75 1.43-9.62 1.86-14.45-3.58-0.75-7.22-1.13-10.86-1.14z"/>
<path d="m1460.7 996.81c6.54-2.51 13.95-1.81 20.57 0.11 7.75 2.21 15.16 7.9 17.14 16.03 3.49 12.11-3.45 27.18-16.13 30.4-10.51 1.61-22.45-0.57-29.98-8.58-10.49-11.21-5.55-32.04 8.4-37.96m3.73 9.64c-6.82 1.96-10.54 10.38-7.74 16.81 1.85 4.99 6.99 7.53 11.75 9.04 5.18 1.51 11.27 2.06 16.04-0.96 3.52-2.22 5.47-6.33 5.85-10.37 0.05-5.22-3.24-10.18-8.01-12.26-5.54-2.4-11.96-4.38-17.89-2.26z"/>
<path d="m942.14 1005.2c6.8-0.39 13.57 0.74 19.84 3.41-0.81 2.09-1.6 4.19-2.47 6.26-5.66-1.63-11.38-3.48-17.34-3.4 0-2.1-0.03-4.2-0.03-6.27z"/>
<path d="m1401.8 1139.8c11.34 11.11 21.8 23.08 33.09 34.24 1.25 1.5 3.69 3.09 2.71 5.37-1.26 3.18-3.07 6.1-4.49 9.21-17.46-1.77-34.81-4.54-52.26-6.36 1.21-3.51 2.9-6.82 4.63-10.1 3.61 0.19 7.17 0.85 10.73 1.49 2.75-5.51 5.53-11 8.2-16.55-2.51-2.38-5.16-4.66-7.25-7.4 0.8-3.59 2.88-6.73 4.64-9.9m8.79 24.59c-1.84 3.5-3.42 7.12-5.29 10.61 6.65 0.78 13.2 2.44 19.92 2.76-4.37-4.59-8.84-9.09-13.49-13.38-0.28 0-0.85 0.01-1.14 0.01z"/>
<path d="m772.77 1358.2c10.58-2.27 21.46-1.19 32.15-2.4 28.37-0.72 56.75-0.64 85.13-0.42 2.04 0.01 4.12-0.02 6.15 0.41 5.18 1.18 10.55 0.47 15.8 1.15 6.46 0.89 13.02 0.13 19.51 0.85 6.36 0.85 12.81 0.58 19.17 1.58 1.22 2.81 2.48 5.61 3.77 8.41-3.64 0.03-7.28-0.12-10.9-0.29-0.07 6.99-1.23 13.9-1.2 20.9-1.06 6.49-0.49 13.11-1.63 19.6-0.27 2.81-0.22 5.65-0.36 8.5-3.47-2.12-7.21-4.17-9.71-7.44 0.62-4.13 0.96-8.29 0.92-12.45-4.98 0.05-9.91-0.57-14.83-1.11-0.16 2.47-0.35 4.98-1.07 7.38-1.8-0.08-3.73-0.11-4.74-1.82-3.44-4.41-7.7-8.34-9.95-13.53 2.1-0.69 4.28-1.02 6.49-1.15-0.43-6.83 1.12-13.55 0.95-20.35-2.68-0.94-5.66-0.2-8.4-0.91-3.4-0.98-6.93-0.77-10.41-0.71-0.02 16.3-0.2 32.6-0.38 48.91-3.5-1.65-6.61-3.96-9.87-5.99-0.08-4.6 0.03-9.19 0.08-13.78-4.92-0.01-9.83 0.03-14.74-0.06-0.11 2.49-0.43 4.97-1.3 7.35-1.37-0.23-2.97-0.13-3.94-1.29-3.18-3.18-6.15-6.56-9.04-9.98-1.02-1.05-1.25-2.51-1.6-3.83 1.91-0.45 3.83-0.91 5.77-1.32-0.13-6.92 0.02-13.83-0.1-20.74-7.65 0.33-15.37-0.72-22.96 0.54 0.06 7.95 0.46 15.91 0.13 23.86 0.1 3.21-2.96 5.09-4.92 7.18 4.7 5.35 10.13 10.01 14.88 15.33-1.19 1.09-2.34 2.22-3.45 3.4-7.92-7.46-15.42-15.37-23.12-23.05-2.58-2.29-5.21-6.36-2.71-9.59 2.26-3.23 6.42-1.57 9.41-0.52-0.18-5.47-0.2-10.94-0.25-16.4-8.05 0.11-16.09 0.33-24.14 0.25-0.07 6.45 0.18 12.92 0.88 19.34 0.5 6.32-0.02 12.7 0.89 19 0.36 3.71 0.33 7.46 0.34 11.21-3.45-1.68-6.77-3.59-10.05-5.56-0.06-2.47-0.1-4.95-0.12-7.39-10.76 3.9-25.18-4.19-25.14-16.2-0.67-5.57-0.72-11.18-0.93-16.77-2.31-0.34-4.63-0.5-6.93-0.69-1.74-2.59-3.33-5.26-4.84-7.97 7.12-0.21 14.22-0.86 21.31-1.44m91.71 6.05c0.09 6.62-0.03 13.25 0.03 19.89 4.77 1.27 10.1 0.24 15.09 0.5-0.09-6.79 0.1-13.58 0.11-20.36-5.08-0.05-10.15-0.08-15.23-0.03m-91.28 2.52c0.04 8.84 0.64 17.67 1.59 26.46 1.48 0.62 3.25 1.61 4.83 0.63 3.18-1.46 6.18-3.44 8.55-6.02 0.42-7.15-1.15-14.3-0.69-21.49-4.77 0.09-9.52 0.35-14.28 0.42m144.2 20.71c5.02 0.01 10.03 0.29 15.05 0.29-0.31-7.06 1.46-13.99 1.11-21.05-5.02-0.07-10.04-0.17-15.06-0.43-0.99 7.02-0.97 14.11-1.1 21.19z"/>
<path d="m651.13 1375c20.76-4.72 41.94-7.42 62.99-10.5 2.81 1.97 4.35 5.29 6.59 7.88-3.47 0.78-6.99 1.3-10.55 1.38 0.24 8.5 2.26 16.8 3.18 25.24 0.94 7.99 2.28 15.93 3.25 23.92-3.58-1.44-7.21-2.86-10.46-4.95-1.12-4.13-1.48-8.49-1.78-12.75-5.04 0.01-9.94 1.36-14.97 1.57 0.03 2.68 0.21 5.4-0.44 8.04-1.79-0.19-3.69-0.32-5.02-1.66-3.9-3.36-8.42-6.12-11.69-10.12 0.52-2.34 3.65-2.23 5.49-2.95-0.78-6.97-1.93-13.91-3.37-20.77-5.38 1.16-10.7 2.65-16.16 3.4 1.25 11.41 3.76 22.66 5.54 34 0.84 4.8 2.05 9.56 2.19 14.47-3.49-1.35-6.91-2.86-10.35-4.31-0.94-5.92-2.06-11.81-3.22-17.69-4.07 0.54-8.09 1.41-12.13 2.14 0.26 2.78 0.41 5.6 0.15 8.41-1.75-0.25-3.8 0.36-5.22-0.93-3.63-2.69-7.12-5.55-10.67-8.33-0.03-1.41-0.03-2.82 0-4.2 8.31-3.51 17.51-3.98 26.23-6.07-0.59-5.06-1.79-10.02-2.39-15.07-7.04 0.27-13.82 2.38-20.73 3.51-5.48 1.14-11.13 1.27-16.51 2.88 3.14 16.11 7.26 32.04 9.81 48.26-3.53-1.35-7.04-2.74-10.52-4.2-3.18-13.81-5.9-27.72-8.84-41.57-4.53 0.55-8.89 1.99-13.37 2.82 2.79 16.16 7.46 31.97 10.59 48.09-3.71-1.06-7.3-2.45-10.9-3.79-1.86-8.34-3.94-16.62-5.62-24.99-5.59 0.59-10.93 2.4-16.36 3.75 5.58 2.59 12.04 5.91 13.67 12.4 1.02 6.22-4.24 11.11-9.13 13.95 3.99 4.38 8.44 8.32 12.41 12.72-1.56 0.6-3.07 1.33-4.68 1.8-4.45-3.39-8.25-7.6-12.69-11.02-3.96-0.31-8.51-0.8-11.1-4.21-1.34-1.47-0.9-3.62-0.58-5.35 0.74-2.11 1.42-5.37 4.32-5.02 3.38-0.46 4.79 4.94 8.29 3.28 1.82-1.26 3.77-2.98 3.39-5.43 0.27-3.45-2.64-5.85-5.23-7.54-4.97-3.29-10.94-4.21-16.4-6.33 0.62-1.96 1.37-4.16 3.67-4.58 9.29-2.69 18.77-4.77 28.14-7.18-0.42-2.74-1.1-5.43-1.72-8.12-11.61 2.4-23.08 5.48-34.55 8.49-2.65-2.3-5.04-4.88-7.05-7.74 15.82-3.54 31.4-8.13 47.32-11.23 12.3-3.77 25.04-6.02 37.73-8.03 9.83-1.84 19.52-4.44 29.45-5.77m33.23 2.82c0.95 7.01 2.14 13.99 3.33 20.98 4.99-0.85 9.97-1.81 15.02-2.37-0.53-7.09-1.38-14.19-3.11-21.08-5.06 0.96-10.12 1.92-15.24 2.47z"/>
</g>
<g fill="#c2c2c2">
<path d="m739.18 229.77c3.39-0.28 6.73-0.99 10.1-1.46 1.8 9.83 3.12 19.74 5.01 29.57 0.81 6.72 2.9 13.32 2.43 20.17-3.34 0.31-6.66 0.66-10 0.76-1.81-16.44-5.69-32.6-7.54-49.04z"/>
<path d="m1045.5 277.26c3.01-10.28 5.33-20.78 8.89-30.88 3.07 1.06 6.19 2.05 9.42 2.55-0.25 4.06-1.77 7.87-2.79 11.77-3.3 12.11-6.79 24.16-10.1 36.26-3.37-0.22-6.61-1.12-9.78-2.17 0.42-6.06 2.96-11.67 4.36-17.53z"/>
<path d="m649.58 1071.5c8.69 0.06 17.38 0.05 26.07-0.01 0.22 2.66 0.56 5.33 0.79 8.02-9 0.18-18 0.23-27 0.02 0.04-2.69 0.08-5.36 0.14-8.03z"/>
</g>
<g fill="#c2c2c2">
<path d="m962.6 250.35c-6.89-7.82-0.84-21.99 9.35-23 4.78-0.14 9.8-0.54 14.33 1.35 4.81 1.62 9 5.29 10.86 10.06 0.79 2.56 1.01 5.25 1.33 7.9-3.39 0.07-6.72-0.54-10.01-1.26-0.88-2.74-1.16-6.29-4.12-7.65-3.52-1.84-8.07-3.2-11.78-1.14-2.83 1.46-4.15 6-1.16 8.01 6.96 4.56 15.86 6.07 21.9 12.07 3.15 2.9 2.56 7.52 2.25 11.37-0.84 5.53-5.46 9.74-10.66 11.27-8.72 1.33-18.52 0.18-25.22-6.03-3.8-3.61-4.89-8.99-4.19-14.04 3.27 0.29 6.49 1.04 9.74 1.51-0.13 3.38 1.17 6.88 4.37 8.45 3.94 1.74 8.75 3.13 12.89 1.22 3.09-1.32 4.52-6.3 1.43-8.35-6.63-4.73-15.37-5.96-21.31-11.74z"/>
<path d="m524.35 305.29c14.17-7.47 28.48-14.7 42.7-22.06 1.29 2.4 2.59 4.8 3.9 7.2-2.56 1.62-5.21 3.08-7.91 4.45 1.64 3.56 3.5 7.03 5.04 10.65-5.56 3.44-11.7 5.83-17.24 9.29-1.64 0.87-1.96 2.84-2.77 4.35 2.06 1.83 4.97 3.31 7.7 2 4.23-3.7 7.37-9.36 13.26-10.59 4.22-0.87 7.69 2.32 9.81 5.58 1.97 3.13 3.47 7.08 2.11 10.74-1.16 4.26-4.77 7.09-7.97 9.83 4.63-0.13 9.25-0.27 13.88-0.17-0.94 2.75-1.7 5.63-3.18 8.16-6.03 0.34-11.83-1.74-17.78-2.31-3.85-0.47-7.03 2.64-10.89 2.37-2.98 0.33-6.32-0.81-7.39-3.86-0.33-2.59 1.38-4.99 3.38-6.45 4.73-0.8 9.53 0.55 14.26-0.02 4.57-3.3 8.94-9.34 6.04-15.06-6.75-1.45-8.34 7.71-14.49 8.07-5.99 0.54-12.74 0.29-17.64-3.63-3.12-3.52-1.81-9.31 0.95-12.68 4.81-3.58 10.54-5.71 15.78-8.6-0.44-1.14-0.76-2.36-1.68-3.2-7.68 4.03-15.41 7.96-23.09 11.98-3.49 2.3-6.67 5.06-10.23 7.28 6.86 12.16 14.9 23.64 22.11 35.6-2.53 1.93-5.27 3.54-8.13 4.92-1.5-2.5-3.06-4.97-4.72-7.37-4.92 5.25-11.26 11.1-19.06 9.9-9.37-0.94-15.27-11.82-12.16-20.39 2.69-5.43 7.83-9.06 12.95-12 1.99 1.84 4.03 3.64 5.99 5.53-3.33 1.33-6.45 3.16-8.98 5.73 4.77 0.46 9.58 0.27 14.37 0.18-3.44-5.46-6.81-10.96-10.26-16.41-8.07 5.17-16.19 10.28-24.27 15.42-2.64 2.4-4.96 5.14-7.89 7.23-1.57 0.98-0.04 2.6 0.55 3.68 6.96 9.69 13.85 19.43 20.74 29.16 1.2 1.26 0.36 2.96 0.22 4.45 4.64-0.41 9.35 1.48 12.01 5.39 3.17 3.56 3.37 9.44 0.32 13.13-8.3 11.4-23.02 16.13-36.66 15.68-0.56-3.03-0.55-6.12-0.69-9.18 4.87 0.4 9.82 0.86 14.68 0.06 4.95-1.57 9.15-4.89 12.55-8.73 1.43-1.27 0.97-3.32 1.21-5.01-1.82-0.82-3.54-2.77-5.69-1.95-2.73 1.39-4.44 4.02-6.61 6.07-2.6 0.33-5.03-0.98-7.48-1.58 1.75-4.83 5.47-8.46 8.98-12.03-3.9-5.29-7.38-10.89-11.59-15.94-4 3.26-8.19 6.27-12.14 9.59 2.27 2.9 5.68 5.54 5.57 9.58-5.89 2.45-11.91-0.73-17.81-1.46-2.37-0.44-6.63-1.42-5.47-4.71 1.39-1.8 3.28-3.1 5.02-4.54-2.34-3.04-4.58-6.16-6.9-9.2-3.59 2.72-7.24 5.35-10.76 8.17-1.87-2.12-3.46-4.45-5.04-6.79 8.76-7.2 18.61-13.15 26.54-21.3 5.29-4.1 11.1-7.53 16.28-11.79 5.41-6.91 14.21-9.67 20.88-15.15 7.72-6.53 17.36-10.39 24.79-17.26m-17.46 42.2c1.99 2.44 3.66 6.06 7.25 6.22 4.65 0.43 8.22-3.2 11.2-6.27-6.15-0.28-12.31-0.11-18.45 0.05m-47.76 16.25c2.42 2.91 4.72 5.92 6.98 8.96 4.39-2.99 8.6-6.23 12.78-9.5-2.27-2.82-4.08-5.96-6.37-8.75h-1.21c-4.13 2.99-8.14 6.17-12.18 9.29z"/>
<path d="m1162 299.89c1-2.79 2.75-5.23 4.44-7.64 11.39 7.03 22.96 13.78 34.51 20.56-1.25 2.8-2.83 5.42-4.6 7.91-4.14-2.76-8.45-5.24-12.81-7.62-6.74 11.81-13.9 23.38-20.63 35.2-3-1.66-5.99-3.35-8.94-5.08 3.14-6.69 7.36-12.79 10.95-19.24 3.29-5.39 6.24-10.99 9.77-16.23-4.15-2.76-8.82-4.7-12.69-7.86z"/>
<path d="m397.66 407.61c5.74-4.88 10.91-10.37 16.47-15.44 1.95 1.96 3.86 3.96 5.8 5.94-2.2 2.33-4.5 4.55-6.74 6.84 9.92 9.79 19 20.37 28.85 30.23-2.26 2.31-4.61 4.55-7 6.73-5.08-5.86-10.47-11.43-15.96-16.91-3.26 3.75-6.83 7.21-10.02 11.01 1.71 2.96 7 5.02 5.11 9.07-4.91 2.57-10.73 2.85-16.12 1.98-2.81-0.36-4.11-3.1-5.75-5.04 1.74-2.76 3.81-5.3 6.19-7.53 5.18-5.05 10.05-10.41 15.15-15.54-2.19-2.35-4.4-4.69-6.63-7-6.76 6.6-13.13 13.57-19.64 20.41-4.05 3.73-6.47 8.77-10.29 12.71 9.91 9.4 20.5 18.08 30.46 27.44 0.18 3.21-3.82 5.01-5.49 7.49-10.59-9.11-20.98-18.45-31.28-27.89-3.66 3.64-6.41 8.06-9.68 12.04 10.81 8.98 22.13 17.35 32.73 26.57-1.96 2.3-3.82 4.69-5.81 6.98-3.96-2.66-7.44-5.95-11.3-8.74 0.51 7.81-3.01 15.17-7.37 21.42-4.99 6.28-13.52 8.24-21.19 7.97-1.9 2.8-4.37 5.21-7.7 6.19 0.38 3.06 0.17 6.14-0.25 9.18 6.89-0.27 13.62-1.94 20.49-2.36-0.58 3.6-1.32 7.18-1.6 10.82-12.83-0.2-25.58 1.15-38.38 1.57-0.17-3.06-0.67-6.08-1.27-9.08 3.89-0.71 7.81-1.29 11.78-1.4 0.41-0.59 1.22-1.76 1.63-2.34-3.18-3.76-7.61-6.05-11.69-8.64-3.73 5.81-7.93 11.33-11.37 17.31-0.47 3.87-2.58 7.19-3.88 10.8 11.95 6.95 24.02 13.68 36.02 20.54-1.39 2.74-2.89 5.43-4.56 8.03-6.53-2.93-12.37-7.16-18.82-10.24-2.27 3.88-3.44 9.29-8.45 10.5 0.44 3.2 0.54 6.45 0.35 9.68 6.74-1.3 13.41-2.96 20.07-4.64-0.03 3.42-0.12 6.84-0.43 10.25-12.54 2.39-25.13 4.55-37.77 6.3-0.93-2.97-1.75-5.97-2.19-9.04 4.37-0.89 8.75-1.81 12.92-3.42-2.25-5.17-8.37-6.25-12.75-8.98-3.64 7.26-7.58 14.36-11.17 21.65-2.76-0.65-5.31-1.92-7.85-3.15 5.15-10.89 11.18-21.35 16.67-32.07 2.65-8.58 8.14-15.81 12.31-23.68 1.34-2.08 0.58-4.8 2-6.81 7.32-11.08 14.72-22.11 22.12-33.14 2.17-3.08 1.54-7.19 3.51-10.37 2.43-4.05 6.12-7.58 10.74-8.95 8.92-2.56 19.26 3.85 20.65 13.11 0.24 4.5-2.37 8.42-5.03 11.81 3.35 1.17 7.21-0.32 9.04-3.4 3.97-6.17 7.14-13.44 6.13-20.94-4.09-4.16-8.92-7.6-13.55-11.15-0.3 0.07-0.9 0.2-1.19 0.27-2.17 2.76-4.06 5.75-6.22 8.52-2.16-1.33-4.59-2.45-6.24-4.41 0.09-1.96 1.04-3.76 2.15-5.32 5.09-6.53 10.55-12.8 15.27-19.62 5.43-6.61 11.9-12.42 16.33-19.78 5.51-5.5 10.57-11.42 16.08-16.92 2.25-2.2 3.14-5.42 5.61-7.42m-61.55 84.58c-2.83 1.48-3.58 5.81-1.47 8.15 2.65 1.91 5.59-0.21 8.26-0.97 1.02 0.83 2.06 1.67 3.11 2.5-2.57 5.96-9.69 9.38-15.76 6.44-1.15 1.85-2.37 3.67-3.3 5.65 2.99 3.31 7.18 5.19 10.76 7.78 2.39-4.31 4.23-8.93 6.84-13.11 1.18-0.56 2.43-0.94 3.66-1.37 1.24-3.18 3.24-6.7 1.6-10.12-1.62-5.64-8.89-7.46-13.7-4.95m-35.24 67.44c-2.24 3.69-4.15 7.58-5.91 11.52 3.93 2.01 7.85 4.06 11.83 6 1.66-4.12 3.08-8.32 4.86-12.38-3.19-1.85-6.24-3.98-9.56-5.58-0.3 0.11-0.91 0.33-1.22 0.44z"/>
<path d="m1342.1 440.91c1.96-2.17 4.15-4.11 6.37-6.01 9.11 10.13 17.84 20.61 26.47 31.14-2.26 1.84-4.51 3.69-6.76 5.53-3.31-3.65-6.42-7.47-9.55-11.27-10.65 8.59-20.79 17.81-31.42 26.44-2.23-2.68-4.53-5.29-6.9-7.83 10.44-8.99 21.01-17.83 31.43-26.84-3.37-3.59-6.47-7.42-9.64-11.16z"/>
<path d="m1415.7 628.98c15.22-6.07 30.49-12.05 45.77-17.99 1.46 3.35 2.75 6.77 4.18 10.13-8.07 10.39-16.62 20.41-24.59 30.87 10.89-3.46 21.12-8.9 32.14-11.92 1 3 2.19 5.96 2.84 9.07-15.47 5.73-30.59 12.44-46.18 17.79-1.09-3.22-3.03-6.23-3.39-9.63 7.75-10.76 16.73-20.62 24.64-31.28-10.96 3.52-21.59 8.1-32.23 12.51-0.99-3.17-3.53-6.22-3.18-9.55z"/>
<path d="m232.13 989.96c2.69-0.42 5.41-0.7 8.12-0.9 0.33 2.91 0.97 5.79 1.55 8.68 13.85-2.29 27.63-5.05 41.48-7.39 0.48 3.07 1.14 6.12 1.51 9.22-3.58 0.73-7.17 1.35-10.73 2.1 5.09 6.08 7.71 14.34 6.34 22.23-2.15 7.57-8.85 12.46-15.55 15.86-1.28-4.07-1-9.87-5.69-11.71-4.67-2.58-11.52 2.12-9.26 7.45 0.94 6.81 4 12.94 5.86 19.49 13.53-3.69 26.98-7.66 40.42-11.67 0.92 2.98 1.83 5.98 2.66 9-13.46 4.24-27.1 7.92-40.61 12.03 1.52 4.31 3.91 8.24 5.28 12.61 13.3-3.89 26.63-7.67 39.91-11.65 1.35 2.88 2.26 5.96 2.64 9.14-7.65 2.29-15.36 4.34-22.96 6.79 1.04 4.94 2.86 9.66 4.44 14.44 0.76 2.34 2.03 4.84 4.47 5.8 3.43 0.13 6.63-2.21 8.56-4.9 2.43-4.28 3.95-9 6.23-13.36 1.69 1.16 3.42 2.27 5.15 3.4-1.66 7.15-5.04 13.88-9.62 19.62-2.28 2.87-5.49 5.61-9.38 5.45-4.84 0.64-9.58-2.54-11.3-7-2.66-6.73-4.26-13.84-7-20.53-2.51 0.03-4.91 0.81-7.27 1.55 3.61 10.45 7.19 20.92 10.84 31.36 1.18 3.92 3.97 7.02 5.68 10.7 6.32-1.56 12.06-6.06 18.77-5.34 4.58 0.71 6.18 5.56 7.1 9.47 3.16-6.53 6.41-13.03 9.98-19.34l1.16-0.52c2.18 1.85 4.3 3.84 6.01 6.15-0.26 2.53-1.91 4.6-3.08 6.78-6.11 10.53-12.18 21.07-18.15 31.67-2.57-2.37-5.12-4.76-7.48-7.33 1.85-3.48 4.85-7 4.18-11.19-0.73-1.71-1.8-3.23-2.82-4.75-4.28 0.06-8.21 1.94-12.13 3.45 2.79 6.78 5.79 13.47 8.61 20.25 1.68 4.51 5.34 7.91 6.88 12.51 12.9-5.29 25.6-11.04 38.43-16.47 1.4 2.75 2.78 5.54 3.97 8.41-12.65 6.06-25.8 11.05-38.55 16.9 1.92 5.18 5.52 9.45 7.88 14.41 12.66-6.07 24.84-13.13 37.62-18.92 1.46 2.68 2.76 5.46 3.79 8.36-5.69 2.99-11.44 5.89-17.14 8.87 1.8 3.67 3.85 7.21 5.83 10.8 3.13-1.44 6.09-3.51 9.62-3.82 1.89 4.81 1.62 10.22 0.72 15.22-0.97 3-2.24 7.59-6.18 7.4-3.73 0.57-4.66-3.83-7.03-5.69-3.68 1.6-7.08 3.77-10.59 5.71 0.08 1.3 0.22 2.6 0.41 3.92 2.13-0.37 4.18-1.07 6.28-1.54 1.99 2.09 2.93 4.94 4.14 7.53-3.4 2.93-9.27 4.78-12.62 0.81-3.77-4.23-7.54-9.97-5.72-15.88 3.25-4.76 9.3-6.27 13.88-9.43-2.21-3.63-4.22-7.37-6.29-11.06-4.18 1.88-8.21 4.11-12.22 6.33 1.16 2.7 2.47 5.33 3.76 7.98-2.41 1.33-4.86 2.58-7.43 3.57-3.85-6.8-7.12-13.91-10.87-20.76-4.78-7.3-7.45-15.7-11.39-23.44-1.33-2.32-3.18-4.3-4.23-6.76-4.43-9.97-8.61-20.04-12.9-30.06-1.59-3.91-4.14-7.36-5.42-11.4-2.41-6.78-4.56-13.65-7.09-20.38-0.7-2.11-2.5-3.5-3.74-5.26-3.15-7.78-3.85-16.48-8.07-23.84-1.18-2.63-1.85-5.44-2.7-8.16-5.51 3.77-10.31 9.05-12.25 15.55-0.52 3.13-0.67 6.66 1.15 9.44 1.53 2.15 4.09 4.41 6.91 3.25 3.54-1.53 5.69-4.92 7.82-7.95 0.71 3.18 1.87 6.33 1.87 9.62-1.84 6.43-9.42 10.77-15.84 8.21-6.88-2.92-10.58-10.87-10.47-18.05-0.41-6.14 2.89-11.69 6.22-16.56 3.4-4.77 7.62-8.92 12.17-12.57-3.75-8.02-4.81-16.82-6.92-25.33-2.42-12.9-6.79-25.42-7.61-38.58m11.2 17.57c1.6 4.38 2.67 8.93 3.47 13.53 2.7-2.11 5.42-5.06 9.17-4.64 5.78-0.38 10.34 3.79 14.18 7.56 3.56-4.55 3.58-11.5-0.22-15.92-2.13-2.48-5.15-5.57-8.72-4.21-5.91 1.46-12.03 1.92-17.88 3.68z"/>
<path d="m775.26 1059.6c6.1-0.43 12.22-0.35 18.33 0.06-0.51 2.63-1.07 5.27-1.34 7.95-5.18-0.32-10.36-0.48-15.52-0.05-0.38-2.69-0.99-5.32-1.47-7.96z"/>
<path d="m1421 1100c7.09 2.04 13.51 5.83 20.26 8.76 8.48 3.96 17.13 7.57 25.47 11.85-3.68 7.73-6.92 15.67-10.78 23.32-2.41 4.78-7.23 9.08-12.91 8.47-5.7-0.42-10.57-4.62-11.66-10.26-6.24 5.14-16.15 2.25-20.03-4.41-2.83-4.36-2.43-10.07-0.53-14.7 3.18-7.77 7.1-15.22 10.18-23.03m4.11 12.42c-2.1 4.89-4.71 9.58-6.3 14.67-1.56 5.69 7.28 10.61 10.92 5.63 3.28-4.44 5.1-9.79 7.16-14.87-3.95-1.78-7.9-3.53-11.78-5.43m19.51 9.38c-1.91 4.75-4.47 9.24-5.88 14.18-0.95 4.44 5.75 8.7 8.7 4.42 3.03-4.42 5.31-9.47 6.65-14.67-3.09-1.48-6.23-2.85-9.47-3.93z"/>
<path d="m926.07 1417.5c5.56-2.23 11.91-0.83 16.57 2.75 6.44 4.89 11.67 11.21 16.37 17.75 1.47 1.38 0.11 3.68-1.73 3.66-4.99-5.39-9.87-11.39-16.88-14.2-3.01-1.4-6.38-0.94-9.57-1.05-2.47-2.37-3.22-5.96-4.76-8.91z"/>
</g>
<g fill="#c2c2c2">
<path d="m1006.2 243.12c0.29-3.05 1.1-6.02 2.2-8.88 13.07 3.26 26.21 6.28 39.28 9.6-0.69 2.94-1.49 5.86-2.34 8.76-4.83-1.28-9.64-2.72-14.59-3.39-2.9 13.27-6.35 26.41-9.49 39.62-3.42-0.69-6.79-1.54-10.14-2.44 3.03-13.26 6.25-26.48 9.54-39.69-4.79-1.32-9.56-2.76-14.46-3.58z"/>
<path d="m1479.2 720.83c6-1.24 11.84-3.56 18.03-3.59 0.45 3.21 1.33 6.34 1.71 9.57-12.9 3.28-25.84 6.41-38.81 9.44 0.78 8.27 3.99 16.12 4.81 24.39-2.75 0.73-5.53 1.35-8.26 2.05-3.2-11.29-5.44-22.83-8.36-34.19 10.12-3.17 20.63-4.95 30.88-7.67z"/>
</g>
<g fill="#c2c2c2">
<path d="m665.25 249.65c3.02-1.12 6.08-2.14 9.12-3.23 5.7 15.72 10.52 31.75 16 47.54-3.46 0.89-6.72 2.7-10.32 2.85-10.2-8.66-19.83-17.98-30.06-26.6 3.41 11.24 7.74 22.19 10.88 33.51-3.07 1.06-6.16 2.06-9.25 3.04-4.89-16.02-10.97-31.68-15.44-47.82 3.64-0.68 7.05-2.69 10.8-2.57 9.7 8.56 19.25 17.31 28.91 25.92-3.28-10.96-7.14-21.74-10.64-32.64z"/>
<path d="m1393.9 583.62c14.73-7.46 29.54-14.75 44.34-22.07 1.74 3.08 3.27 6.27 4.68 9.52-5.66 2.6-11.18 5.48-16.73 8.29 2.85 5.76 5.6 11.58 8.62 17.26 5.49-2.85 11.09-5.5 16.58-8.38 1.87 3.07 3.55 6.3 4.58 9.77-14.92 7.02-29.51 14.71-44.34 21.9-1.7-3.05-3.22-6.19-4.58-9.39 6.49-3.53 13.25-6.54 19.77-10.01-2.82-5.76-5.57-11.56-8.53-17.25-6.78 3.2-13.27 7.07-20.31 9.62-1.42-3.06-2.91-6.1-4.08-9.26z"/>
<path d="m1464.4 664.23c5.12-0.39 10.59 0.23 14.83 3.4 8.29 5.85 12.03 16.95 9.9 26.74-1.23 4.95-4.19 9.5-8.46 12.34-7.4 5.08-16.72 8.09-25.69 6.36-14.95-3.73-22.64-23.57-14.29-36.46 5.34-7.63 14.66-11.59 23.71-12.38m-4.9 11.59c-4.44 1.64-8.92 4.09-11.44 8.25-4.68 7.2 1.03 18.77 9.86 18.62 6.7 0.63 13.54-1.74 18.61-6.12 5.92-5.02 5.18-15.6-1.26-19.85-4.54-3.3-10.76-2.7-15.77-0.9z"/>
<path d="m968.13 1017.1c0.11-2.38 0.57-4.73 1.33-6.98 4.46 0.7 8.89 1.62 13.32 2.52-0.34 2.05-0.71 4.11-1.12 6.17-4.59 0.07-9-1.23-13.53-1.71z"/>
<path d="m726.25 1049.8c5.88-0.12 11.58-1.67 17.36-2.6 0.89 2.31 1.61 4.68 2.27 7.08-6.07 1.3-12.27 1.91-18.31 3.36-0.67-2.58-1.14-5.2-1.32-7.84z"/>
<path d="m985.41 1064.1c7.17 0.99 14.3 2.27 21.48 3.27-0.13 2.75-0.41 5.52-1.26 8.17-7.41-1.07-14.73-2.67-22.17-3.38 0.68-2.69 1.05-5.44 1.95-8.06z"/>
<path d="m1029.2 1339.4c4.3-2.63 9.55-0.88 12.74 2.64 7.68 8.13 12.01 18.71 15.94 29.02 0.52 1.36 1.26 3.23 3.04 3.22 9.76 0.69 19.3 3.03 28.97 4.45 6.71 1.51 13.67 1.99 20.18 4.35 10.63 1.96 21.1 4.71 31.73 6.76 6.57 1.67 13.51 2.21 19.68 5.25 4.76 2.11 10.45 1.79 14.83 4.67 1.11 2.87 1.75 5.89 2.45 8.9-3.65-0.74-7.21-1.79-10.86-2.48-3.74 15.94-7.85 31.81-11.73 47.74-2.74-2.64-5.56-5.25-7.75-8.35 0.32-5.06 2.27-9.86 3.26-14.81-5.39-0.02-10.47-2.06-15.79-2.58-0.61 2.15-1.33 4.29-2.16 6.38-1.07-0.05-2.12-0.1-3.15-0.12-3.08-5.58-7.29-10.73-8.81-17.01 2.08-0.41 4.7 0.55 6.35-1.14 1.27-6.51 3.24-12.91 3.81-19.54-5.5-0.87-10.83-2.5-16.3-3.44-3.1 16.18-6.48 32.31-9.47 48.51-2.77-2.56-5.45-5.2-8.11-7.86 0.19-3.34 0.7-6.63 1.62-9.83-6.23 1.84-13.8 2.73-19.17-1.69-7.1-6.05-9.96-15.84-10.23-24.88 4.63-0.11 9.4-0.15 13.85-1.62 3.11-2.52 0.57-7.02-1.73-9.2-6.75-1.85-13.78-2.31-20.67-3.48-2.54 16.14-5.21 32.28-7.68 48.44-3.18-2.25-6.16-4.75-8.82-7.58 0.36-3.05 0.99-6.05 1.54-9.05-5.65 1.45-12.21 2.87-17.5-0.38-4.54-2.63-7.31-7.27-9.5-11.87-0.5 2.76-1.08 5.51-1.47 8.31-5.55 2.29-11.77 4.45-17.74 2.46-8.07-2.01-15.3-10.02-13.9-18.66 0.9-4.1 4.44-6.69 8.1-8.21-2.99-2.36-6.02-5.04-7.12-8.83-1.44-8.5 8.95-15.97 16.62-12.32 5.27 1.87 10.32 8.24 7.18 13.85-2.26 3.31-6.57 4.2-10.33 4.25 0.17 0.84 0.35 1.7 0.53 2.58 2.45 0.12 4.91 0.12 7.35 0.49 3 2.19 2.48 6.68 3.74 9.9-4.81-0.71-9.67-1.75-14.53-0.94-2.26 0.88-5.21 2.84-4.51 5.66 1.7 2.87 5.2 3.75 8.32 3.95 5.76 0.1 11.12-2.47 15.97-5.35-0.2-3.48-0.88-6.9-1.68-10.28 5.04-0.82 10.13-1.4 15.13-2.55 0.63-3.6-0.23-7.83-3.9-9.41-3.85-0.8-7.74-1.3-11.65-1.53-1.3-3.21-2.6-6.43-3.72-9.69 3.87 0.03 7.74 0.51 11.53 1.33 10.35 2.54 21.24 2.35 31.46 5.42-3.53-7.5-7.1-15.37-13.34-21.04-2.69-2.47-6.38-2.91-9.87-2.71-0.68-3.43-1.7-6.78-2.73-10.1m-30.61 31.96c-3.64 1.93-2.21 8.02 1.81 8.27 2.91 0.77 6.57-1.4 6.06-4.67 0.28-3.77-5.11-6.06-7.87-3.6m34.77 6.87c3.71 3.95 6.91 9.09 6.19 14.75 0.01 2.21-2.24 3.53-4.09 4.18-3.19 0.57-6.7-0.14-9.55 1.74-2.83 2.35-0.26 6.35 2.64 7.19 6.83 1.58 13.93-0.22 19.96-3.56 1.25-6.95 2.44-13.91 3.26-20.91-6.18-0.92-12.21-2.6-18.41-3.39m55.16 9.84c3.47 4.57 5.4 10.44 3.8 16.13-3.21 2.97-7.8 1.89-11.73 2.47-1.36 0.74-2.29 2.03-3.33 3.15 1.02 2.37 2.6 4.65 5.23 5.42 5.13 0.91 10.52 0.4 15.35-1.63 1.82-0.8 4.44-1.58 4.59-3.95 1.02-6.06 2.25-12.08 3.45-18.1-5.75-1.37-11.34-3.69-17.36-3.49m53.33 11.02c-1.27 6.79-3.3 13.46-3.77 20.38 4.83 1.5 9.82 2.44 14.83 3.25-0.13 1.97-0.35 3.97-0.42 5.99 1.72-8.37 3.93-16.64 6.06-24.92-5.67-1.26-10.8-4.4-16.7-4.7z"/>
</g>
<g fill="#c2c2c2">
<path d="m537.62 276.06c0.88-6.42 7.6-10.09 13.63-9.77 0.88 1.61 1.73 3.24 2.59 4.88-3.05 0.94-5.96 2.28-8.49 4.23 0.02 2.14-0.46 4.56 0.93 6.41 2.08 3.4 6.32 3.98 9.81 5.07-2.53 1.22-5.06 3.46-8.07 2.62-5.82-1.7-10.53-7.25-10.4-13.44z"/>
<path d="m891.95 1029.7c9.8-4.99 20.82-7.67 31.83-7.53-0.02 2.37-0.01 4.76-0.05 7.15-9.31-0.55-18.37 2.1-26.69 6.03-2.46-0.39-3.48-3.81-5.09-5.65z"/>
<path d="m812.35 1045c6.12 1.01 11.88 3.59 17.2 6.75-1.72 1.96-3.42 3.94-5.19 5.86-4.73-2.62-9.83-4.42-14.86-6.34 0.96-2.09 1.87-4.2 2.85-6.27z"/>
</g>
<g fill="#c2c2c2">
<path d="m1119.6 270.99c3.19 1.22 6.3 2.66 9.47 3.97-3.79 11.45-10.31 21.8-14.18 33.23-2.24 8.86 12.74 15.01 16.95 6.65 5.26-10.43 9.58-21.32 14.84-31.76 3.14 1.46 6.28 2.94 9.39 4.51-3.8 9.5-8.43 18.64-12.54 28.01-2.06 4.76-5.08 9.64-10.1 11.68-6.06 2.79-12.92 0.51-18.54-2.27-6.07-2.98-11.3-8.98-11.23-16.01 0.94-7.39 5.12-13.76 7.93-20.51 2.69-5.82 5.25-11.71 8.01-17.5z"/>
<path d="m1208 317.58c10.37 6.54 20.9 12.9 30.86 20.05-1.65 2.31-3.22 4.67-4.78 7.04-7.64-4.32-14.58-9.77-22.39-13.77-1.85 2.74-3.57 5.56-5.37 8.33 6.69 4.55 13.63 8.72 20.4 13.17-1.51 2.39-2.88 4.87-4.65 7.07-1.51 0.28-2.55-1.14-3.76-1.73-4.87-3.19-9.75-6.36-14.65-9.49-0.84-0.42-1.96-1.53-2.72-0.39-2.45 3.1-4.24 6.64-6.4 9.93 7.85 4.71 15.44 9.86 23.27 14.61-1.56 2.51-3.11 5.02-4.64 7.54-6.58-3.59-12.59-8.1-19.01-11.95-4.41-2.8-8.95-5.41-13.06-8.64 9.13-13.82 17.72-27.99 26.9-41.77z"/>
<path d="m1275.4 432.31c11.59-12 22.95-24.23 34.53-36.25 8.5 8.14 17.12 16.15 25.62 24.29-1.81 2.27-3.72 4.45-5.64 6.62-6.66-4.92-11.83-11.49-18.18-16.74-3.42 1.48-5.33 5.09-7.82 7.71 5.09 5.19 10.45 10.1 15.73 15.09-2.05 2.23-4.19 4.37-6.43 6.41-4.97-5.22-10.35-10.02-15.57-14.97-5.16 4.71-9.55 10.18-14.55 15.05-2.55-2.42-5.16-4.77-7.69-7.21z"/>
<path d="m1367.9 1199.9c1.04-3.25 3.33-5.89 5.03-8.8 4.46 2.82 8.89 5.67 13.33 8.53 4.57 3.3 10.54 1.14 15.72 2.44 7.42 0.3 14.8 0.93 22.2 1.48-2.05 3.35-4.19 6.66-6.14 10.08-7.98-0.05-15.8-1.9-23.74-2.27 4.02 6.62 8.32 13.08 12.48 19.62-2.1 3.34-4.16 6.72-6.56 9.86-4.96-9.07-10.16-18.01-15.1-27.09-3.35-7.08-12.15-8.45-17.22-13.85z"/>
</g>
<path d="m455.05 334.72c2.14-2.07 4.44-4.03 7.06-5.47 2.36 0.85 2.97 3.81 4.46 5.63-2.54 1.69-5.07 3.37-7.58 5.09-1.31-1.76-2.61-3.52-3.94-5.25z" fill="#c2c2c2"/>
<path d="m1261.5 366.5c13-4.84 28.16 4.85 31.13 17.98 1.85 5.8-0.25 11.97-3.03 17.1-4.48 7.2-11.07 13.82-19.6 15.72-13.15 2.28-26.46-8.28-28.41-21.24-0.83-6.92 2.27-13.67 6.5-18.97 3.66-4.39 7.94-8.57 13.41-10.59m4.96 9.22c-6.81 2.87-12.41 9.11-14.39 16.26-2 6.46 2.73 13.37 8.87 15.31 4.56 1.03 9.48-0.23 12.95-3.37 4.9-4.28 9.21-10.1 9.41-16.84-0.61-7.92-9.16-14.04-16.84-11.36z" fill="#c2c2c2"/>
<path d="m866.84 412.76c0.68-1.07 2.12-0.12 2.61 0.7 15.24 18.87 28.41 39.46 38.69 61.44 11.2-11.05 23.27-21.86 38.04-27.88 14.75-6.35 31.28-6.84 46.95-4.32-6.32 18.82-11.2 38.4-11.64 58.33 15.13-11.15 33.41-19.29 52.52-18.76 5.65-0.11 11.87 0.11 16.54 3.74-1.67 6.85-4.76 13.35-6.47 20.24-2.64 9.77-4.44 19.75-5.82 29.77 10.83-5.53 22.78-8.4 34.72-10.38 10.14-0.9 20.9-0.51 30.23 3.96 2.43 1.48 6.53 3.43 5.49 6.88-4.67 6.63-10.94 12.06-15.1 19.07-5.5 9.19-9.26 19.3-12.41 29.49 9.92-4.84 20.66-8.33 31.78-8.55 12.26-0.45 25.34 0.1 36.11 6.65 5.19 2.45 9.61 6.68 10.97 12.42-16.3 5.93-28.6 19.19-38.21 33.17-11.44 16.66-20.58 34.73-31.05 51.99-13.78 21.77-35.65 38.16-60.44 45.23 9.12 5.41 17.79 11.82 24.37 20.25 7.11 8.83 11.57 19.46 18.79 28.21 4.94 5.48 10.12 10.97 16.56 14.7 9.59 4.63 20.57 3.61 30.78 5.62-1.06 9.66-7.3 17.65-12.96 25.18-13.02 15-28.91 27.81-47.2 35.81-19.5 7.66-40.99 9.45-61.66 6.51-13.01-1.89-26.1-4.45-38.14-9.88-5.68-2.79-11.8-6.26-13.91-12.65-3.59 7.65-9.58 14.01-16.78 18.37-11.32 6.75-24.2 10.35-37.11 12.57-9.44 22.5-15.75 46.8-14.86 71.36-0.44 13.68 1.23 27.31 4.54 40.58 9.87-3.71 20-6.92 30.48-8.35 13.43-2.49 27.2-2.21 40.8-1.62 20.87 2.9 40.21 11.81 60.49 17.07 17.4 4.85 35.77 4.48 53.52 1.99 1.42 1.1 2.24 2.75 3.2 4.25 22.98 38.6 45.96 77.2 68.94 115.8 1.22 2.13 2.77 4.12 3.64 6.45-0.3 2.96-2.3 5.4-3.38 8.11-4.17 9.38-8.33 19.26-7.97 29.72-0.03 5.67 1.97 11.44 5.93 15.57 3.8 4.04 7.97 7.73 11.79 11.76-79.07 1.13-158.15-0.43-237.23 0.08-2.75 0.26-6.05-0.79-8.22 1.39-12.61 11.29-29.92 16.9-46.75 16.01-15.72 0.68-30.86-6.24-42.98-15.83-1.17-0.9-2.43-1.89-4-1.67-67.01 0.14-134.02 0.38-201.03 0.5-11.99 0.69-24 0.44-36 0.4 3.6-6.49 10.26-12.12 9.68-20.17 0.51-6.79-2.73-13.04-5.87-18.81-4.98-9.07-10.99-17.5-16.75-26.07 35.05-43.9 69.98-87.91 104.87-131.93 6.36 0.17 12.73 0.14 19.05 1.03 29.75 0.81 59.69-1.65 88.6-9 13.49-3.69 27.57-3.23 41.41-2.81 5.95 0.51 11.78 1.98 17.74 2.52-1.59-10.93-3.49-21.89-3.38-32.97-0.8-22.87 2.51-45.95 10.38-67.47 1.18-3.51 2.84-6.92 3.18-10.65-5.24-0.34-10.17-2.27-15.13-3.83-11.93-3.96-23.59-9.46-33.03-17.89-4.47-3.7-7.94-8.44-12.62-11.88-21.26 8-43.08 16.35-66.12 16.35-9.55-0.09-19.34 0.64-28.57-2.33-13.6-4.23-26.77-10.08-38.71-17.89-7.83-4.99-14.51-11.55-20.82-18.31-5.18-5.69-9.9-11.95-12.96-19.06-1.08-2.77-1.43-6.89 2.01-8.06 7.37-3.51 14.79-7.6 19.8-14.27 5.52-6.48 8.44-14.62 13.46-21.45 6.96-10.64 15.71-19.95 25.16-28.41-14.33-3.3-27.81-10.55-37.97-21.26-10.56-9.95-16.64-23.43-22.77-36.31-8-18-14.75-37.03-27.67-52.26-4.27-4.78-9.2-8.99-14.73-12.24-2.56-1.88-6.08-2.94-7.81-5.62 3.57-10.23 11.98-18.56 21.98-22.55 14.86-5.29 31.51-4.09 46.11 1.48-3.1-8.73-6.43-17.44-11.03-25.51-4.73-8.03-11.74-14.31-17.69-21.36-1.42-1.73 0.16-3.74 1.79-4.54 11.15-6.66 24.93-7.16 37.46-5.1 14.56 3.2 28.58 10.44 38.37 21.87 0.2-10.44-2.2-20.72-4.27-30.89-2.54-9.41-6.28-18.45-9.51-27.62-0.49-1.4 1.12-2.28 2.08-2.91 5.57-1.81 11.5-1.46 17.28-1.62 18.04-0.42 35.38 7.34 49.33 18.37 3.53 2.64 6.33 6.08 8.97 9.57 2.7-15.01 4.52-30.18 6.04-45.35 0.84-8.02-2.72-15.52-3.31-23.39 8.46-0.39 16.97-0.09 25.31 1.48 14.62 3.51 28.98 9.28 40.7 18.89 5.86 4.92 10.86 10.81 15.12 17.16 10.45-20.71 22.9-40.48 37.68-58.38m-15.17 50.82c-8.69 14.17-15.37 29.5-20.92 45.14-6.46 17.52-10.67 35.82-13.03 54.33-1.78 12.78-1.46 25.71-1.16 38.57 1.96 23.73 7.57 47.56 19.45 68.38 6.29 10.7 15.94 19.64 27.7 23.92 2.45 1.01 5.3 1.23 7.79 0.19 12.43-4.57 22.11-15 27.41-26.96 7.89-17.85 12.91-36.89 15.54-56.21 1.38-13.25 2.57-26.62 1.49-39.94-1.58-31.2-10.18-61.73-22.63-90.27-6.11-13.86-14.38-26.86-25.37-37.37-6.52 5.77-11.69 12.88-16.27 20.22m-93.29 69.52c-3.32 22.89-6.62 46.17-3.37 69.27 4.02 21.16 12.89 41.5 26.18 58.48 8.84 10.28 19.4 19.8 32.38 24.4 6.24 1.78 12.45 3.97 18.94 4.65-21.85-23.64-32.01-56.18-33.07-87.91-1.52-35.01 5.94-69.85 17.89-102.61 0.44-1.24 0.37-2.6-0.08-3.8-3.13-8.48-6.99-16.9-13.29-23.51-9.28-9.83-20.81-18.45-34.41-20.86-1.34 27.56-6.81 54.69-11.17 81.89m184.68-63.99c-9.99 6.99-20.01 14.71-26.42 25.29 0.17 2.96 1.94 5.69 2.7 8.58 8.63 27.12 14.2 55.46 13.38 84.02 0.73 26.02-4.29 52.14-14.58 76.06-4.69 10.44-9.95 20.89-18.11 29.1 2.9 1.62 5.88 3.1 8.95 4.37 11.55-5.98 23.04-12.9 31.16-23.31 16.12-19.25 22.27-44.68 24.32-69.18 0.52-14.34 0.38-28.71-0.15-43.05-1.2-7.28-0.43-14.71-1.68-21.98-0.44-13.33-0.52-26.67-0.22-40 0.07-13.54 2.9-26.85 6.46-39.85-9.51-0.01-18 5.05-25.81 9.95m-250.49 24c0.02 8.71 2.65 17.19 3.55 25.84 1.1 12.81 0.11 25.71 1.16 38.53 0.32 11.24 1.3 22.44 2.64 33.6 2.34 14.97 4.86 30.16 11.33 44 7.74 16.65 18.39 32.16 32.07 44.48 11.34 10.71 26.42 16.69 41.6 19.35 6.58 2.23 13.67 1.91 20.52 1.53-1.08-0.75-1.88-2.69-3.43-1.99-8.22-5.14-16.85-9.84-24.02-16.46-4.83-4.82-9.95-9.38-14.34-14.62-10.89-13.95-19.15-30.08-22.99-47.4-7.31-29.17-4.12-59.59 0.36-88.94 0.16-2.21 1.23-4.74-0.27-6.7-7.42-12.2-17.73-23.11-30.96-28.96-5.2-2.57-11.65-4.39-17.22-2.26m294.25 26.8c-1.93 2.19-5.66 3.7-5.43 7.07 0.04 8.11 0.06 16.25 0.93 24.32 0.35 4.9-0.08 9.85 0.87 14.7 0.56 6.65 0.17 13.33 0.25 20 0.23 5.02-1.06 9.94-0.96 14.96-1.09 14.17-3.72 28.25-8.12 41.77-5.31 15.75-13.65 30.5-24.46 43.13-4.87 5.71-11.24 9.8-16.8 14.76 11.83 0.93 22.89-4.89 32.59-11.04 15.36-9.63 25.78-25.25 33.3-41.4 9.11-18.83 13.41-39.49 16.46-60.05 3.84-24.11 5.23-48.54 9.36-72.61 0.96-4.96 1.17-10.06 0.67-15.08-14.64 1.92-28.08 9.34-38.66 19.47m-357.83 10.68c1.58 6.18 6.15 10.99 8.77 16.72 6.32 11.11 9.5 23.55 12.85 35.78 6.83 23.28 13.07 46.9 23.13 69.05 5.41 10.99 12.85 20.94 21.67 29.42 9.79 9.97 21.42 18.54 34.84 22.86 10.25 3.33 21.01 6.54 31.89 5.62-4.48-3.38-9.69-5.61-14.27-8.85-24.24-15.64-42.03-39.89-52.93-66.34-7.22-17.74-10.69-36.78-12.35-55.79-0.49-6.8 0.35-13.75-1.37-20.42-5.28-7.79-12.14-14.58-19.95-19.82-9.39-6.44-20.95-9.39-32.28-8.23m415.69 20.26c-3.02 1.8-6.47 3.2-8.7 6.02-3.44 24.24-7.07 48.51-13.03 72.28-2.15 9.27-5.8 18.13-10.2 26.55-5.01 10.25-10.98 20.04-17.87 29.14-6.47 8.73-15.14 15.46-23.86 21.8 7.33-0.47 14.47-2.6 21.36-5.05 15.07-6.02 26.25-18.53 35.95-31.09 6.85-9.35 13.8-18.77 18.59-29.39 9.37-21.33 13.82-44.33 20.85-66.45 2.37-7.45 5.89-14.45 9.62-21.3 2.05-3.8 4.72-7.39 5.59-11.71-13.46-2-26.66 2.88-38.3 9.2m-452.7 34.86c-2.02 0.3-3.42 1.75-4.84 3.06 5.54 8.05 13.71 13.95 18.59 22.53 12.03 20.26 18.53 43.26 30.47 63.58 7.29 12.29 18.05 22.75 31.2 28.57 12.82 5.9 27.22 6.98 41.15 6.13-16.83-9.58-31.04-23.4-41.79-39.44-5.47-8.12-8.97-17.34-12.34-26.47-5.13-13.24-8.61-27.02-12.6-40.62-1.49-4.92-6.15-7.85-10.02-10.8-11.46-8.02-26.42-9.94-39.82-6.54m502.47 13.8c-8.53 4.3-15.62 10.93-21.7 18.2-2.72 3.03-3.68 7.05-4.98 10.79-4.42 12.8-9.76 25.43-17.67 36.5-7.39 10.18-15.03 20.24-24.03 29.05-6.78 7-14.39 13.34-23.09 17.81-1.99 0.65-3.77 1.75-5.35 3.09 5.6 0.86 11.3 0.88 16.95 0.38 4.88-0.54 9.94-1.04 14.34-3.43 10.63-3.35 20.39-9.11 29.46-15.5 13.71-11.75 23.13-27.52 31.76-43.17 4.62-9.25 9.2-18.54 14.33-27.53 3.66-6.86 7.58-13.61 12.57-19.6 2.79-3.95 6.83-7.4 7.71-12.38-10.39-1.42-21.05 1.01-30.3 5.79m-241.02 112.25c-6.77 0.86-13.58 1.88-19.94 4.49-15.22 5.42-26.83 17.66-35.3 31.05-6.19 8.67-9.39 19.82-6.96 30.36 3.88 19.21 23.57 32.88 42.77 31.9 10.64-0.28 21.02-3.61 30.5-8.29 1.65-0.85 3.83-1.74 5.43-0.25 16.59 12.6 41.6 12.96 58.24 0.24 6.89-4.71 11.77-12.11 13.43-20.28 2.35-10.28-0.9-20.89-5.46-30.09-11.83-22.07-35.04-37.85-60.08-39.99-7.55-0.63-15.08 0.68-22.63 0.86m-139.26 14.38c-7.6 0.67-15.14 2.23-22.36 4.7-13.91 5.79-23.3 18.34-31.3 30.57-7.11 10.32-13.11 21.57-22.1 30.45 18.61 5.83 38.4 4.53 57.58 3.22 10.76-1.47 21.62-2.73 31.99-6.1 14.51-4.33 27.95-11.88 39.79-21.25 5.23-5.05 8.22-11.84 11.54-18.19 4.69-8.82 8.78-18.36 16.65-24.92-13.33-0.02-26.64-0.47-39.96-0.34-13.96 0.14-28.01-0.42-41.83 1.86m228.34 0.31c4.11 9.68 10.15 18.42 13.82 28.3 4.29 10.06 5.82 21.01 6.19 31.87 0.61 4.94 1.91 10.68 6.67 13.27 10.02 5.48 20.82 9.37 31.71 12.73 18.13 5.84 37.46 7.06 56.37 5.71 12.31-1.13 24.8-4.51 34.7-12.21-7.93-4.46-15.94-9.14-22.34-15.69-12.1-13.83-20.77-30.3-33.18-43.88-5.32-6.1-12.3-11.02-20.29-12.77-9.73-3.31-20.17-1.24-30.15-2.98-14.59-0.47-29.02-2.73-43.5-4.35m-176.87 67.1c-0.15 8.13-0.05 16.28-0.02 24.42 2.76-2.08 6.67-3.04 8.49-6.07 0.26-7.27-0.61-14.54-0.63-21.81-2.67 1.01-5.33 2.09-7.84 3.46m-18.65 6.33c-1.05 1.03-0.31 2.75-0.53 4.07 0.07 8.09-0.02 16.18 0.06 24.26 2.75-1.06 5.53-2.11 8.1-3.58 1.49-0.55 0.93-2.42 1.11-3.6-0.03-7.98-0.03-15.95-0.05-23.92-2.94 0.79-5.9 1.56-8.69 2.77m-19.62 4.62c0.02 9.79-0.02 19.58 0.07 29.37 3.01-0.59 5.98-1.36 9.02-1.87 0.12-9.65-0.01-19.3 0.07-28.95-3.09 0.31-6.13 0.83-9.16 1.45m-19.92 3.9c0.16 9.08 0.03 18.17 0.1 27.25 3.3-0.03 6.61-0.11 9.93-0.23 0.11-9.66 0.02-19.32-0.01-28.97-3.36 0.56-6.72 1.12-10.02 1.95m-62.42 0.33c3.93 4.71 8.55 8.74 13.5 12.36 0.15-3.53 0.09-7.07 0.15-10.6-4.58-0.3-9.16-0.81-13.65-1.76m23.57 1.93c-0.02 5.38 0.01 10.76-0.04 16.14 3.16 1.53 6.4 2.9 9.73 4.05 0.04-6.55 0.17-13.11 0.03-19.66-2.97-1.21-6.53-0.23-9.72-0.53m19.68-0.26c0.06 7.93-0.24 15.87 0.13 23.8 3.1 0.18 6.21 0.4 9.32 0.61 0.01-8.42-0.06-16.85 0.04-25.26-3.19-0.01-6.36 0.24-9.49 0.85m108.49 4.75c0 3.55-0.29 7.12 0.08 10.67 2.52 3.01 5.47 5.63 8.42 8.21 0.3-4.79 0.11-9.59 0.24-14.38-3.01-1.32-6.01-2.67-8.74-4.5m132.15 3.1c-0.52 7.54-0.21 15.16-0.1 22.72 3.35-2.68 7.38-5.05 9.38-8.99-0.45-5.71-0.52-11.43-0.47-17.14-2.95 1.12-5.95 2.09-8.81 3.41m33.53-2.41c-0.18 5.81 0.04 11.63-0.09 17.45 3.49 2.56 7.24 4.77 11.2 6.57-0.22-6.26 0.55-12.7-0.4-18.83-3.41-2.05-7.05-3.67-10.71-5.19m-97.74 5.93c-2.19 1.37-4.09 3.35-3.9 6.14-0.17 9.38-0.19 18.78-0.19 28.17 3.8 2.24 8.71 1.07 12.98 1.6 0.06-5.56 0.11-11.12 0.13-16.68-0.14-5.32 0.9-10.61 0.46-15.92-2.3-2.24-6.32-6.36-9.48-3.31m-48.27-0.49c-0.06 7.04-0.16 14.08-0.09 21.13 3.36 1.89 6.78 3.7 10.21 5.47 0.06-8.35 0.01-16.7-0.12-25.05-3.4-0.05-6.75-0.61-10-1.55m91.01 0.48c0.06 10.1-0.04 20.21 0.07 30.32 3.46-0.87 6.85-2.04 10.16-3.39 0.07-9.42 0.12-18.84-0.04-28.26-3.36 0.72-6.76 1.17-10.19 1.33m-22.29 2.71c-0.94 10.69-0.28 21.46-0.58 32.19 4.01-0.04 7.9-1.03 11.87-1.47 0.09-10.6-0.02-21.2 0.06-31.79-3.8 0.12-7.61 0.35-11.35 1.07m-47.72-0.08c0.04 9.27 0.1 18.55 0.12 27.82 3.99 1.15 8 2.3 12.15 2.77 0.23-9.84 0.74-19.65 0.56-29.5-4.28-0.41-8.53-1.06-12.83-1.09m146.13 1.3c0 5.76-0.13 11.53 0.06 17.29 3.09 2.41 7.29 2.42 11.02 3.01 0-5.65 0.06-11.29-0.06-16.94-3.75-0.86-7.35-2.25-11.02-3.36m77.73 5.12c-0.02 2.81 0.02 5.62 0.11 8.44 6.39-3.54 12.25-7.99 17.58-12.99-5.85 1.68-11.7 3.47-17.69 4.55m-56.8 1.31c0.05 5.37 0.04 10.75 0.08 16.13 3.6 0.26 7.18 0.65 10.76 1.21-0.21-5.56 0.73-11.26-0.71-16.71-3.39-0.05-6.77-0.31-10.13-0.63m39.08 1.64c0.11 4.06 0.11 8.12 0.15 12.19 2.58-0.5 5.11-1.21 7.66-1.87-0.01-3.91 0-7.81-0.04-11.71-2.6 0.46-5.18 0.97-7.77 1.39m-18.3 0.54c0.04 5.07-0.05 10.14 0.07 15.22 2.86-0.75 6.36-0.21 8.85-1.71 0.18-4.48-0.05-8.96 0.02-13.43-2.99-0.01-5.96-0.04-8.94-0.08m-178.41 82.76c-2.88 22.76-1.45 46.01 3.88 68.32 4.22 2.19 8.15 4.88 12.29 7.21 1.69-0.61 3.25-1.52 4.84-2.34-4.11-16.42-6.53-33.3-6.28-50.25 0.22-23.04 5-45.94 13.22-67.45-5.01-0.01-10.06 0.11-14.98-0.95-6.31 14.49-10.63 29.84-12.97 45.46m24.62 85.09c0.02 9.96-1.2 19.88-1.14 29.85-0.72 6.65-0.91 13.32-1.07 20.01-1.14 8.95-0.39 18.03-1.54 26.98-0.32 5.99-0.14 12-0.51 17.99-0.7 5.68-0.92 11.44-0.74 17.16 0.93 2.19 3.53 1.77 5.03 0.43 16.32-11.48 35.71-17.9 55.34-20.73 20.6-2.45 41.49-1.63 62.07 0.64 23.12 2.76 45.93 7.49 68.89 11.25 22.41 4.16 45.19 7.4 68.04 5.66-18.15-30.27-36.09-60.67-54.19-90.97-3.3-5.19-5.93-10.84-9.73-15.67-9.93 1.13-19.97 0.93-29.95 0.61-20.23-2.03-39.16-9.87-58.46-15.72-10.18-3.24-20.8-5.62-31.53-5.27-24.47-0.51-49.55 4.76-70.51 17.78m-78.93-13.6c-11.77 0.64-22.96 4.7-34.52 6.63-25.02 4.85-50.6 5.95-76.03 5.11-3.29-0.23-6.58-0.92-9.88-0.53-2.56 2.22-4.54 5-6.62 7.66-27.44 34.7-55.13 69.2-82.5 103.95 12.67 0.41 25.4 0.53 38-0.99 20.82-2.2 41.4-6.11 62.07-9.36 26.43-4.5 53.03-9.05 79.92-8.79 10.1 0.14 20.27-0.35 30.28 1.2 21.06 2.43 41.74 9.56 59.16 21.77-0.14-5.43 1.04-10.77 1-16.18 0.17-5.03-0.01-10.07 0.67-15.05 0.72-7.31 0-14.69 1.07-21.96 0.48-6 0.11-12.05 0.99-18.01 0.46-6.06 0.17-12.15 0.57-18.22 0.88-7.29 0.74-14.65 0.94-21.98-9.49-6.64-20.21-11.8-31.79-13.34-10.93-2.53-22.2-2.28-33.33-1.91m-45.52 114.97c-33.67 2.04-66.66 9.58-100 14.31-22.98 3.64-46.43 6.39-69.67 3.74 1.4 1.41 2.06 4.36 4.57 3.84 13 0.24 26.07 0.68 39.04-0.48 29.91-2.16 59.5-7.32 89.15-11.67 10.93-1.59 21.84-3.5 32.88-4.09 7.61-1.18 15.34-0.56 22.99-1.37 7.05 0.66 14.17 0.26 21.2 1.28 18.79 1.7 37.64 6.74 53.59 17.09 2.04 1.47 3.28-1.71 4.7-2.74-5.44-3.23-10.77-6.67-16.59-9.18-19.94-9.21-42.21-11.43-63.9-11.65-6.03-0.33-11.95 1.02-17.96 0.92m129.38 20.59c2.08 2.46 4 5.06 6.07 7.55 14.64-10.92 32.09-17.73 49.98-21.04 23.64-4.06 47.88-2.65 71.53 0.57 23.29 3.27 46.31 8.09 69.57 11.53 17.32 2.91 34.93 3.59 52.47 2.64 1.6-0.05 2.18-1.98 3.25-2.93-6.1-0.13-12.19 0.41-18.29 0.26-13.81 0.06-27.56-1.63-41.15-3.99-21.98-3.26-43.73-7.83-65.69-11.18-22.53-3.45-45.42-5.25-68.19-3.53-21.13 1.47-42.01 8.12-59.55 20.12m-193.38 1.59c-22.15 3.21-44.35 6.27-66.69 7.79-10.38 0.02-20.77 0.37-31.15 0.03 0.13 0.43 0.4 1.3 0.54 1.74 3.26 0.44 6.53 1.48 9.86 1.06 38.43 2.5 76.19-6.27 114.04-11.36 24.27-3.38 48.9-5.89 73.4-3.57 18.3 1.55 36.34 6.31 52.88 14.35 0.31-0.82 0.64-1.63 0.97-2.42-16.52-10.89-36.39-15.22-55.85-16.78-12-0.23-24.05-0.57-36.02 0.42-20.79 1.91-41.34 5.69-61.98 8.74m204.01 12.58c0.79 1.22 1.62 2.42 2.5 3.61 13.73-8.18 28.76-14.29 44.43-17.56 26.54-5.85 54.08-4.21 80.75-0.14 36.13 4.61 72.29 14.94 108.95 10.02-0.04-0.2-0.12-0.59-0.16-0.78-6.75 1.35-13.69 1.3-20.51 0.56-38.71-2.16-76.35-12.61-114.87-16.45-12.3-1.64-24.76-1.19-37.14-1.01-22.65 1.62-45.49 8.15-63.95 21.75m-50.74 25.67c-1.34 4.94-3.45 11.03 0.2 15.49 3.91 5.62 11.23 6.51 17.52 7.05 9.19 0.15 19.21 0.73 27.41-4.16 2.2-1.94 5.56-3.94 5.33-7.23 0.51-6.72-2.36-12.97-5.13-18.88-5.33-10.92-12.73-20.7-21.08-29.47-10.19 10.76-19.53 22.98-24.25 37.2m64.5-18.98c-2.58 1.5-5.62 2.51-7.54 4.92 0.42 2 2.5 2.23 4.07 1.37 17.31-7.66 35.76-12.95 54.62-14.83 10.58-1.67 21.35-1.06 32.03-1.2 14.75-0.18 29.37 1.75 44.01 3.21 20.56 1.96 40.72 6.82 61.24 9.07 9.81 1.22 19.92 1.61 29.62-0.64 2.16-0.17 2.47-2.65 3-4.29-28.35 3.37-56.64-2.11-84.54-6.59-24.55-4.11-49.37-8.19-74.34-7.13-21.52 1.03-43.08 5.92-62.17 16.11m-187.54-12.29c-20.67 2.98-41.29 6.24-61.94 9.33-7.01 0.54-13.99 1.4-21 1.85-13.23 1.48-26.56 0.39-39.81 0.59 5.74 2.09 12.03 2.55 18.07 2.82 9.12 0.84 18.24 1.52 27.41 1.32 20.71 0.47 41.3-2.4 61.59-6.34 11.7-2.49 23.44-4.97 35.38-5.95 9.26-1.46 18.69-0.81 28.03-0.88 18.62 0.78 36.87 5.07 54.75 10.11 4.11 1.13 8.11 2.83 12.38 3.33 0.9-2.15 1.95-4.22 2.87-6.34-14.66-7.28-30.82-11.05-47.01-12.91-11.32-0.71-22.66-0.49-33.98-0.38-12.33 0.08-24.53 1.96-36.74 3.45m-9.19 16.52c-23.35 4.94-47.15 8.31-71.07 7.5-12.68 0.4-25.2-1.5-37.79-2.6l0.16 2.44c20.99 3.36 42.39 4.97 63.62 3.07 25.17-0.91 49.81-7.42 75-8.12 12.02-0.12 24.1-0.52 36.07 0.87 11.74 0.92 23.33 3.24 34.9 5.4 6.15 1.16 12.08 3.41 18.31 4.11 0.17-1.78 0.36-3.54 0.55-5.29-18.43-6.02-37.42-10.58-56.73-12.54-21.14-2.16-42.33 0.94-63.02 5.16m260.51-5.73c-22.81 1.35-45.46 6.58-66.24 16.19 0.05 1.35 0.13 2.7 0.25 4.07 8.67-2.28 17.21-5.1 26.03-6.79 22.41-5.08 45.46-6.84 68.39-6.08 7.3 0.87 14.69 0.32 21.98 1.36 22.45 1.23 44.64 4.98 67 7.2 10.33 0.42 20.69 0.48 31.03 0.02 2.4-0.27 4.97-0.46 7.17-1.53 0.06-0.69 0.18-2.06 0.24-2.75-3.84 0.19-7.56 1.29-11.4 1.33-23.45 0.93-46.28-5.52-69.4-8.34-11.17-1.42-22.37-2.6-33.57-3.7-13.77-1.5-27.66-1.27-41.48-0.98m-270.35 20.49c-32.23 5.48-65.3 6.26-97.65 1.26-0.41 2.12-0.87 4.24-1.29 6.39 48.56-0.1 97.13-0.16 145.7-0.29 12.33-0.21 24.69 0.39 36.99-0.58 11.36 0.01 22.72-0.06 34.08-0.05 3.36-0.15 6.37 1.61 9.26 3.11-0.04-1.32-0.07-2.62-0.11-3.9-10.72-1.96-21.16-5.24-31.96-6.77-22.2-3.85-44.89-4.67-67.32-2.66-9.28 0.65-18.47 2.31-27.7 3.49m215.27 5.3c-2.38-0.08-4.52 1.14-6.68 1.94 16.38 0.37 32.78-0.07 49.17 0.08 57.17-0.06 114.34 0.72 171.5 0.09-0.66-1.7-1.29-3.38-1.96-5.05-3.14 0.78-6.33 1.29-9.55 1.32-11.68 0.26-23.38 0.34-35.03-0.32-32.81-4.53-65.77-8.68-98.96-8.09-23.18-0.25-46.27 3.55-68.49 10.03z" fill="#c2c2c2"/>
<g fill="#c2c2c2">
<path d="m1341.4 503.11c13.52-9.67 26.93-19.5 40.63-28.91 6.97 9.99 14.3 19.74 21.03 29.91-2.3 1.85-4.7 3.57-7.04 5.34-5.04-7.17-10.04-14.36-15.24-21.39-3.19 1.43-5.79 3.81-8.63 5.79 3.44 4.26 6.32 8.93 9.64 13.28 1.42 2.11 3.3 4.05 4.02 6.56-2.15 1.92-4.59 3.47-6.9 5.17-4.44-6.52-8.95-12.99-13.63-19.33-3.95 0.83-6.97 4.43-10.23 6.73 0.56 1.79 1.74 3.3 2.81 4.83 4.24 5.93 8.47 11.86 12.64 17.85-2.62 1.24-4.79 4.85-7.78 4.42-7.1-10.08-14.31-20.11-21.32-30.25z"/>
<path d="m194.06 818.61c8.62-5.3 16.94-11.09 25.68-16.21 0.17 2.21 0.35 4.42 0.64 6.63-7.67 6.02-14.28 13.25-21.43 19.86-1.68-3.41-3.43-6.77-4.89-10.28z"/>
<path d="m744.19 1013.6c4.38-0.73 8.8-1.3 13.15-2.22 0.61 2.27 1.25 4.54 2.03 6.77-4.81 0.88-9.65 1.74-14.56 1.56-0.19-2.05-0.4-4.08-0.62-6.11z"/>
<path d="m958.46 1059.2c6.15-0.06 12.05 1.73 18.08 2.68-0.83 2.62-1.65 5.23-2.41 7.88-5.67-0.85-11.24-2.3-16.94-3 0.35-2.54 0.84-5.05 1.27-7.56z"/>
<path d="m748.4 1063.1c5.58-1.64 11.39-2.53 17.2-2.86 0.55 2.68 0.94 5.41 1.21 8.14-5.79 0.11-11.35 1.87-17.06 2.47-0.57-2.55-1.85-5.09-1.35-7.75z"/>
</g>
<path d="m283.54 536.47c2.55-0.43 4.28 2.21 6.34 3.32-1.72 2.5-3.39 5.04-5.01 7.61-2-1.19-3.96-2.42-5.91-3.66 1.37-2.52 2.78-5.03 4.58-7.27z" fill="#c2c2c2"/>
<g fill="#c2c2c2">
<path d="m224.71 650.78c4.66-7.47 13.32-11.16 21.55-13.2 3.4-0.68 7.03-2.1 10.43-0.64-1.06 2.25-1.76 4.65-2.38 7.07-7.08 1.53-15.08 2.42-20.32 8-3.24 3.5-4.73 10.15-0.37 13.35 4.09 1.2 8.28-0.11 12.12-1.53-1.31 2.97-2.13 6.25-4 8.93-5.48 4.52-14.79 3.08-18.19-3.36-3.52-5.8-1.64-12.94 1.16-18.62z"/>
<path d="m802.6 1024.3c11.22-0.47 22.18 2.87 32.14 7.81-1.55 1.95-2.76 4.33-4.84 5.76-4.05-1.49-7.87-3.61-12.07-4.65-5.03-1.57-10.3-1.84-15.47-2.61 0.09-2.11 0.17-4.21 0.24-6.31z"/>
<path d="m752.24 1045.8c5.71-0.93 11.32-2.7 17.17-2.66 0.44 2.33 0.96 4.67 1.3 7.04-5.43 0.35-10.68 1.88-16.06 2.59-0.84-2.32-1.64-4.65-2.41-6.97z"/>
<path d="m1440.2 1045c7.56 1.5 14.67 4.65 22.01 6.94 8.48 2.95 17.08 5.52 25.46 8.76-1.69 4.59-3.33 9.21-4.52 13.96-12.56 0.02-24.91-3.12-37.48-2.41 5.47 4.69 12.09 7.77 18.1 11.72 4.28 2.72 8.63 5.35 13.08 7.81-1.11 5.07-3.11 9.88-4.7 14.81-15.65-5.45-31.39-10.67-47.1-15.95 0.8-3.22 1.92-6.36 3.28-9.38 12.91 4.37 25.82 8.76 38.73 13.13-11.83-7.66-24.19-14.46-35.98-22.19 1.01-3.32 2.15-6.6 3.46-9.8 13.57 1.49 27.11 3.7 40.76 4.26-12.75-4.05-25.35-8.56-38.08-12.67 0.95-3.01 1.95-6.01 2.98-8.99z"/>
<path d="m1008.6 1056.9c0.32-2.21 0.79-4.38 1.12-6.57 6.28 1.03 12.61 1.58 18.93 2.32 1.73 1.55 0.36 4.84 0.86 7.06-5.57 0.33-11.02-0.84-16.52-1.4-1.48-0.37-3.32-0.22-4.39-1.41z"/>
<path d="m716.84 1067.7c7.19-0.28 14.21-2.11 21.39-2.52 0.49 2.5 1.19 4.95 1.69 7.46-7.3 1.54-14.71 2.73-22.16 3.12-0.31-2.7-0.65-5.38-0.92-8.06z"/>
<path d="m1047.2 1080.4c0.56-2.67 1.23-5.32 1.73-8 6.85 1.52 13.83 2.43 20.87 2.29 0 2.69-0.05 5.39-0.05 8.09-7.59-0.01-15.21-0.32-22.55-2.38z"/>
<path d="m702.94 1425.2c4.54-2.16 9.88-2.68 14.65-0.94 8.31 2.95 14.81 9.15 21.36 14.81 1.85 1.11 0.7 4.83-1.62 3.51-5.7-4.13-11.44-8.88-18.6-10.06-3.49-0.65-6.98 0.43-10.44 0.15-2.1-2.25-3.74-4.87-5.35-7.47z"/>
</g>
<path d="m802.01 698.45c1.55-0.7 2.35 1.24 3.43 1.99-6.85 0.38-13.94 0.7-20.52-1.53 5.68 0.57 11.53 1.29 17.09-0.46z" fill="#c2c2c2"/>
<path d="m997.63 714.95c1.58-1.34 3.36-2.44 5.35-3.09-0.33 0.62-0.98 1.87-1.3 2.5 9.16 0.71 18.28-0.65 27.24-2.46-4.4 2.39-9.46 2.89-14.34 3.43-5.65 0.5-11.35 0.48-16.95-0.38z" fill="#c2c2c2"/>
<path d="m193.46 909.87c8.25-6.05 16.43-12.2 24.97-17.82-0.07 2.02 0.67 4.64-1.38 5.99-6.62 6.23-12.78 12.96-19.85 18.69-1.16-2.35-2.42-4.62-3.74-6.86z" fill="#c2c2c2"/>
<path d="m201.16 923.88c5.51-6.93 10.89-14.06 17.21-20.28 0.17 4.81-2.4 9.01-4.34 13.23-2.38 4.67-4.38 9.53-6.89 14.15-1.87-2.47-3.88-4.83-5.98-7.1z" fill="#c2c2c2"/>
<path d="m917.31 1003.4c5.1-0.25 10.2-0.03 15.31 0.19-0.09 2.31-0.17 4.63-0.24 6.96-4.42-0.26-8.84-0.23-13.25-0.34-1.82-1.58-1.26-4.62-1.82-6.81z" fill="#c2c2c2"/>
<path d="m794.34 1004.7c5.14-0.24 10.3-0.1 15.36 0.97-0.32 2.08-0.69 4.16-1.09 6.24-4.44-0.34-8.9-0.32-13.35-0.46-1.59-1.66-0.52-4.61-0.92-6.75z" fill="#c2c2c2"/>
<g fill="#c2c2c2">
<path d="m888.2 1012c6.38-3.14 13.01-6.54 20.26-6.87 0.49 2.02 1.02 4.05 1.43 6.11-5.96 1.53-11.81 3.55-17.2 6.53-1.51-1.92-2.99-3.86-4.49-5.77z"/>
<path d="m718.3 1032.7c6.43 0.17 12.73-1.37 19.15-1.42 0.11 2.33 0.27 4.68 0.36 7.03-6.49 0.23-12.89 1.52-19.4 1.41-0.07-2.35-0.1-4.69-0.11-7.02z"/>
</g>
<g fill="#c2c2c2">
<path d="m766.01 1009.7c6.09-1.41 12.2-2.77 18.4-3.61 0.52 2.17 1.03 4.35 1.43 6.56-6.04 1.2-12.1 2.27-18.03 3.94-0.67-2.29-1.33-4.57-1.8-6.89z"/>
<path d="m955.9 1041.2c5.81 0.41 11.44 2.01 17.11 3.3-0.79 2.39-1.66 4.76-2.57 7.12-5.3-1.42-10.68-2.43-16.07-3.39 0.52-2.35 1.12-4.67 1.53-7.03z"/>
</g>
<path d="m818.57 1007.1c7.16 0.55 13.67 3.99 19.89 7.31-1.5 1.76-2.44 4.24-4.58 5.32-5.54-2.33-10.97-5-16.86-6.36 0.43-2.12 0.97-4.2 1.55-6.27z" fill="#c2c2c2"/>
<g fill="#c2c2c2">
<path d="m992.82 1014.2c5.65-0.04 11.11 1.81 16.78 1.56 0.04 2.34-0.01 4.68 0 7.04-5.83-0.21-11.61-1.12-17.32-2.26 0.18-2.13 0.37-4.23 0.54-6.34z"/>
<path d="m716.58 1015.7c5.86-0.1 11.73-0.37 17.6-0.45 0.12 2.06 0.27 4.12 0.46 6.19-6 0.79-12.03 1.21-18.08 1.07-0.02-2.29 0-4.55 0.02-6.81z"/>
</g>
<g fill="#c2c2c2">
<path d="m692.57 1015.3c4 0.05 7.99 0.17 11.99 0.29-0.01 2.28-0.03 4.57-0.06 6.87-4.11 0.01-8.2-0.23-12.26-0.84 0.14-2.12 0.26-4.22 0.33-6.32z"/>
<path d="m930.39 1058.5c5.89-1.62 12.05-0.91 18.08-0.97-0.13 2.69-0.4 5.38-0.76 8.06-5.34-0.15-10.67 0.09-15.99 0.2-0.21-2.48-0.73-4.91-1.33-7.29z"/>
</g>
<path d="m1020.1 1024.3c0.39-2.41 1.2-4.72 2.18-6.93 4.01 1.09 8.18 1.18 12.32 1.03 0.06 2.3 0.13 4.61 0.16 6.93-4.92 0.13-9.78-0.6-14.66-1.03z" fill="#c2c2c2"/>
<path d="m934.79 1022.2c6.06-0.22 12.01 1.01 17.89 2.32-0.58 2.04-1.13 4.1-1.54 6.19-5.58-0.44-11.14-1.2-16.64-2.21 0.11-2.11 0.19-4.2 0.29-6.3z" fill="#c2c2c2"/>
<path d="m774.1 1025.7c5.8-0.8 11.6-1.63 17.45-2.11 0.04 2.3 0.12 4.63 0.21 6.95-5.41 0.21-10.74 1.23-16.05 2.16-0.58-2.33-1.15-4.66-1.61-7z" fill="#c2c2c2"/>
<path d="m962.29 1026.1c5.71 0.27 11.26 1.74 16.87 2.74 0.36 2.31-0.74 4.57-1.01 6.87-6.04-0.58-11.9-2.18-17.79-3.46 0.66-2.06 1.29-4.11 1.93-6.15z" fill="#c2c2c2"/>
<g fill="#c2c2c2">
<path d="m747.17 1029.7c5.84-0.16 11.41-2.32 17.26-2.47 0.55 2.17 1.09 4.34 1.44 6.56-5.72 1.22-11.49 2.26-17.29 2.98-0.66-2.33-1.2-4.68-1.41-7.07z"/>
<path d="m804.63 1062c7.41 0.44 14.5 3.44 20.48 7.76-1.87 1.93-3.57 4.02-5.46 5.94-5.36-2.42-10.71-4.94-16.5-6.27 0.43-2.5 0.96-4.96 1.48-7.43z"/>
</g>
<path d="m989.46 1030.3c6.4 0.58 12.79 1.35 19.15 2.3-0.15 2.04-0.26 4.09-0.36 6.14-6.74 0.36-13.39-0.73-20.06-1.4 0.33-2.36 0.75-4.72 1.27-7.04z" fill="#c2c2c2"/>
<path d="m677.61 1040.3c0.28-2.5-0.46-5.66 1.54-7.54 9.14 1.11 18.37 0.7 27.56 0.63 0.01 2.38 0.03 4.76 0.05 7.16-9.72 0.12-19.44-0.02-29.15-0.25z" fill="#c2c2c2"/>
<g fill="#c2c2c2">
<path d="m1020.6 1034.1c8.47 0.63 16.89 2.22 25.42 1.71 0.5 2.5 0.61 5.06 0.63 7.63-8.47 0-16.79-1.88-25.23-2.27-3.47-0.69-0.81-4.81-0.82-7.07z"/>
<path d="m1015.1 1076.4c0.45-2.68 1.05-5.32 1.6-7.97 6.94 1.04 13.9 2.36 20.96 2.18-0.03 2.69-0.05 5.38-0.03 8.1-7.57 0.01-15.08-1.13-22.53-2.31z"/>
</g>
<path d="m924.07 1040.5c7.15-1.14 14.56-1.49 21.71-0.15-0.4 2.35-0.77 4.72-1.18 7.08-6.32-0.35-12.65-0.34-18.96 0.09-0.5-2.36-1.07-4.68-1.57-7.02z" fill="#c2c2c2"/>
<path d="m779.69 1041.7c7.09-0.11 14.27-0.58 21.29 0.84-0.31 2.4-0.75 4.78-1.35 7.13-6.17-0.5-12.34-0.32-18.51-0.37-1.86-1.98-1.48-5.09-1.43-7.6z" fill="#c2c2c2"/>
<path d="m895.83 1048.8c5.36-2.69 11.01-4.74 16.71-6.56 1.15 2.27 2.19 4.62 3.2 6.98-5.31 1.32-10.16 4.09-15.38 5.48-1.89-1.67-3.17-3.83-4.53-5.9z" fill="#c2c2c2"/>
<g fill="#c2c2c2">
<path d="m981.4 1046.2c5.85 0.35 11.46 2.42 17.34 2.59-0.19 2.33-0.42 4.68-0.54 7.03-6.42 0.12-12.6-1.75-18.88-2.72 0.66-2.31 1.35-4.62 2.08-6.9z"/>
<path d="m1041.8 1052.4c2.99 0.67 5.96 1.67 9.05 1.86 3.17-0.32 6.23-1.3 9.35-1.98 1.14 2.3 2.26 4.63 3.43 6.94-7.98 2.5-16.72 3.34-24.63 0.09 0.88-2.33 1.85-4.62 2.8-6.91z"/>
</g>
<g fill="#c2c2c2">
<path d="m663.42 1052.3c7.04 0.24 14.09 0.41 21.14 0.36 0.06 2.57 0.07 5.16 0.02 7.75-7.18 0.34-14.29-0.78-21.45-0.87 0.09-2.42 0.22-4.84 0.29-7.24z"/>
<path d="m685.49 1070.6c7.39 0.25 14.63-1.48 22.01-1.39 0.33 2.63 0.83 5.24 1.13 7.89-7.63 0.32-15.19 1.7-22.85 1.48-0.14-2.67-0.26-5.33-0.29-7.98z"/>
</g>
<path d="m695.45 1052.6c6.72 0.24 13.32-1.28 20.04-1.33-0.1 2.38 0.35 4.72 0.91 7.03-6.64 1.02-13.34 1.21-19.97 2.23-0.9-2.56-0.95-5.27-0.98-7.93z" fill="#c2c2c2"/>
<g fill="#c2c2c2">
<path d="m898.74 1067.6c6.14-4.21 13.32-7.49 20.9-7.45 0.53 2.62 0.9 5.26 1.05 7.94-5.74 0.15-10.82 2.92-15.82 5.39-2.46-1.39-4.04-4-6.13-5.88z"/>
<path d="m1141.8 1451.4c3.9-0.2 8.03-0.07 11.36 2.28 6.05 4.05 10.03 10.36 13.58 16.56 1.7 3.14 3.96 6.24 3.96 9.98-1.01 0.1-2.01 0.22-3 0.35-3.63-7-8.3-14.04-15.53-17.7-2.4-1.36-5.22-1.31-7.79-2.06-1.39-2.97-1.9-6.25-2.58-9.41z"/>
</g>
<path d="m585.2 1133.5c10.38 0.34 20.77-0.01 31.15-0.03-6.96 0.57-13.92 1.32-20.75 2.83-3.33 0.42-6.6-0.62-9.86-1.06-0.14-0.44-0.41-1.31-0.54-1.74z" fill="#c2c2c2"/>
<path d="m630.33 1143.9c7.01-0.45 13.99-1.31 21-1.85-14.06 3.26-28.72 1.81-42.74 5.26-6.04-0.27-12.33-0.73-18.07-2.82 13.25-0.2 26.58 0.89 39.81-0.59z" fill="#c2c2c2"/>
<path d="m902.83 1171.2c2.16-0.8 4.3-2.02 6.68-1.94 9.8 1.02 19.66 0.56 29.49 0.65 13 0.02 26 0.04 39-0.02 9.34-0.09 18.66 0.67 28 0.65 10.66 0.01 21.33-0.03 31.99 0.37 28.5 0.67 57.01 0.04 85.51 0.46-57.16 0.63-114.33-0.15-171.5-0.09-16.39-0.15-32.79 0.29-49.17-0.08z" fill="#c2c2c2"/>
</svg>
