<svg width="281" height="54" viewBox="0 0 281 54" fill="none" xmlns="http://www.w3.org/2000/svg">
<g clip-path="url(#clip0_444_1817)">
<path d="M171.676 10.5291V45.3332H181.565V10.5291H171.676ZM93.8848 10.468V45.3027H103.862V18.257L111.641 18.2875C114.196 18.2875 115.975 18.9057 117.193 20.2033C118.768 21.8557 119.39 24.5385 119.39 29.4042V45.3027H129.071V26.0726C129.071 12.3265 120.254 10.4718 111.641 10.4718H93.8848V10.468ZM187.619 10.5291V45.3332H203.651C212.203 45.3332 214.992 43.9174 217.992 40.7614C220.128 38.5479 221.496 33.6517 221.496 28.3166C221.496 23.4203 220.339 19.0546 218.288 16.3412C214.665 11.4755 209.379 10.5291 201.484 10.5291H187.619ZM197.42 18.0776H201.665C207.842 18.0776 211.818 20.8215 211.818 27.9579C211.818 35.0942 207.838 37.8687 201.665 37.8687H197.42V18.0776ZM157.423 10.5291L149.167 38.1053L141.269 10.5291H130.581L141.864 45.3332H156.117L167.519 10.5291H157.423ZM226.129 45.3332H236.018V10.5291H226.129V45.3332ZM253.862 10.5291L240.055 45.3027H249.794L251.991 39.1395H268.323L270.401 45.276H281L267.074 10.5329H253.862V10.5291ZM260.274 16.8679L266.271 33.148H254.097L260.274 16.8679Z" fill="white" fill-opacity="0.7"/>
<path d="M30.077 16.3107V11.5328C30.5533 11.5022 31.0259 11.4755 31.5022 11.4755C44.6871 11.0634 53.3271 22.7411 53.3271 22.7411C53.3271 22.7411 44.0033 35.6018 33.9994 35.6018C32.6624 35.6018 31.3563 35.3957 30.1115 34.9836V20.4742C35.2479 21.0925 36.289 23.3364 39.3471 28.4387L46.2046 22.7182C46.2046 22.7182 41.1873 16.2 32.7546 16.2C31.8634 16.1695 30.9721 16.2306 30.0808 16.3183M30.077 0.5V7.63638L31.5022 7.5486C49.8235 6.93037 61.7867 22.4739 61.7867 22.4739C61.7867 22.4739 48.0678 39.0479 33.7881 39.0479C32.5395 39.0479 31.3255 38.9296 30.1077 38.7235V43.1465C31.1181 43.2648 32.1553 43.3526 33.1657 43.3526C46.4658 43.3526 56.0855 36.5979 65.4094 28.6334C66.9538 29.8736 73.2773 32.8503 74.5835 34.1478C65.736 41.5208 45.0981 47.4512 33.4001 47.4512C32.2706 47.4512 31.2026 47.394 30.1346 47.2757V53.5H80.6688V0.5H30.077ZM30.077 34.9798V38.754C17.7834 36.5711 14.3719 23.8592 14.3719 23.8592C14.3719 23.8592 20.2805 17.3716 30.077 16.3069V20.4361H30.0462C24.9098 19.8178 20.8722 24.5958 20.8722 24.5958C20.8722 24.5958 23.158 32.648 30.077 34.9759M8.25589 23.3288C8.25589 23.3288 15.5321 12.6509 30.1077 11.5328V7.64019C13.9532 8.9339 0 22.5045 0 22.5045C0 22.5045 7.89861 45.2149 30.077 47.2795V43.1503C13.8072 41.143 8.25205 23.3288 8.25205 23.3288H8.25589Z" fill="white" fill-opacity="0.7"/>
</g>
<defs>
<clipPath id="clip0_444_1817">
<rect width="281" height="53" fill="white" transform="translate(0 0.5)"/>
</clipPath>
</defs>
</svg>
