<svg width="60" height="60" viewBox="0 0 60 60" fill="none" xmlns="http://www.w3.org/2000/svg">
<g clip-path="url(#clip0_159_7821)">
<path d="M33.47 43.77C32.32 44.13 31.1 44.33 29.83 44.33C23.16 44.33 17.75 38.92 17.75 32.25V27.42" stroke="white" stroke-width="5" stroke-linecap="round" stroke-linejoin="round"/>
<path d="M20.1699 20.17C22.3699 17.24 25.8799 15.34 29.8399 15.34C36.5099 15.34 41.9199 20.75 41.9199 27.42V32.25C41.9199 34.97 41.0199 37.48 39.4999 39.5" stroke="white" stroke-width="5" stroke-linecap="round" stroke-linejoin="round"/>
<path d="M45.5399 38.29L41.1899 36.39" stroke="white" stroke-width="5" stroke-linecap="round" stroke-linejoin="round"/>
<path d="M45.5399 21.37L41.1899 25.69H25.6899" stroke="white" stroke-width="5" stroke-linecap="round" stroke-linejoin="round"/>
<path d="M14.1201 38.29L18.4801 36.39" stroke="white" stroke-width="5" stroke-linecap="round" stroke-linejoin="round"/>
<path d="M41.9099 29.83H46.7499" stroke="white" stroke-width="5" stroke-linecap="round" stroke-linejoin="round"/>
<path d="M12.9199 29.83H17.7499" stroke="white" stroke-width="5" stroke-linecap="round" stroke-linejoin="round"/>
<path d="M47.7399 47.74L11.9199 11.92" stroke="white" stroke-width="5" stroke-linecap="round" stroke-linejoin="round"/>
<path d="M29.83 55.16C43.8194 55.16 55.16 43.8194 55.16 29.83C55.16 15.8406 43.8194 4.5 29.83 4.5C15.8406 4.5 4.5 15.8406 4.5 29.83C4.5 43.8194 15.8406 55.16 29.83 55.16Z" stroke="white" stroke-width="5" stroke-miterlimit="10"/>
</g>
<defs>
<clipPath id="clip0_159_7821">
<rect width="55.66" height="55.66" fill="white" transform="translate(2 2)"/>
</clipPath>
</defs>
</svg>
