<svg width="60" height="61" viewBox="0 0 60 61" fill="none" xmlns="http://www.w3.org/2000/svg">
<g clip-path="url(#clip0_159_7372)">
<path d="M56.3702 18.29C56.1402 11.1 46.6303 5.5 34.5103 5.5C22.3903 5.5 12.8802 11.1 12.6502 18.29C12.6452 18.3799 12.6452 18.47 12.6502 18.56C12.6502 21.79 14.5102 24.71 17.6502 26.96C21.6502 29.83 27.6503 31.63 34.5203 31.63C41.3903 31.63 47.4102 29.83 51.3902 26.97C54.5302 24.71 56.3902 21.79 56.3902 18.56C56.3885 18.4697 56.3819 18.3796 56.3702 18.29ZM34.5103 26.63C24.5703 26.63 17.6402 22.38 17.6402 18.56C17.6402 14.74 24.5703 10.5 34.5103 10.5C44.4503 10.5 51.3802 14.75 51.3802 18.56C51.3802 22.37 44.4603 26.63 34.5103 26.63Z" fill="white"/>
<path d="M17.6402 18.56V28.75C16.0237 28.383 14.3491 28.3524 12.7203 28.66H12.6702V18.56C12.6653 18.4701 12.6653 18.38 12.6702 18.29C12.706 17.627 13.0037 17.0053 13.4979 16.5618C13.992 16.1182 14.6422 15.8892 15.3053 15.925C15.9683 15.9608 16.59 16.2586 17.0335 16.7527C17.477 17.2469 17.706 17.8969 17.6702 18.56H17.6402Z" fill="white"/>
<path d="M56.3801 18.56V29.15C56.3801 32.38 54.5201 35.3 51.3801 37.56C47.3801 40.42 41.3803 42.22 34.5103 42.22C33.2445 42.2234 31.9793 42.1599 30.7202 42.03C30.4936 40.8468 29.9843 39.7359 29.2356 38.7922C28.4869 37.8484 27.5208 37.0998 26.4202 36.61C26.369 36.4469 26.309 36.2866 26.2402 36.13C28.9337 36.8716 31.7166 37.2384 34.5103 37.22C44.4603 37.22 51.3801 32.97 51.3801 29.15V18.56C51.3443 17.8969 51.5736 17.2469 52.0171 16.7527C52.4606 16.2586 53.0821 15.9608 53.7451 15.925C54.4082 15.8892 55.0583 16.1183 55.5525 16.5618C56.0466 17.0053 56.3443 17.627 56.3801 18.29C56.3851 18.38 56.3851 18.4701 56.3801 18.56Z" fill="white"/>
<path d="M14.9299 28.44C14.1783 28.4381 13.4282 28.5085 12.6899 28.65C12.8044 28.0751 13.1172 27.5587 13.5737 27.191C14.0303 26.8234 14.6014 26.6278 15.1875 26.6385C15.7736 26.6492 16.3372 26.8656 16.78 27.2497C17.2228 27.6338 17.5165 28.1613 17.6099 28.74C16.7309 28.5383 15.8318 28.4376 14.9299 28.44Z" fill="white"/>
<path d="M56.3799 29.15V39.72C56.3799 47.04 46.78 52.78 34.51 52.78C33.2911 52.7817 32.0727 52.7216 30.8599 52.6V47.6C32.0719 47.7345 33.2906 47.8013 34.51 47.8C44.46 47.8 51.3799 43.5501 51.3799 39.7401V29.15C51.3799 28.487 51.6435 27.8511 52.1123 27.3823C52.5811 26.9134 53.2168 26.65 53.8799 26.65C54.5429 26.65 55.1789 26.9134 55.6477 27.3823C56.1165 27.8511 56.3799 28.487 56.3799 29.15Z" fill="white"/>
<path d="M23.3599 55.2899H6.5C5.83696 55.2899 5.20102 55.0265 4.73218 54.5577C4.26334 54.0888 4 53.453 4 52.7899V43.4299C4 42.7669 4.26334 42.131 4.73218 41.6621C5.20102 41.1933 5.83696 40.9299 6.5 40.9299H23.3599C24.0229 40.9299 24.6588 41.1933 25.1277 41.6621C25.5965 42.131 25.8599 42.7669 25.8599 43.4299V52.7899C25.8599 53.453 25.5965 54.0888 25.1277 54.5577C24.6588 55.0265 24.0229 55.2899 23.3599 55.2899ZM9 50.2899H20.8599V45.9299H9V50.2899Z" fill="white"/>
<path d="M19.6101 45.9299C18.9471 45.9299 18.3114 45.6665 17.8425 45.1977C17.3737 44.7289 17.1101 44.093 17.1101 43.4299V40.6199C17.0726 40.0659 16.8263 39.5469 16.4207 39.1678C16.015 38.7887 15.4805 38.5778 14.9253 38.5778C14.3701 38.5778 13.8356 38.7887 13.4299 39.1678C13.0243 39.5469 12.7777 40.0659 12.7402 40.6199V43.4299C12.7402 44.093 12.4769 44.7289 12.0081 45.1977C11.5392 45.6665 10.9033 45.9299 10.2402 45.9299C9.57719 45.9299 8.94125 45.6665 8.47241 45.1977C8.00357 44.7289 7.74023 44.093 7.74023 43.4299V40.6199C7.80961 38.7607 8.5969 37.0008 9.93677 35.71C11.2766 34.4192 13.0648 33.698 14.9253 33.698C16.7858 33.698 18.5737 34.4192 19.9136 35.71C21.2534 37.0008 22.0407 38.7607 22.1101 40.6199V43.4299C22.1101 44.093 21.8468 44.7289 21.3779 45.1977C20.9091 45.6665 20.2731 45.9299 19.6101 45.9299Z" fill="white"/>
</g>
<defs>
<clipPath id="clip0_159_7372">
<rect width="52.38" height="49.79" fill="white" transform="translate(4 5.5)"/>
</clipPath>
</defs>
</svg>
