<svg width="94" height="107" viewBox="0 0 94 107" fill="none" xmlns="http://www.w3.org/2000/svg">
<path d="M40.2896 89.7908V79.0808C40.2837 75.7571 39.6046 72.469 38.2932 69.4149C36.9819 66.3608 35.0655 63.604 32.6596 61.3108L25.7196 54.7308C25.0194 54.0594 24.1908 53.5361 23.2835 53.1925C22.3763 52.8488 21.409 52.6918 20.4396 52.7308C20.1444 52.7438 19.8503 52.7772 19.5596 52.8308L19.0096 34.1008C18.9346 32.1461 18.1278 30.2909 16.7492 28.903C15.3706 27.5151 13.5208 26.696 11.5666 26.6079C9.61238 26.5198 7.6964 27.1692 6.19852 28.4274C4.70064 29.6856 3.73021 31.4607 3.47962 33.4008L0.109624 61.1108C-0.156767 63.2933 0.0638021 65.5076 0.755437 67.5946C1.44707 69.6816 2.59258 71.5894 4.10962 73.1808L11.9796 81.5008C13.7282 83.3487 14.7017 85.7967 14.6996 88.3408V89.7808C13.5147 89.8069 12.3869 90.2954 11.5573 91.1418C10.7277 91.9883 10.2619 93.1256 10.2596 94.3108V102.231C10.2596 102.828 10.3773 103.42 10.606 103.972C10.8347 104.524 11.1698 105.026 11.5923 105.448C12.0148 105.871 12.5164 106.206 13.0684 106.434C13.6205 106.663 14.2121 106.781 14.8096 106.781H40.1296C41.3346 106.778 42.4894 106.298 43.3405 105.445C44.1916 104.592 44.6696 103.436 44.6696 102.231V94.3108C44.6627 93.1382 44.2033 92.0135 43.3872 91.1713C42.5712 90.3292 41.4615 89.8346 40.2896 89.7908ZM7.71964 69.7908C6.71949 68.7328 5.96447 67.4676 5.50821 66.085C5.05196 64.7024 4.90564 63.2363 5.07963 61.7908L8.43964 34.0808C8.53573 33.3901 8.88615 32.76 9.42231 32.314C9.95847 31.868 10.6418 31.6381 11.3385 31.6694C12.0352 31.7007 12.6951 31.9908 13.1892 32.4831C13.6832 32.9753 13.9758 33.6342 14.0096 34.3308L14.6596 56.1308C13.7858 57.4725 13.3842 59.0672 13.5182 60.6628C13.6522 62.2583 14.3142 63.7637 15.3996 64.9408L22.9796 73.1908C23.2016 73.4331 23.4691 73.6293 23.7668 73.7682C24.0646 73.9072 24.3868 73.986 24.715 74.0004C25.0433 74.0148 25.3712 73.9644 25.6799 73.8521C25.9887 73.7398 26.2723 73.5677 26.5146 73.3458C26.7569 73.1239 26.9531 72.8564 27.092 72.5586C27.231 72.2609 27.3099 71.9387 27.3243 71.6104C27.3386 71.2822 27.2883 70.9543 27.1759 70.6455C27.0636 70.3367 26.8916 70.0531 26.6696 69.8108L19.0896 61.5608C18.7165 61.1503 18.5097 60.6155 18.5097 60.0608C18.5097 59.5061 18.7165 58.9713 19.0896 58.5608C19.2871 58.337 19.5282 58.1559 19.7982 58.0286C20.0682 57.9014 20.3613 57.8307 20.6596 57.8208C20.9599 57.8072 21.2599 57.8543 21.5417 57.9591C21.8234 58.0639 22.0812 58.2243 22.2996 58.4308L29.2296 65.0208C31.1457 66.8448 32.6723 69.0381 33.7173 71.4683C34.7623 73.8986 35.304 76.5154 35.3096 79.1608V89.8608H19.6796V88.4308C19.6888 84.6087 18.2238 80.9302 15.5896 78.1608L7.71964 69.7908ZM39.6496 101.791H15.2396V94.7908H39.6496V101.791Z" fill="white"/>
<path d="M81.4896 81.5108L89.3596 73.1908C90.8754 71.5986 92.0202 69.6907 92.7118 67.6039C93.4033 65.5171 93.6245 63.3032 93.3596 61.1208L89.9996 33.4108C89.749 31.4707 88.7786 29.6956 87.2807 28.4374C85.7828 27.1792 83.8668 26.5298 81.9126 26.6179C79.9584 26.706 78.1086 27.5252 76.73 28.913C75.3514 30.3009 74.5446 32.1561 74.4696 34.1108L73.9096 52.8408C73.6224 52.7866 73.3316 52.7532 73.0396 52.7408C72.0702 52.7018 71.1029 52.8588 70.1956 53.2025C69.2884 53.5461 68.4598 54.0693 67.7596 54.7408L60.8196 61.3208C58.4131 63.612 56.4956 66.3668 55.1825 69.4191C53.8695 72.4715 53.1881 75.7581 53.1796 79.0808V89.7908C52.0078 89.8372 50.8991 90.3343 50.0849 91.1783C49.2707 92.0223 48.8138 93.1481 48.8096 94.3208V102.241C48.8096 103.448 49.289 104.605 50.1422 105.458C50.9955 106.311 52.1528 106.791 53.3596 106.791H78.6796C79.8863 106.791 81.0436 106.311 81.8969 105.458C82.7502 104.605 83.2296 103.448 83.2296 102.241V94.3208C83.2272 93.1356 82.7615 91.9983 81.9319 91.1518C81.1023 90.3054 79.9745 89.8169 78.7896 89.7908V88.3508C78.777 85.8085 79.7439 83.359 81.4896 81.5108ZM64.2396 64.9408L71.1696 58.3508C71.5918 57.9561 72.1502 57.7399 72.7281 57.7474C73.306 57.7548 73.8587 57.9854 74.2706 58.3908C74.6825 58.7963 74.9217 59.3452 74.9383 59.9229C74.9549 60.5006 74.7475 61.0624 74.3596 61.4908L66.7796 69.7408C66.3594 70.2331 66.1465 70.8693 66.1858 71.5154C66.2251 72.1614 66.5134 72.7671 66.9901 73.2049C67.4668 73.6428 68.0947 73.8787 68.7418 73.863C69.3889 73.8473 70.0046 73.5812 70.4596 73.1208L78.0396 64.8708C79.1265 63.6948 79.7904 62.1901 79.9262 60.5945C80.062 58.9989 79.6621 57.4036 78.7896 56.0608L79.4296 34.2608C79.4634 33.5642 79.756 32.9053 80.25 32.4131C80.744 31.9208 81.404 31.6307 82.1007 31.5994C82.7975 31.5681 83.4807 31.798 84.0169 32.244C84.5531 32.69 84.9035 33.3201 84.9996 34.0108L88.3696 61.7208C88.5415 63.167 88.3933 64.6334 87.9353 66.0159C87.4774 67.3984 86.7209 68.6633 85.7196 69.7208L77.8596 78.0408C75.2254 80.8102 73.7604 84.4887 73.7696 88.3108V89.7408H58.1796V79.0408C58.188 76.4036 58.7292 73.7953 59.7705 71.3723C60.8119 68.9494 62.332 66.7618 64.2396 64.9408ZM78.2396 101.791H53.7896V94.7908H78.1796L78.2396 101.791Z" fill="white"/>
<path d="M74.6596 14.9408C74.6659 12.9791 74.2828 11.0356 73.5327 9.22293C72.7826 7.41027 71.6803 5.76446 70.2896 4.3808C68.9029 2.99205 67.2561 1.89031 65.4432 1.13861C63.6304 0.38691 61.6872 0 59.7246 0C57.7621 0 55.8189 0.38691 54.006 1.13861C52.1932 1.89031 50.5463 2.99205 49.1596 4.3808L46.3596 7.18079L43.5496 4.3808C40.7476 1.57879 36.9473 0.00463859 32.9846 0.00463867C29.022 0.00463875 25.2216 1.57879 22.4196 4.3808C19.6176 7.18281 18.0435 10.9832 18.0435 14.9458C18.0435 18.9084 19.6176 22.7088 22.4196 25.5108L46.3596 49.4408L70.2896 25.5108C71.681 24.1256 72.7837 22.4781 73.5339 20.6637C74.284 18.8493 74.6667 16.9041 74.6596 14.9408ZM66.7496 21.9408L46.3596 42.3408L25.9596 21.9408C24.0952 20.0763 23.0477 17.5476 23.0477 14.9108C23.0477 12.274 24.0952 9.74527 25.9596 7.8808C27.8241 6.01633 30.3529 4.96887 32.9896 4.96887C35.6264 4.96887 38.1552 6.01633 40.0196 7.8808L46.3596 14.2208L52.6896 7.8808C54.5552 6.0183 57.0835 4.97223 59.7196 4.97223C62.3557 4.97223 64.8841 6.0183 66.7496 7.8808C68.6121 9.74632 69.6582 12.2747 69.6582 14.9108C69.6582 17.5469 68.6121 20.0753 66.7496 21.9408Z" fill="white"/>
</svg>
