<svg width="154" height="218" viewBox="0 0 154 218" fill="none" xmlns="http://www.w3.org/2000/svg">
<path d="M148.932 48.0472H129.753" stroke="white" stroke-width="5" stroke-linecap="round" stroke-linejoin="round"/>
<path d="M24.2474 48.0472H5.06836" stroke="white" stroke-width="5" stroke-linecap="round" stroke-linejoin="round"/>
<path d="M62.6057 83.8756C62.6028 84.6794 62.5485 85.4821 62.4434 86.279C61.8386 90.5893 59.5788 94.4978 56.1395 97.1815C52.7001 99.8653 48.3494 101.115 44.0036 100.667C39.6579 100.22 35.656 98.1103 32.8404 94.7825C30.0248 91.4547 28.6151 87.1684 28.9081 82.826C29.2012 78.4836 31.174 74.4238 34.4114 71.5014C37.6489 68.579 41.8984 67.0219 46.2651 67.1579C50.6319 67.2939 54.7752 69.1124 57.8231 72.2306C60.8709 75.3488 62.5856 79.5235 62.6057 83.8756Z" fill="white" fill-opacity="0.13" stroke="white" stroke-width="5" stroke-linecap="round" stroke-linejoin="round"/>
<path d="M124.947 83.8757C124.947 84.1584 124.947 84.4614 124.947 84.7441C124.724 88.8847 122.964 92.7948 120.01 95.7158C117.055 98.6367 113.117 100.36 108.959 100.551C104.801 100.743 100.72 99.3882 97.508 96.7509C94.2959 94.1136 92.182 90.3815 91.5765 86.279C91.4714 85.4822 91.4173 84.6794 91.4144 83.8757C91.3361 81.6321 91.7121 79.3958 92.5199 77.3C93.3278 75.2042 94.551 73.292 96.1166 71.6772C97.6822 70.0624 99.5581 68.7782 101.633 67.9011C103.707 67.024 105.938 66.572 108.191 66.572C110.445 66.572 112.675 67.024 114.75 67.9011C116.824 68.7782 118.7 70.0624 120.266 71.6772C121.831 73.292 123.054 75.2042 123.862 77.3C124.67 79.3958 125.046 81.6321 124.968 83.8757H124.947Z" fill="white" fill-opacity="0.13" stroke="white" stroke-width="5" stroke-linecap="round" stroke-linejoin="round"/>
<path d="M129.753 48.1482H24.3291L54.233 7.1091C54.9864 6.08685 56.1161 5.40424 57.3743 5.21112C58.6325 5.018 59.9162 5.33014 60.9435 6.07906C61.2813 6.33125 61.5877 6.62279 61.856 6.94749L69.6005 15.8946C70.3885 16.8734 71.3623 17.6879 72.4663 18.2917C73.5704 18.8955 74.7831 19.2768 76.035 19.4137C77.287 19.5506 78.5536 19.4405 79.7629 19.0896C80.9721 18.7388 82.1002 18.1541 83.0826 17.3689C83.6257 16.9296 84.1216 16.4356 84.5626 15.8946L92.3071 6.94749C93.1063 5.96154 94.264 5.32986 95.5283 5.18992C96.7926 5.04997 98.0614 5.41309 99.0584 6.20023C99.3798 6.47225 99.6719 6.77686 99.93 7.1091L129.753 48.1482Z" fill="white" fill-opacity="0.13" stroke="white" stroke-width="5" stroke-linecap="round" stroke-linejoin="round"/>
<path d="M124.928 84.7442V106.718C124.922 113.853 122.076 120.694 117.013 125.741C111.951 130.788 105.085 133.629 97.9229 133.64H56.0574C52.5094 133.64 48.9962 132.943 45.7185 131.59C42.4408 130.237 39.463 128.253 36.9551 125.753C34.4472 123.253 32.4586 120.285 31.1026 117.019C29.7467 113.753 29.0501 110.252 29.0527 106.718V83.8757C29.0666 88.0927 30.6793 92.1488 33.5678 95.2315C36.4564 98.3143 40.4074 100.196 44.6296 100.5C48.8518 100.804 53.0334 99.5075 56.3368 96.8704C59.6402 94.2333 61.8214 90.4503 62.4437 86.2791H91.5569C92.1623 90.3816 94.2763 94.1136 97.4883 96.7509C100.7 99.3883 104.781 100.743 108.939 100.551C113.097 100.36 117.036 98.6368 119.99 95.7159C122.945 92.7949 124.704 88.8847 124.928 84.7442Z" stroke="white" stroke-width="5" stroke-linecap="round" stroke-linejoin="round"/>
<path d="M124.928 84.7441V83.8756" stroke="white" stroke-width="5" stroke-linecap="round" stroke-linejoin="round"/>
<path d="M97.9231 133.539L76.9802 212.951L56.0576 133.539H97.9231Z" stroke="white" stroke-width="5" stroke-linecap="round" stroke-linejoin="round"/>
<path d="M76.98 212.951L28.0998 154.987L19.1387 144.364L37.5272 126.187C42.5323 130.907 49.1655 133.531 56.0572 133.518L76.98 212.951Z" fill="white" fill-opacity="0.13" stroke="white" stroke-width="5" stroke-linecap="round" stroke-linejoin="round"/>
<path d="M134.841 144.364L125.88 154.967L76.9795 212.951L97.9223 133.539C104.809 133.557 111.438 130.931 116.432 126.207L134.841 144.364Z" fill="white" fill-opacity="0.13" stroke="white" stroke-width="5" stroke-linecap="round" stroke-linejoin="round"/>
<path d="M76.9797 212.951H4.98733V202.227C4.97841 193.128 7.04741 184.147 11.0376 175.963C15.0277 167.778 20.8344 160.606 28.0184 154.987L76.9797 212.951Z" stroke="white" stroke-width="5" stroke-linecap="round" stroke-linejoin="round"/>
<path d="M148.931 202.227V212.951H76.9795L125.88 154.967C133.073 160.583 138.887 167.758 142.881 175.947C146.875 184.135 148.944 193.123 148.931 202.227Z" stroke="white" stroke-width="5" stroke-linecap="round" stroke-linejoin="round"/>
</svg>
