<svg width="368" height="152" viewBox="0 0 368 152" fill="none" xmlns="http://www.w3.org/2000/svg">
<g clip-path="url(#clip0_159_6134)">
<path d="M142.967 117.089V101.399H147.966C152.819 101.399 155.868 104.951 155.868 109.266C155.868 113.582 152.819 117.1 147.966 117.1L142.967 117.089ZM154.461 109.255C154.461 105.586 152.118 102.624 147.966 102.624H144.306V115.864H147.966C152.085 115.864 154.461 112.925 154.461 109.255Z" fill="white"/>
<path d="M158.496 111.396C158.496 108.103 160.816 105.445 163.96 105.445C167.407 105.445 169.307 108.199 169.307 111.469V111.795H159.83C159.948 114.268 161.59 116.291 164.263 116.291C164.957 116.302 165.646 116.167 166.285 115.895C166.924 115.623 167.499 115.22 167.973 114.712L168.606 115.515C168.038 116.117 167.35 116.592 166.586 116.908C165.821 117.224 164.999 117.373 164.173 117.347C160.867 117.37 158.496 114.903 158.496 111.396ZM163.938 106.507C161.265 106.507 159.925 108.856 159.83 110.834H168.062C168.04 108.901 166.774 106.507 163.938 106.507Z" fill="white"/>
<path d="M172.686 114.903V106.811H170.809V105.726H172.686V102.613H173.941V105.715H176.245V106.8H173.941V114.7C173.941 115.622 174.317 116.257 175.118 116.257C175.356 116.253 175.591 116.201 175.808 116.104C176.026 116.008 176.222 115.869 176.385 115.695L176.856 116.639C176.6 116.883 176.297 117.071 175.965 117.192C175.633 117.313 175.28 117.364 174.928 117.342C173.409 117.37 172.686 116.454 172.686 114.903Z" fill="white"/>
<path d="M178.24 111.396C178.24 108.103 180.566 105.445 183.71 105.445C187.157 105.445 189.056 108.199 189.056 111.469V111.795H179.58C179.697 114.268 181.339 116.291 184.013 116.291C184.706 116.302 185.394 116.167 186.032 115.895C186.67 115.623 187.244 115.22 187.717 114.712L188.35 115.515C187.782 116.117 187.094 116.592 186.33 116.908C185.566 117.224 184.743 117.373 183.917 117.347C180.611 117.37 178.24 114.903 178.24 111.396ZM183.682 106.507C181.009 106.507 179.675 108.856 179.58 110.834H187.812C187.79 108.901 186.523 106.507 183.682 106.507Z" fill="white"/>
<path d="M191.539 111.396C191.539 108.081 193.725 105.445 197.054 105.445C197.829 105.408 198.602 105.565 199.302 105.902C200.003 106.238 200.609 106.743 201.066 107.373L200.22 108.126C199.879 107.622 199.415 107.213 198.873 106.938C198.331 106.662 197.728 106.53 197.121 106.552C194.47 106.552 192.856 108.671 192.856 111.396C192.856 114.121 194.47 116.268 197.121 116.268C197.73 116.285 198.334 116.147 198.876 115.867C199.418 115.587 199.88 115.174 200.22 114.667L201.066 115.42C200.614 116.055 200.009 116.567 199.308 116.908C198.607 117.249 197.832 117.407 197.054 117.369C193.725 117.369 191.539 114.711 191.539 111.396Z" fill="white"/>
<path d="M204.02 114.903V106.811H202.143V105.726H204.02V102.613H205.259V105.715H207.567V106.8H205.264V114.7C205.264 115.622 205.64 116.257 206.441 116.257C206.679 116.253 206.913 116.201 207.131 116.104C207.348 116.008 207.545 115.869 207.708 115.695L208.178 116.639C207.923 116.883 207.619 117.071 207.288 117.192C206.956 117.313 206.603 117.364 206.25 117.342C204.765 117.37 204.02 116.454 204.02 114.903Z" fill="white"/>
<path d="M226.7 117.089C226.14 116.617 225.433 115.937 224.705 115.206C224.145 115.884 223.443 116.43 222.649 116.804C221.854 117.178 220.987 117.371 220.109 117.37C217.526 117.37 215.391 115.914 215.391 113.088C215.391 110.598 217.072 109.351 218.888 108.339C218.137 107.282 217.691 106.037 217.599 104.743C217.601 104.26 217.699 103.782 217.889 103.339C218.079 102.895 218.356 102.494 218.704 102.16C219.052 101.826 219.463 101.565 219.914 101.394C220.364 101.223 220.844 101.145 221.325 101.163C223.248 101.163 224.61 102.225 224.61 104.13C224.61 106.479 222.57 107.502 220.552 108.598C221.178 109.459 221.852 110.285 222.57 111.07C223.298 111.891 223.976 112.666 224.66 113.374C225.424 112.191 226.023 110.91 226.442 109.564L227.563 110.031C227.034 111.5 226.34 112.905 225.495 114.217C226.409 115.161 227.372 116.055 228.521 117.089H226.7ZM223.898 114.386C222.934 113.397 222.02 112.43 221.55 111.868C220.872 111.07 220.121 110.182 219.465 109.233C217.963 110.104 216.741 111.16 216.741 113.02C216.741 115.161 218.383 116.291 220.188 116.291C220.907 116.269 221.613 116.09 222.256 115.766C222.899 115.442 223.463 114.98 223.909 114.414L223.898 114.386ZM219.975 107.749C221.757 106.811 223.377 105.94 223.377 104.175C223.391 103.906 223.347 103.636 223.248 103.385C223.149 103.135 222.997 102.908 222.803 102.721C222.609 102.534 222.377 102.391 222.123 102.301C221.869 102.212 221.599 102.178 221.331 102.203C221.001 102.204 220.675 102.272 220.372 102.403C220.069 102.534 219.796 102.724 219.568 102.964C219.34 103.203 219.163 103.486 219.047 103.795C218.931 104.105 218.879 104.435 218.893 104.765C218.986 105.841 219.366 106.871 219.992 107.749H219.975Z" fill="white"/>
<path d="M237.414 117.089V101.399H242.407C247.266 101.399 250.315 104.951 250.315 109.266C250.315 113.582 247.266 117.1 242.407 117.1L237.414 117.089ZM248.908 109.255C248.908 105.586 246.56 102.624 242.407 102.624H238.753V115.864H242.407C246.538 115.864 248.908 112.925 248.908 109.255Z" fill="white"/>
<path d="M252.961 111.396C252.961 108.103 255.287 105.445 258.431 105.445C261.877 105.445 263.777 108.199 263.777 111.469V111.795H254.278C254.396 114.268 256.038 116.291 258.711 116.291C259.404 116.302 260.092 116.167 260.73 115.895C261.368 115.623 261.942 115.22 262.415 114.712L263.049 115.538C262.481 116.14 261.792 116.615 261.028 116.93C260.264 117.246 259.442 117.396 258.616 117.37C255.309 117.37 252.961 114.903 252.961 111.396ZM258.403 106.507C255.729 106.507 254.396 108.856 254.3 110.834H262.488C262.488 108.901 261.222 106.507 258.38 106.507H258.403Z" fill="white"/>
<path d="M267.295 117.088V106.811H265.418V105.726H267.295V104.692C267.295 102.484 268.467 101.163 270.366 101.163C270.761 101.147 271.156 101.209 271.526 101.347C271.897 101.485 272.236 101.696 272.524 101.967L271.936 102.81C271.544 102.44 271.023 102.238 270.484 102.248C269.195 102.248 268.511 103.141 268.511 104.715V105.749H270.809V106.833H268.511V117.111L267.295 117.088Z" fill="white"/>
<path d="M272.453 111.396C272.453 108.103 274.779 105.445 277.923 105.445C281.369 105.445 283.269 108.199 283.269 111.469V111.795H273.793C273.91 114.268 275.552 116.291 278.225 116.291C278.919 116.302 279.607 116.167 280.245 115.895C280.883 115.623 281.457 115.22 281.93 114.712L282.563 115.515C281.995 116.117 281.307 116.592 280.543 116.908C279.778 117.224 278.956 117.373 278.13 117.347C274.818 117.37 272.453 114.903 272.453 111.396ZM277.895 106.507C275.222 106.507 273.888 108.856 273.793 110.834H282.025C282.003 108.901 280.736 106.507 277.895 106.507Z" fill="white"/>
<path d="M294.056 117.089V109.396C294.056 107.21 292.935 106.552 291.31 106.552C290.59 106.583 289.886 106.773 289.25 107.111C288.613 107.448 288.059 107.923 287.628 108.502V117.089H286.406V105.726H287.628V107.446C288.136 106.851 288.76 106.367 289.462 106.023C290.163 105.679 290.928 105.482 291.708 105.445C294.006 105.445 295.272 106.569 295.272 109.137V117.089H294.056Z" fill="white"/>
<path d="M307.422 117.089V115.279C306.983 115.917 306.397 116.44 305.715 116.804C305.032 117.168 304.272 117.362 303.499 117.37C300.495 117.37 298.455 115.066 298.455 111.419C298.455 107.772 300.517 105.445 303.499 105.445C304.275 105.455 305.037 105.653 305.72 106.021C306.403 106.39 306.987 106.92 307.422 107.564V101.383H308.666V117.072L307.422 117.089ZM307.422 114.245V108.626C307.018 108 306.467 107.485 305.817 107.124C305.167 106.763 304.438 106.569 303.695 106.558C301.184 106.558 299.727 108.676 299.727 111.424C299.727 114.172 301.184 116.274 303.695 116.274C304.434 116.264 305.159 116.075 305.808 115.721C306.458 115.368 307.012 114.861 307.422 114.245Z" fill="white"/>
<path d="M312.09 116.268C312.096 115.998 312.207 115.741 312.4 115.551C312.592 115.362 312.851 115.257 313.121 115.257C313.393 115.256 313.654 115.361 313.851 115.55C314.047 115.738 314.163 115.996 314.175 116.268C314.168 116.546 314.054 116.811 313.858 117.007C313.662 117.204 313.398 117.317 313.121 117.324C312.846 117.317 312.585 117.203 312.392 117.006C312.2 116.809 312.091 116.544 312.09 116.268Z" fill="white"/>
<path d="M62.8984 118.662L58.1684 122.652C57.608 122.584 57.0868 122.5 56.5488 122.416L58.4935 114.976L62.8984 118.662Z" fill="white"/>
<path d="M63.8788 29C52.217 29.0041 40.9755 33.3669 32.3498 41.2363C23.7241 49.1058 18.3337 59.9166 17.2314 71.5576C16.1292 83.1985 19.3942 94.8334 26.3887 104.19C33.3833 113.546 43.6051 119.952 55.0578 122.157L57.2995 113.576C57.49 113.61 57.675 113.649 57.8599 113.678C58.4203 113.762 58.9415 113.835 59.4851 113.897L63.296 117.1V114.15H63.8957C64.2263 114.15 64.557 114.15 64.8876 114.15V117.027L68.6312 113.852C69.1468 113.784 69.6568 113.711 70.1612 113.627L70.6375 113.543L72.7279 122.146C80.4798 120.657 87.7292 117.224 93.7998 112.166L88.515 105.035C90.4881 103.349 92.2851 101.466 93.8782 99.4157L100.984 104.709C106.337 97.7563 109.639 89.4387 110.516 80.6997C111.393 71.9608 109.81 63.1503 105.946 55.2676C102.083 47.3849 96.0939 40.7456 88.6583 36.1027C81.2227 31.4598 72.6383 28.9992 63.8788 29ZM63.8788 111.941C56.7836 111.948 49.8458 109.844 43.9431 105.897C38.0404 101.949 33.438 96.3345 30.7181 89.7636C27.9983 83.1927 27.2832 75.9605 28.6633 68.982C30.0435 62.0036 33.4568 55.5923 38.4716 50.5593C43.4863 45.5263 49.8771 42.0978 56.8355 40.7074C63.794 39.317 71.0074 40.0272 77.5631 42.7482C84.1189 45.4692 89.7226 50.0788 93.6652 55.9937C97.6078 61.9086 99.7122 68.8632 99.7122 75.9775C99.7122 85.5098 95.938 94.6522 89.2189 101.396C82.4998 108.139 73.3855 111.932 63.8788 111.941Z" fill="white"/>
<path d="M62.7414 89.5256V96.9656L59.4629 94.3526L60.2867 89.5256H62.7414Z" fill="white"/>
<path d="M67.3539 69.6726H65.0449V77.298H67.3539V69.6726Z" fill="white"/>
<path d="M62.7308 79.6133H60.4219V87.205H62.7308V79.6133Z" fill="white"/>
<path d="M68.1947 94.4369L65.0508 96.9488V89.5256H67.3597L68.1947 94.4369Z" fill="white"/>
<path d="M62.7308 69.6726H60.4219V77.298H62.7308V69.6726Z" fill="white"/>
<path d="M67.3539 79.6133H65.0449V87.205H67.3539V79.6133Z" fill="white"/>
<path d="M71.2368 122.421C70.7773 122.494 70.3177 122.562 69.8526 122.623L65.1562 118.69L69.4491 115.077L71.2368 122.421Z" fill="white"/>
<path d="M63.8795 46.9424C58.1469 46.9424 52.5429 48.6469 47.7763 51.8404C43.0098 55.0339 39.2947 59.5729 37.1009 64.8835C34.9071 70.1941 34.3331 76.0378 35.4515 81.6755C36.5699 87.3131 39.3304 92.4917 43.3841 96.5562C47.4377 100.621 52.6023 103.389 58.2249 104.51C63.8474 105.632 69.6753 105.056 74.9716 102.856C80.2679 100.657 84.7948 96.9315 87.9797 92.1521C91.1646 87.3727 92.8645 81.7537 92.8645 76.0055C92.8571 68.2998 89.801 60.9118 84.3668 55.463C78.9327 50.0142 71.5646 46.9498 63.8795 46.9424ZM53.366 67.3518C54.3322 67.3518 55.2587 67.7366 55.9418 68.4216C56.625 69.1066 57.0088 70.0356 57.0088 71.0043C57.0088 71.973 56.625 72.9021 55.9418 73.5871C55.2587 74.2721 54.3322 74.6569 53.366 74.6569V67.3518ZM74.2698 89.5256H69.6127L71.6862 101.686C70.9801 101.899 70.2571 102.085 69.5286 102.248L68.503 96.2238L65.1405 98.8986L69.3717 102.27C68.6824 102.416 67.9762 102.529 67.2645 102.624L65.0228 100.837V102.815C64.6361 102.815 64.2438 102.849 63.8515 102.849C63.4592 102.849 63.0893 102.849 62.7307 102.815V100.82L60.489 102.624C59.7773 102.534 59.0711 102.416 58.3818 102.27L62.6186 98.8986L59.1664 96.1395L58.124 102.22C57.3955 102.057 56.6725 101.871 55.9664 101.658L58.0343 89.5256H53.5117V87.2104H58.124V79.6131H55.8263V77.3261H58.124V61.03H60.433V67.3799H62.7419V56.203H63.3471V49.1789C63.5265 49.1789 63.7002 49.1789 63.9076 49.1789C64.1149 49.1789 64.2831 49.1789 64.468 49.1789V56.1974H65.0508V67.3518H67.3598V61.03H69.6687V77.3261H71.944V79.6412H69.6687V87.2329H74.2698V89.5256ZM74.3931 74.6344C73.4269 74.6344 72.5004 74.2496 71.8172 73.5646C71.1341 72.8796 70.7503 71.9506 70.7503 70.9818C70.7503 70.0131 71.1341 69.0841 71.8172 68.3991C72.5004 67.7141 73.4269 67.3293 74.3931 67.3293V74.6344Z" fill="white"/>
<path d="M67.863 122.832V122.837L67.8574 122.832H67.863Z" fill="white"/>
<path d="M67.8581 122.843C66.8718 122.927 65.8742 122.978 64.8711 123V120.331L67.8581 122.843Z" fill="white"/>
<path d="M63.2744 120.235V123C62.232 123 61.1952 122.933 60.1641 122.854L63.2744 120.235Z" fill="white"/>
<path d="M118.654 86.5868L123.485 78.7198C126.556 81.625 132.884 84.5301 138.152 84.5301C142.982 84.5301 145.263 82.5915 145.263 79.9504C145.263 72.9038 120.044 78.6298 120.044 61.9011C120.044 54.7702 126.276 48.5159 137.417 48.5159C143.621 48.4318 149.666 50.4826 154.544 54.3263L150.06 61.9854C147.516 59.2544 142.685 57.0573 137.501 57.0573C133.461 57.0573 130.827 58.906 130.827 61.283C130.827 67.6216 155.939 62.3394 155.939 79.5121C155.939 87.2611 149.354 93.1614 137.586 93.1614C130.21 93.1614 123.099 90.6945 118.615 86.5587L118.654 86.5868Z" fill="white"/>
<path d="M159.93 93.195V34.4619H171.082V93.195H159.93Z" fill="white"/>
<path d="M175.017 70.8302C175.017 58.5014 184.063 48.5552 196.969 48.5552C209.876 48.5552 218.215 58.0631 218.215 71.9765V74.4434H186.697C187.397 79.8155 191.701 84.3053 198.902 84.3053C202.506 84.3053 207.511 82.7206 210.229 80.0796L215.143 87.3004C210.929 91.1721 204.255 93.2007 197.67 93.2007C184.78 93.2007 175.012 84.4851 175.012 70.8358L175.017 70.8302ZM196.969 57.4449C190.031 57.4449 187.044 62.6372 186.517 66.8686H207.415C207.152 62.817 204.344 57.4449 196.963 57.4449H196.969Z" fill="white"/>
<path d="M326.935 93.195V67.3069C326.935 61.4066 323.864 59.5578 319.033 59.5578C314.729 59.5578 311.305 62.0247 309.371 64.5759V93.195H298.219V34.4619H309.371V56.2087C312.095 52.9495 317.363 49.606 324.301 49.606C333.609 49.606 338.087 54.7139 338.087 62.9912V93.195H326.935Z" fill="white"/>
<path d="M284.153 59.3837H294.24V49.6117H284.153V37.991H272.911V49.6117H265.889V59.3837H272.911V81.5744C272.911 89.1493 277.125 93.1952 284.943 93.1952C289.6 93.1952 292.582 91.9645 294.252 90.4642L291.881 82.0352C291.265 82.6533 289.684 83.2658 288.02 83.2658C285.559 83.2658 284.158 81.2429 284.158 78.6018V59.3837H284.153Z" fill="white"/>
<path d="M250.791 49.606V78.3994C249.645 79.8805 248.182 81.0847 246.51 81.9231C244.837 82.7615 242.999 83.2126 241.129 83.2432C236.388 83.2432 233.312 81.3045 233.312 75.4042V49.606H222.137V79.8098C222.137 88.0871 226.525 93.195 235.833 93.195C238.633 93.24 241.411 92.6905 243.984 91.5826C246.557 90.4746 248.868 88.8333 250.763 86.7665V93.195H261.927V49.606H250.791Z" fill="white"/>
<path d="M340.134 41.0197V35.1812H338.066V34.4563H343.026V35.1812H340.947V41.0084L340.134 41.0197Z" fill="white"/>
<path d="M350.183 41.0197V35.6195L347.941 41.014H347.61L345.397 35.6195V41.014H344.584V34.4619H345.75L347.778 39.3957L349.818 34.4619H350.984V41.0197H350.166H350.183Z" fill="white"/>
</g>
<defs>
<clipPath id="clip0_159_6134">
<rect width="334" height="94" fill="white" transform="translate(17 29)"/>
</clipPath>
</defs>
</svg>
