<svg width="152" height="152" viewBox="0 0 152 152" fill="none" xmlns="http://www.w3.org/2000/svg">
<path d="M76.0005 47.22C44.0205 47.22 31.2305 76 31.2305 76C31.2305 76 44.0205 104.78 76.0005 104.78C107.98 104.78 120.77 76 120.77 76C120.77 76 107.98 47.22 76.0005 47.22Z" stroke="white" stroke-width="5" stroke-linecap="round" stroke-linejoin="round"/>
<path d="M76.0005 104.77C91.8897 104.77 104.77 91.8892 104.77 76C104.77 60.1108 91.8897 47.23 76.0005 47.23C60.1112 47.23 47.2305 60.1108 47.2305 76C47.2305 91.8892 60.1112 104.77 76.0005 104.77Z" stroke="white" stroke-width="5" stroke-linecap="round" stroke-linejoin="round"/>
<path d="M76.0002 89.09C83.2296 89.09 89.0902 83.2294 89.0902 76C89.0902 68.7706 83.2296 62.91 76.0002 62.91C68.7707 62.91 62.9102 68.7706 62.9102 76C62.9102 83.2294 68.7707 89.09 76.0002 89.09Z" stroke="white" stroke-width="5" stroke-linecap="round" stroke-linejoin="round"/>
<path d="M76 20.84V34.21" stroke="white" stroke-width="5" stroke-linecap="round" stroke-linejoin="round"/>
<path d="M34.21 34.21L43.66 43.66" stroke="white" stroke-width="5" stroke-linecap="round" stroke-linejoin="round"/>
<path d="M34.21 117.79L43.66 108.34" stroke="white" stroke-width="5" stroke-linecap="round" stroke-linejoin="round"/>
<path d="M76 131.16V117.79" stroke="white" stroke-width="5" stroke-linecap="round" stroke-linejoin="round"/>
<path d="M117.79 117.79L108.34 108.34" stroke="white" stroke-width="5" stroke-linecap="round" stroke-linejoin="round"/>
<path d="M117.79 34.21L108.34 43.66" stroke="white" stroke-width="5" stroke-linecap="round" stroke-linejoin="round"/>
</svg>
