<svg width="152" height="153" viewBox="0 0 152 153" fill="none" xmlns="http://www.w3.org/2000/svg">
<path d="M86.477 124.13C84.714 124.135 82.9949 123.58 81.5679 122.545C80.1408 121.509 79.0794 120.048 78.537 118.37L70.067 92.44L61.607 118.37C61.0632 120.047 60.0015 121.508 58.5747 122.543C57.1479 123.578 55.4296 124.134 53.667 124.13C52.7844 124.128 51.9074 123.99 51.067 123.72C50.019 123.378 49.0489 122.833 48.2126 122.115C47.3763 121.397 46.6902 120.52 46.1939 119.536C45.6976 118.552 45.4008 117.479 45.3207 116.38C45.2405 115.28 45.3786 114.176 45.727 113.13L51.077 96.72C54.3326 86.7517 56.0885 76.3547 56.287 65.87L32.847 61.04C30.8288 60.6481 29.0224 59.5345 27.7654 57.9077C26.5085 56.2808 25.8869 54.2518 26.017 52.2C26.1051 51.0173 26.4442 49.8668 27.0118 48.8253C27.5793 47.7838 28.3622 46.8752 29.3083 46.16C30.2545 45.4447 31.3421 44.9392 32.4989 44.6771C33.6556 44.415 34.8549 44.4024 36.017 44.6401L61.367 49.8601C67.1251 50.7201 72.9789 50.7201 78.737 49.8601L104.087 44.6401C105.182 44.413 106.312 44.4084 107.409 44.6265C108.507 44.8446 109.549 45.281 110.474 45.9097C111.399 46.5384 112.189 47.3465 112.796 48.2863C113.403 49.226 113.815 50.2781 114.007 51.38C114.34 53.5549 113.821 55.7744 112.558 57.5759C111.295 59.3775 109.385 60.622 107.227 61.0501L83.827 65.87C84.0288 76.3552 85.7881 86.7521 89.047 96.72L94.417 113.13C94.7589 114.173 94.8917 115.274 94.8077 116.369C94.7238 117.463 94.4248 118.531 93.9278 119.51C93.4309 120.489 92.7458 121.36 91.9117 122.074C91.0776 122.788 90.111 123.33 89.067 123.67C88.233 123.958 87.359 124.113 86.477 124.13ZM70.067 81.8901C70.5948 81.8875 71.1097 82.0527 71.5375 82.3619C71.9653 82.671 72.2837 83.1081 72.4469 83.6101L83.287 116.82C83.492 117.452 83.8802 118.009 84.4024 118.419C84.9245 118.83 85.557 119.076 86.2194 119.127C86.8818 119.177 87.5443 119.029 88.1225 118.702C88.7008 118.375 89.1688 117.884 89.467 117.29C89.6697 116.898 89.7918 116.47 89.8262 116.03C89.8605 115.591 89.8064 115.148 89.667 114.73L84.307 98.32C80.6765 87.2041 78.827 75.5839 78.827 63.8901C78.8268 63.3137 79.0259 62.7551 79.3903 62.3086C79.7548 61.8621 80.2623 61.5553 80.827 61.44L106.237 56.13C107.125 55.9706 107.919 55.4759 108.453 54.7482C108.987 54.0205 109.221 53.1155 109.107 52.22C109.033 51.7759 108.869 51.3515 108.624 50.9732C108.38 50.5948 108.061 50.2705 107.687 50.0201C107.316 49.7645 106.897 49.5867 106.455 49.4973C106.013 49.4079 105.558 49.4089 105.117 49.5L79.727 54.7701H79.597C73.2999 55.729 66.894 55.729 60.597 54.7701H60.467L35.047 49.53C34.5797 49.4381 34.0983 49.4466 33.6345 49.5549C33.1708 49.6632 32.7353 49.8689 32.3571 50.1582C31.9789 50.4476 31.6665 50.814 31.4406 51.2333C31.2147 51.6525 31.0806 52.115 31.047 52.59C31.0206 53.427 31.2944 54.2459 31.8189 54.8987C32.3434 55.5516 33.084 55.9954 33.907 56.15L59.367 61.3901C59.9317 61.5053 60.4392 61.8121 60.8036 62.2586C61.1681 62.705 61.3671 63.2637 61.367 63.84C61.3704 75.5333 59.5242 87.1536 55.897 98.2701L50.537 114.68C50.3976 115.098 50.3434 115.541 50.3778 115.98C50.4121 116.42 50.5343 116.848 50.737 117.24C50.9321 117.636 51.2054 117.988 51.5406 118.275C51.8758 118.562 52.2659 118.778 52.687 118.91C53.0088 119.021 53.3466 119.078 53.687 119.08C54.3945 119.081 55.0843 118.858 55.6573 118.443C56.2304 118.028 56.6574 117.443 56.877 116.77L67.727 83.56C67.8867 83.0638 68.1988 82.6305 68.6189 82.3217C69.039 82.0129 69.5457 81.8444 70.067 81.84V81.8901Z" fill="white"/>
<path d="M70.0667 44.82C67.5641 44.82 65.1176 44.0783 63.0364 42.6885C60.9551 41.2987 59.3324 39.3233 58.3733 37.0117C57.4142 34.7001 57.1617 32.1562 57.6478 29.7012C58.1339 27.2462 59.3367 24.9904 61.1042 23.2186C62.8718 21.4469 65.1247 20.2388 67.5785 19.7469C70.0323 19.2551 72.5769 19.5015 74.8907 20.4551C77.2046 21.4087 79.1838 23.0267 80.5785 25.1047C81.9732 27.1827 82.7208 29.6274 82.7267 32.13C82.7294 35.4912 81.3974 38.716 79.0235 41.0955C76.6496 43.4751 73.428 44.8147 70.0667 44.82ZM70.0667 24.5C68.5505 24.5 67.0683 24.95 65.808 25.7931C64.5476 26.6361 63.5659 27.8342 62.987 29.2356C62.4081 30.6371 62.2582 32.1788 62.5562 33.6655C62.8542 35.1522 63.5867 36.517 64.661 37.5871C65.7353 38.6571 67.1029 39.3843 68.5908 39.6765C70.0787 39.9686 71.6197 39.8127 73.0189 39.2283C74.418 38.6439 75.6123 37.6575 76.4504 36.3938C77.2885 35.1302 77.7327 33.6463 77.7267 32.13C77.7162 30.1045 76.9048 28.1654 75.4697 26.7359C74.0346 25.3064 72.0923 24.5026 70.0667 24.5Z" fill="white"/>
<path d="M114.727 106.25C110.799 106.25 106.959 105.085 103.693 102.903C100.427 100.721 97.8816 97.6191 96.3784 93.9901C94.8753 90.3612 94.482 86.368 95.2483 82.5155C96.0146 78.6631 97.9061 75.1244 100.684 72.3469C103.461 69.5694 107 67.678 110.852 66.9116C114.705 66.1453 118.698 66.5386 122.327 68.0418C125.956 69.5449 129.057 72.0905 131.24 75.3564C133.422 78.6224 134.587 82.4621 134.587 86.39C134.581 91.6556 132.487 96.704 128.764 100.427C125.041 104.151 119.992 106.245 114.727 106.25ZM114.727 71.53C111.788 71.53 108.915 72.4016 106.471 74.0344C104.027 75.6672 102.123 77.9881 100.998 80.7034C99.8732 83.4187 99.5789 86.4065 100.152 89.2891C100.726 92.1716 102.141 94.8194 104.219 96.8976C106.297 98.9758 108.945 100.391 111.828 100.965C114.71 101.538 117.698 101.244 120.413 100.119C123.129 98.9942 125.45 97.0895 127.082 94.6458C128.715 92.2021 129.587 89.3291 129.587 86.39C129.581 82.4505 128.014 78.6739 125.228 75.8883C122.443 73.1026 118.666 71.5353 114.727 71.53Z" fill="white"/>
<path d="M112.067 94.52C111.404 94.5179 110.768 94.2558 110.297 93.79L105.087 88.58C104.617 88.1106 104.354 87.4738 104.354 86.81C104.354 86.1461 104.617 85.5094 105.087 85.04C105.556 84.5705 106.193 84.3068 106.857 84.3068C107.521 84.3068 108.157 84.5705 108.627 85.04L112.067 88.48L120.307 80.23C120.776 79.7605 121.413 79.4968 122.077 79.4968C122.741 79.4968 123.377 79.7605 123.847 80.23C124.316 80.6994 124.58 81.3361 124.58 82C124.58 82.6638 124.316 83.3006 123.847 83.77L113.847 93.77C113.375 94.2437 112.735 94.5131 112.067 94.52Z" fill="white"/>
</svg>
