<svg width="109" height="106" viewBox="0 0 109 106" fill="none" xmlns="http://www.w3.org/2000/svg">
<path d="M60.477 105.13C58.714 105.135 56.9949 104.58 55.5679 103.545C54.1408 102.509 53.0794 101.048 52.537 99.37L44.067 73.44L35.607 99.37C35.0632 101.047 34.0015 102.508 32.5747 103.543C31.1479 104.578 29.4296 105.134 27.667 105.13C26.7844 105.128 25.9074 104.99 25.067 104.72C24.019 104.378 23.0489 103.833 22.2126 103.115C21.3763 102.397 20.6902 101.52 20.1939 100.536C19.6976 99.5517 19.4008 98.479 19.3207 97.3796C19.2405 96.2802 19.3786 95.1759 19.727 94.13L25.077 77.72C28.3326 67.7517 30.0885 57.3547 30.287 46.87L6.84697 42.04C4.82878 41.6481 3.0224 40.5345 1.76543 38.9077C0.508456 37.2808 -0.113107 35.2518 0.0169557 33.2C0.105118 32.0173 0.444244 30.8668 1.01177 29.8253C1.57929 28.7838 2.36221 27.8752 3.30834 27.16C4.25447 26.4447 5.34213 25.9392 6.49889 25.6771C7.65565 25.415 8.85493 25.4024 10.017 25.6401L35.367 30.8601C41.1251 31.7201 46.9789 31.7201 52.737 30.8601L78.087 25.6401C79.1823 25.413 80.3122 25.4084 81.4094 25.6265C82.5066 25.8446 83.5488 26.281 84.474 26.9097C85.3993 27.5384 86.1889 28.3465 86.7958 29.2863C87.4027 30.226 87.8146 31.2781 88.007 32.38C88.3402 34.5549 87.8211 36.7744 86.558 38.5759C85.2949 40.3775 83.3851 41.622 81.227 42.0501L57.827 46.87C58.0288 57.3552 59.7881 67.7521 63.047 77.72L68.417 94.13C68.7589 95.1733 68.8917 96.2738 68.8077 97.3685C68.7238 98.4632 68.4248 99.5306 67.9278 100.51C67.4309 101.489 66.7458 102.36 65.9117 103.074C65.0776 103.788 64.111 104.33 63.067 104.67C62.233 104.958 61.359 105.113 60.477 105.13ZM44.067 62.8901C44.5948 62.8875 45.1097 63.0527 45.5375 63.3619C45.9653 63.671 46.2837 64.1081 46.4469 64.6101L57.287 97.82C57.492 98.4519 57.8802 99.0086 58.4024 99.4193C58.9245 99.83 59.557 100.076 60.2194 100.127C60.8818 100.177 61.5443 100.029 62.1225 99.7022C62.7008 99.3752 63.1688 98.8837 63.467 98.29C63.6697 97.8984 63.7918 97.47 63.8262 97.0303C63.8605 96.5906 63.8064 96.1485 63.667 95.73L58.307 79.32C54.6765 68.2041 52.827 56.5839 52.827 44.8901C52.8268 44.3137 53.0259 43.7551 53.3903 43.3086C53.7548 42.8621 54.2623 42.5553 54.827 42.44L80.237 37.13C81.1255 36.9706 81.9187 36.4759 82.4529 35.7482C82.987 35.0205 83.2212 34.1155 83.107 33.22C83.0329 32.7759 82.8687 32.3515 82.6245 31.9732C82.3803 31.5948 82.0613 31.2705 81.687 31.0201C81.3158 30.7645 80.8968 30.5867 80.4551 30.4973C80.0135 30.4079 79.5583 30.4089 79.117 30.5L53.727 35.7701H53.597C47.2999 36.729 40.894 36.729 34.597 35.7701H34.467L9.04698 30.53C8.57971 30.4381 8.09825 30.4466 7.63451 30.5549C7.17077 30.6632 6.73534 30.8689 6.3571 31.1582C5.97887 31.4476 5.66647 31.814 5.4406 32.2333C5.21473 32.6525 5.08055 33.115 5.04699 33.59C5.02065 34.427 5.29443 35.2459 5.8189 35.8987C6.34337 36.5516 7.08396 36.9954 7.90697 37.15L33.367 42.3901C33.9317 42.5053 34.4392 42.8121 34.8036 43.2586C35.1681 43.705 35.3671 44.2637 35.367 44.84C35.3704 56.5333 33.5242 68.1536 29.897 79.2701L24.537 95.68C24.3976 96.0985 24.3434 96.5406 24.3778 96.9803C24.4121 97.42 24.5343 97.8483 24.737 98.24C24.9321 98.6359 25.2054 98.988 25.5406 99.2751C25.8758 99.5622 26.2659 99.7782 26.687 99.91C27.0088 100.021 27.3466 100.078 27.687 100.08C28.3945 100.081 29.0843 99.8583 29.6573 99.4434C30.2304 99.0284 30.6574 98.4426 30.877 97.7701L41.727 64.56C41.8867 64.0638 42.1988 63.6305 42.6189 63.3217C43.039 63.0129 43.5457 62.8444 44.067 62.84V62.8901Z" fill="white"/>
<path d="M44.0663 25.82C41.5636 25.82 39.1171 25.0783 37.0359 23.6885C34.9546 22.2987 33.3319 20.3233 32.3728 18.0117C31.4138 15.7001 31.1613 13.1562 31.6473 10.7012C32.1334 8.2462 33.3362 5.99036 35.1037 4.21864C36.8713 2.44692 39.1242 1.2388 41.578 0.746927C44.0319 0.255056 46.5764 0.501511 48.8902 1.45512C51.2041 2.40872 53.1833 4.02671 54.578 6.10468C55.9727 8.18266 56.7203 10.6274 56.7262 13.13C56.7289 16.4912 55.3969 19.716 53.023 22.0955C50.6491 24.4751 47.4275 25.8147 44.0663 25.82ZM44.0663 5.50001C42.55 5.50002 41.0678 5.95004 39.8075 6.79307C38.5471 7.6361 37.5654 8.8342 36.9865 10.2356C36.4076 11.6371 36.2577 13.1788 36.5557 14.6655C36.8537 16.1522 37.5862 17.517 38.6605 18.5871C39.7348 19.6571 41.1024 20.3843 42.5903 20.6765C44.0782 20.9686 45.6193 20.8127 47.0184 20.2283C48.4176 19.6439 49.6119 18.6575 50.4499 17.3938C51.288 16.1302 51.7322 14.6463 51.7262 13.13C51.7157 11.1045 50.9043 9.16536 49.4692 7.73588C48.0341 6.3064 46.0918 5.50262 44.0663 5.50001Z" fill="white"/>
<path d="M88.7272 87.25C84.7993 87.25 80.9595 86.0853 77.6936 83.903C74.4276 81.7208 71.8821 78.6191 70.3789 74.9901C68.8758 71.3612 68.4825 67.368 69.2488 63.5155C70.0151 59.6631 71.9066 56.1244 74.684 53.3469C77.4615 50.5694 81.0002 48.678 84.8527 47.9116C88.7052 47.1453 92.6984 47.5386 96.3273 49.0418C99.9562 50.5449 103.058 53.0905 105.24 56.3564C107.422 59.6224 108.587 63.4621 108.587 67.39C108.582 72.6556 106.488 77.704 102.764 81.4273C99.0412 85.1507 93.9928 87.2447 88.7272 87.25ZM88.7272 52.53C85.7882 52.53 82.9151 53.4016 80.4714 55.0344C78.0277 56.6672 76.1231 58.9881 74.9984 61.7034C73.8737 64.4187 73.5794 67.4065 74.1527 70.2891C74.7261 73.1716 76.1414 75.8194 78.2196 77.8976C80.2978 79.9758 82.9456 81.3911 85.8282 81.9645C88.7107 82.5379 91.6985 82.2436 94.4138 81.1189C97.1292 79.9942 99.45 78.0895 101.083 75.6458C102.716 73.2021 103.587 70.3291 103.587 67.39C103.582 63.4505 102.015 59.6739 99.229 56.8883C96.4433 54.1026 92.6667 52.5353 88.7272 52.53Z" fill="white"/>
<path d="M86.0667 75.52C85.4039 75.5179 84.7683 75.2558 84.2967 74.79L79.0867 69.58C78.6172 69.1106 78.3535 68.4738 78.3535 67.81C78.3535 67.1461 78.6172 66.5094 79.0867 66.04C79.5561 65.5705 80.1928 65.3068 80.8567 65.3068C81.5206 65.3068 82.1573 65.5705 82.6267 66.04L86.0667 69.48L94.3067 61.23C94.7761 60.7605 95.4128 60.4968 96.0767 60.4968C96.7405 60.4968 97.3772 60.7605 97.8467 61.23C98.3161 61.6994 98.5798 62.3361 98.5798 63C98.5798 63.6638 98.3161 64.3006 97.8467 64.77L87.8467 74.77C87.3746 75.2437 86.7354 75.5131 86.0667 75.52Z" fill="white"/>
</svg>
