<svg width="60" height="61" viewBox="0 0 60 61" fill="none" xmlns="http://www.w3.org/2000/svg">
<path d="M21.1684 20.7732L23.2796 26.5793C23.3289 26.7121 23.4176 26.8266 23.5339 26.9075C23.6502 26.9884 23.7884 27.0317 23.9301 27.0317C24.0717 27.0317 24.21 26.9884 24.3263 26.9075C24.4426 26.8266 24.5313 26.7121 24.5806 26.5793L26.6883 20.7732L32.4944 18.6621C32.6271 18.6128 32.7417 18.524 32.8226 18.4078C32.9034 18.2915 32.9468 18.1532 32.9468 18.0116C32.9468 17.8699 32.9034 17.7317 32.8226 17.6154C32.7417 17.4991 32.6271 17.4103 32.4944 17.361L26.6883 15.2534L24.5771 9.4473C24.5278 9.3145 24.4391 9.19997 24.3228 9.1191C24.2065 9.03822 24.0683 8.99487 23.9266 8.99487C23.785 8.99487 23.6467 9.03822 23.5304 9.1191C23.4141 9.19997 23.3254 9.3145 23.2761 9.4473L21.165 15.2534L15.3589 17.3645C15.2261 17.4138 15.1116 17.5026 15.0307 17.6188C14.9498 17.7351 14.9065 17.8734 14.9065 18.015C14.9065 18.1567 14.9498 18.2949 15.0307 18.4112C15.1116 18.5275 15.2261 18.6163 15.3589 18.6656L21.1684 20.7732Z" fill="white"/>
<path d="M11.2815 32.358L12.6217 36.0436C12.653 36.1279 12.7093 36.2006 12.7831 36.2519C12.8569 36.3033 12.9447 36.3308 13.0346 36.3308C13.1245 36.3308 13.2123 36.3033 13.2861 36.2519C13.3599 36.2006 13.4163 36.1279 13.4476 36.0436L14.7855 32.358L18.4711 31.0179C18.5554 30.9866 18.6281 30.9302 18.6794 30.8564C18.7308 30.7826 18.7583 30.6948 18.7583 30.6049C18.7583 30.515 18.7308 30.4272 18.6794 30.3534C18.6281 30.2796 18.5554 30.2233 18.4711 30.192L14.7855 28.854L13.4454 25.1684C13.4141 25.0841 13.3577 25.0114 13.2839 24.9601C13.2101 24.9087 13.1223 24.8812 13.0324 24.8812C12.9425 24.8812 12.8547 24.9087 12.7809 24.9601C12.7071 25.0114 12.6508 25.0841 12.6195 25.1684L11.2793 28.854L7.59371 30.1942C7.50942 30.2255 7.43672 30.2818 7.38538 30.3556C7.33404 30.4294 7.30652 30.5172 7.30652 30.6071C7.30652 30.697 7.33404 30.7848 7.38538 30.8586C7.43672 30.9324 7.50942 30.9888 7.59371 31.0201L11.2815 32.358Z" fill="white"/>
<path d="M22.0336 53.0597C21.3616 53.0597 20.8096 52.9037 20.3776 52.5917C19.9696 52.2797 19.7056 51.8597 19.5856 51.3317C19.4896 50.8037 19.5976 50.2157 19.9096 49.5677L29.1256 29.3717C29.5096 28.5557 29.9656 27.9677 30.4936 27.6077C31.0216 27.2237 31.6336 27.0317 32.3296 27.0317C33.0256 27.0317 33.6376 27.2237 34.1656 27.6077C34.6936 27.9677 35.1376 28.5557 35.4976 29.3717L44.7856 49.5677C45.0976 50.2157 45.2056 50.8157 45.1096 51.3677C45.0376 51.8957 44.7976 52.3157 44.3896 52.6277C43.9816 52.9157 43.4536 53.0597 42.8056 53.0597C41.9896 53.0597 41.3536 52.8677 40.8976 52.4837C40.4656 52.0997 40.0816 51.4997 39.7456 50.6837L37.5856 45.6797L39.8176 47.2277H24.8056L27.0376 45.6797L24.9136 50.6837C24.5536 51.5237 24.1696 52.1357 23.7616 52.5197C23.3776 52.8797 22.8016 53.0597 22.0336 53.0597ZM32.2576 33.2957L27.6496 44.2757L26.6776 42.8717H37.9456L36.9736 44.2757L32.3296 33.2957H32.2576Z" fill="white"/>
<path d="M51.7671 53.0597C50.8551 53.0597 50.1591 52.8077 49.6791 52.3037C49.1991 51.7997 48.9591 51.0917 48.9591 50.1797V29.9117C48.9591 28.9997 49.1991 28.2917 49.6791 27.7877C50.1591 27.2837 50.8551 27.0317 51.7671 27.0317C52.6551 27.0317 53.3391 27.2837 53.8191 27.7877C54.2991 28.2917 54.5391 28.9997 54.5391 29.9117V50.1797C54.5391 51.0917 54.2991 51.7997 53.8191 52.3037C53.3631 52.8077 52.6791 53.0597 51.7671 53.0597Z" fill="white"/>
</svg>
