<svg width="152" height="152" viewBox="0 0 152 152" fill="none" xmlns="http://www.w3.org/2000/svg">
<g clip-path="url(#clip0_159_6190)">
<path d="M61.6698 143.38C61.7417 143.253 61.7795 143.11 61.7795 142.965C61.7795 142.82 61.7417 142.677 61.6698 142.55C61.0723 140.768 60.1448 139.112 58.935 137.669C56.9992 135.344 54.786 133.262 52.3442 131.469C51.9307 132.534 51.7758 133.682 51.8922 134.819C52.0087 135.955 52.3931 137.048 53.0143 138.009C53.9458 139.556 55.1339 140.935 56.5284 142.088C54.6277 142.36 52.746 142.75 50.8947 143.257C46.4507 144.467 45.0014 147.255 45.0287 147.336C45.056 147.418 51.4281 148.696 55.9679 147.078C57.9726 146.515 59.8019 145.458 61.2869 144.005C61.3961 143.939 61.4877 143.847 61.5543 143.738C61.6209 143.63 61.6605 143.507 61.6698 143.38Z" fill="white"/>
<path d="M47.5172 138.879C47.5894 138.778 47.639 138.662 47.6626 138.54C47.6862 138.418 47.6832 138.293 47.6539 138.172C47.5201 136.337 47.057 134.541 46.2865 132.869C45.0631 130.257 43.4999 127.816 41.6373 125.608C41.0243 126.568 40.6297 127.65 40.4809 128.777C40.3321 129.904 40.4327 131.05 40.7758 132.135C41.2732 133.79 42.0501 135.348 43.0731 136.744C41.2489 136.669 39.4217 136.715 37.6036 136.88C36.4059 136.918 35.2275 137.191 34.1363 137.684C33.0451 138.176 32.0626 138.878 31.2451 139.749C31.2451 139.749 36.8787 142.237 41.4459 141.476C43.4141 141.271 45.2969 140.569 46.9154 139.436C47.053 139.398 47.1794 139.327 47.284 139.23C47.3886 139.133 47.4685 139.013 47.5172 138.879Z" fill="white"/>
<path d="M35.5658 131.999C35.7387 131.819 35.8364 131.581 35.8392 131.332C36.168 129.534 36.168 127.692 35.8392 125.894C35.2893 123.126 34.3406 120.451 33.0225 117.953C32.2395 118.781 31.6391 119.763 31.26 120.836C30.8809 121.908 30.7314 123.047 30.821 124.181C30.9378 125.877 31.3303 127.544 31.9832 129.116C30.2877 128.708 28.5649 128.422 26.8281 128.26C25.6704 128.085 24.4893 128.141 23.3534 128.424C22.2174 128.706 21.1491 129.209 20.21 129.905C20.21 129.905 25.0095 133.372 29.4536 133.454C31.3789 133.616 33.3133 133.269 35.0599 132.447C35.2808 132.369 35.4622 132.208 35.5658 131.999Z" fill="white"/>
<path d="M25.1467 123.42C25.2723 123.413 25.3949 123.379 25.5059 123.32C25.617 123.262 25.7137 123.179 25.7894 123.08C25.999 122.941 26.1461 122.726 26.1996 122.481C26.8683 120.781 27.2293 118.977 27.2661 117.151C27.3016 114.339 26.9286 111.536 26.1586 108.83C25.2278 109.495 24.4475 110.347 23.8681 111.331C23.2887 112.315 22.9232 113.408 22.7948 114.541C22.568 116.218 22.6049 117.92 22.9042 119.585C21.359 118.877 19.764 118.282 18.132 117.804C17.0412 117.418 15.8835 117.254 14.7278 117.322C13.5721 117.39 12.4419 117.688 11.4043 118.198C11.4043 118.198 15.3698 122.481 19.6087 123.379C21.4161 123.896 23.3318 123.911 25.1467 123.42Z" fill="white"/>
<path d="M17.4892 112.773C17.6324 112.79 17.7775 112.776 17.9146 112.732C18.0516 112.687 18.1772 112.613 18.2823 112.515C18.4807 112.42 18.6365 112.255 18.7198 112.052C19.7096 110.503 20.4135 108.79 20.7982 106.994C21.3748 104.242 21.5361 101.419 21.2768 98.6187C20.2465 99.1058 19.3286 99.7993 18.5804 100.656C17.8322 101.512 17.2698 102.513 16.9286 103.595C16.3927 105.201 16.1114 106.88 16.0945 108.572C14.7264 107.587 13.2866 106.706 11.7871 105.934C10.7937 105.355 9.69356 104.981 8.55192 104.834C7.41028 104.687 6.2505 104.77 5.1416 105.077C5.1416 105.077 8.21824 110.026 12.1427 111.685C13.796 112.514 15.6415 112.889 17.4892 112.773Z" fill="white"/>
<path d="M7.04195 98.7953C8.51382 99.9256 10.2677 100.635 12.1149 100.848C12.2327 100.885 12.3568 100.896 12.4792 100.882C12.6016 100.868 12.7197 100.829 12.826 100.767C13.0732 100.708 13.2884 100.557 13.4276 100.345C14.6723 99.0079 15.6678 97.461 16.3675 95.7768C17.435 93.1736 18.09 90.4215 18.3093 87.6187C17.2182 87.9108 16.1995 88.4239 15.3171 89.1258C14.4347 89.8277 13.7077 90.7033 13.1816 91.6977C12.3714 93.1786 11.7949 94.7745 11.4723 96.4295C10.3066 95.204 9.04955 94.0677 7.71197 93.0302C6.84368 92.2775 5.8323 91.7055 4.73781 91.3481C3.64331 90.9908 2.48789 90.8554 1.33984 90.9499C1.33984 90.9499 3.50039 96.4567 7.04195 98.7953Z" fill="white"/>
<path d="M8.92915 88.1898C9.04149 88.2377 9.16246 88.2623 9.28469 88.2623C9.40691 88.2623 9.52788 88.2377 9.64022 88.1898C9.76416 88.186 9.88605 88.1575 9.99877 88.1061C10.1115 88.0548 10.2127 87.9815 10.2965 87.8907C11.7578 86.8143 13.005 85.4772 13.9748 83.9475C15.4676 81.5821 16.5796 78.9993 17.2702 76.2925C16.1496 76.3748 15.0589 76.691 14.0694 77.2205C13.0799 77.75 12.2138 78.4808 11.5272 79.3654C10.4833 80.6813 9.6485 82.1487 9.05217 83.7164C8.11038 82.2822 7.06372 80.9188 5.92077 79.6373C5.20017 78.7344 4.30502 77.984 3.28813 77.4306C2.27124 76.8771 1.15327 76.5318 0 76.4148C0 76.4148 1.217 82.1663 4.29365 85.1577C5.53883 86.5618 7.13944 87.6088 8.92915 88.1898Z" fill="white"/>
<path d="M7.94426 75.0958C8.15213 75.2151 8.38793 75.2779 8.62796 75.2779C8.86799 75.2779 9.10379 75.2151 9.31166 75.0958C10.9252 74.3038 12.3766 73.2203 13.5916 71.9005C15.4583 69.8479 16.9902 67.5173 18.1315 64.9933C17.0212 64.8546 15.8939 64.9566 14.827 65.2923C13.7601 65.6279 12.7789 66.1892 11.9508 66.9376C10.6962 68.0358 9.62543 69.3255 8.77852 70.7583C8.09366 69.1797 7.29389 67.6527 6.38557 66.1898C5.26257 64.1208 3.35906 62.5802 1.09375 61.9067C1.09375 61.9067 1.32621 67.7942 3.82855 71.3022C4.83482 72.9098 6.25595 74.2198 7.94426 75.0958Z" fill="white"/>
<path d="M9.17553 62.0837C9.3485 62.2642 9.58198 62.3755 9.83185 62.3964C10.0601 62.4872 10.3147 62.4872 10.5429 62.3964C12.2634 61.916 13.8776 61.118 15.3014 60.0442C17.4894 58.3692 19.3957 56.3589 20.9488 54.0887C19.8872 53.7482 18.764 53.6411 17.6567 53.775C16.5493 53.9088 15.4845 54.2803 14.5358 54.8637C13.1183 55.7052 11.8444 56.7654 10.7618 58.0046C10.3565 56.3243 9.83094 54.6748 9.18921 53.0689C8.43269 50.8231 6.82986 48.9564 4.7178 47.8613C4.7178 47.8613 3.92478 53.708 5.82547 57.6375C6.54385 59.3787 7.69682 60.909 9.17553 62.0837Z" fill="white"/>
<path d="M12.6344 49.4248C12.699 49.5306 12.7844 49.6224 12.8854 49.6949C12.9864 49.7673 13.101 49.8188 13.2224 49.8463C13.4381 49.9685 13.6929 50.0026 13.9333 49.9415C15.6995 49.8085 17.425 49.3473 19.0202 48.5818C21.4744 47.3321 23.7167 45.7079 25.6657 43.7685C24.6807 43.2429 23.5942 42.9323 22.4789 42.8573C21.3636 42.7822 20.2452 42.9445 19.1979 43.3334C17.6441 43.8969 16.1937 44.71 14.9043 45.7401C14.8104 44.0081 14.5864 42.2856 14.2343 40.5868C13.901 38.2308 12.6606 36.0956 10.7747 34.6313C10.7747 34.6313 8.92874 40.2333 10.1047 44.4483C10.5081 46.2942 11.3788 48.0072 12.6344 49.4248Z" fill="white"/>
<path d="M18.2953 37.6091C18.3383 37.7258 18.4055 37.8321 18.4927 37.9211C18.5799 38.0102 18.6851 38.0799 18.8012 38.1258C18.8939 38.2077 19.0021 38.2704 19.1195 38.3101C19.2369 38.3498 19.3612 38.3657 19.4849 38.3569C21.2661 38.5373 23.0654 38.3851 24.7904 37.9083C27.4599 37.1392 29.9959 35.9701 32.3111 34.4411C31.4322 33.7336 30.4116 33.2209 29.3174 32.9372C28.2232 32.6535 27.0807 32.6053 25.9663 32.7958C24.32 33.0558 22.7269 33.5793 21.2489 34.3459C21.4722 32.6281 21.5818 30.8975 21.577 29.1654C21.6944 26.7927 20.8805 24.4673 19.3071 22.6797C19.3071 22.6797 16.3535 27.8193 16.7364 32.1975C16.785 34.1038 17.3215 35.9663 18.2953 37.6091Z" fill="white"/>
<path d="M26.569 27.7784C26.7275 27.9673 26.9524 28.0889 27.1979 28.1184C28.9425 28.6398 30.7703 28.8289 32.5854 28.6758C35.4185 28.4284 38.2006 27.7734 40.8445 26.7315C40.0951 25.8634 39.1687 25.1636 38.1268 24.6784C37.0848 24.1932 35.951 23.9336 34.8006 23.9169C33.0948 23.8723 31.3925 24.0925 29.755 24.5696C30.3106 22.921 30.7672 21.2411 31.1224 19.5387C31.435 18.4029 31.5162 17.2164 31.3612 16.0489C31.2062 14.8814 30.8182 13.7565 30.2198 12.7402C30.2198 12.7402 26.1177 17.2272 25.6528 21.5782C25.3047 23.457 25.4602 25.3938 26.1039 27.1938C26.1386 27.317 26.1976 27.4322 26.2774 27.5325C26.3572 27.6329 26.4564 27.7165 26.569 27.7784Z" fill="white"/>
<path d="M36.5638 19.0902C36.677 19.2798 36.8575 19.4205 37.0697 19.4846C38.7435 20.3195 40.5544 20.8491 42.4163 21.0482C45.3961 21.3314 48.401 21.2033 51.3454 20.6675C50.7599 19.657 49.9598 18.7856 49.001 18.114C48.0422 17.4424 46.9477 16.9867 45.7937 16.7787C44.0572 16.3998 42.2722 16.2897 40.5019 16.4524C41.4599 14.9527 42.3231 13.3951 43.0863 11.7887C43.6707 10.7652 44.0311 9.63066 44.1442 8.45913C44.2573 7.28761 44.1205 6.10554 43.7426 4.99023C43.7426 4.99023 38.5054 8.60699 37.0423 12.7812C36.28 14.5256 36.006 16.4424 36.2493 18.3288C36.243 18.4708 36.2678 18.6125 36.3221 18.744C36.3764 18.8755 36.4589 18.9936 36.5638 19.0902Z" fill="white"/>
<path d="M48.7066 12.414C48.7819 12.6238 48.9331 12.7983 49.1306 12.9035C50.6845 14.0583 52.4354 14.9243 54.2992 15.4597C57.3722 16.3153 60.5435 16.7723 63.7343 16.8194C63.3547 15.6922 62.7195 14.6669 61.8778 13.8229C61.0361 12.9788 60.0103 12.3386 58.88 11.9517C57.1358 11.2277 55.2919 10.7693 53.4104 10.592C54.763 9.30525 56.0413 7.94338 57.2391 6.51293C60.2337 3.05931 59.7005 -2.06847e-05 59.6595 -0.0136176C59.6184 -0.0272145 53.2189 2.51544 50.6892 6.30899C49.4928 7.83273 48.7535 9.66138 48.5562 11.5846C48.5086 11.7242 48.4973 11.8735 48.5236 12.0186C48.55 12.1637 48.6129 12.2997 48.7066 12.414Z" fill="white"/>
<path d="M85.6539 146.928C83.7887 146.061 81.8705 145.312 79.9108 144.685C81.6893 143.863 83.32 142.755 84.7377 141.408C85.632 140.645 86.3197 139.672 86.7377 138.577C87.1558 137.482 87.2909 136.3 87.1307 135.14C84.0829 136.42 81.1813 138.02 78.4751 139.912C77.615 140.578 76.7889 141.286 76 142.033C75.2112 141.286 74.3852 140.578 73.5251 139.912C70.8205 138.017 67.9185 136.417 64.8694 135.14C64.713 136.3 64.85 137.481 65.2678 138.575C65.6856 139.669 66.371 140.643 67.2623 141.408C68.6825 142.752 70.3127 143.859 72.0893 144.685C70.1296 145.312 68.2115 146.061 66.3463 146.928C61.9022 148.968 61.0954 151.973 61.1227 152C61.1501 152.027 68.2606 152.081 72.8414 149.593C73.9642 149.016 75.0228 148.323 76 147.526C76.9818 148.317 78.0399 149.01 79.1588 149.593C83.7396 152.081 90.932 152.041 90.8773 152C90.8226 151.959 90.0706 148.968 85.6539 146.928Z" fill="white"/>
<path d="M101.133 143.244C99.2815 142.737 97.3999 142.346 95.4991 142.074C96.8937 140.922 98.0819 139.542 99.0135 137.995C99.6308 137.033 100.014 135.941 100.133 134.806C100.251 133.67 100.102 132.523 99.6972 131.455C97.2463 133.242 95.0278 135.325 93.0925 137.655C91.888 139.102 90.961 140.757 90.3577 142.537C90.2858 142.663 90.248 142.806 90.248 142.951C90.248 143.097 90.2858 143.239 90.3577 143.366C90.3985 143.587 90.5203 143.786 90.6996 143.923C92.1846 145.376 94.0141 146.433 96.0188 146.996C100.641 148.614 107.081 147.296 107.04 147.255C106.999 147.214 105.591 144.454 101.133 143.244Z" fill="white"/>
<path d="M114.328 136.867C112.509 136.702 110.682 136.657 108.858 136.731C109.881 135.335 110.658 133.777 111.155 132.122C111.502 131.038 111.606 129.893 111.46 128.765C111.313 127.637 110.92 126.555 110.307 125.595C108.435 127.795 106.871 130.238 105.658 132.856C104.875 134.524 104.411 136.322 104.291 138.159C104.259 138.278 104.253 138.404 104.274 138.526C104.296 138.648 104.343 138.764 104.414 138.866C104.45 138.987 104.511 139.099 104.593 139.195C104.676 139.291 104.778 139.369 104.892 139.423C106.511 140.556 108.394 141.258 110.362 141.463C114.943 142.224 120.604 139.777 120.563 139.736C118.945 138.001 116.705 136.97 114.328 136.867Z" fill="white"/>
<path d="M125.24 128.26C123.504 128.422 121.781 128.708 120.085 129.116C120.745 127.546 121.138 125.878 121.248 124.181C121.348 123.047 121.203 121.904 120.823 120.83C120.444 119.756 119.838 118.775 119.046 117.953C117.741 120.457 116.793 123.13 116.229 125.894C115.878 127.688 115.855 129.53 116.161 131.332C116.162 131.457 116.188 131.58 116.237 131.694C116.286 131.809 116.358 131.912 116.448 131.999C116.506 132.11 116.587 132.208 116.686 132.286C116.785 132.363 116.9 132.418 117.022 132.447C118.763 133.274 120.694 133.621 122.615 133.454C127.059 133.372 131.913 129.932 131.872 129.905C129.968 128.505 127.583 127.913 125.24 128.26Z" fill="white"/>
<path d="M133.827 117.831C132.195 118.309 130.6 118.904 129.055 119.612C129.361 117.947 129.398 116.244 129.164 114.568C129.036 113.435 128.67 112.341 128.091 111.358C127.511 110.374 126.731 109.522 125.8 108.857C125.03 111.563 124.657 114.366 124.693 117.178C124.73 119.004 125.091 120.808 125.759 122.508C125.813 122.753 125.96 122.968 126.17 123.107C126.245 123.206 126.342 123.289 126.453 123.347C126.564 123.406 126.687 123.44 126.812 123.446C128.628 123.953 130.549 123.953 132.364 123.446C136.589 122.549 140.568 118.28 140.568 118.266C139.532 117.747 138.4 117.441 137.242 117.366C136.084 117.292 134.922 117.45 133.827 117.831Z" fill="white"/>
<path d="M140.227 105.933C138.721 106.702 137.277 107.584 135.906 108.571C135.889 106.879 135.608 105.2 135.072 103.595C134.731 102.512 134.168 101.511 133.42 100.655C132.672 99.7988 131.754 99.1053 130.723 98.6182C130.472 101.418 130.633 104.24 131.202 106.994C131.593 108.787 132.297 110.499 133.281 112.052C133.373 112.248 133.527 112.41 133.718 112.514C133.824 112.612 133.949 112.685 134.086 112.73C134.223 112.774 134.368 112.789 134.511 112.773C136.359 112.889 138.204 112.513 139.858 111.685C143.782 110.026 146.914 105.09 146.873 105.077C145.764 104.77 144.604 104.688 143.462 104.835C142.321 104.982 141.221 105.356 140.227 105.933Z" fill="white"/>
<path d="M144.288 93.0976C142.953 94.1387 141.696 95.2747 140.527 96.4969C140.205 94.8419 139.628 93.246 138.818 91.7651C138.292 90.7707 137.565 89.8951 136.683 89.1932C135.8 88.4913 134.782 87.9782 133.69 87.686C133.91 90.4889 134.565 93.241 135.632 95.8442C136.332 97.5283 137.327 99.0753 138.572 100.413C138.711 100.624 138.926 100.775 139.174 100.834C139.28 100.896 139.398 100.935 139.521 100.949C139.643 100.963 139.767 100.952 139.885 100.916C141.732 100.703 143.486 99.9929 144.958 98.8627C148.499 96.4968 150.701 91.0581 150.673 91.0581C149.526 90.957 148.37 91.0854 147.273 91.4356C146.176 91.7859 145.161 92.351 144.288 93.0976Z" fill="white"/>
<path d="M142.962 83.7569C142.355 82.1914 141.516 80.7248 140.473 79.4059C139.787 78.5213 138.921 77.7905 137.931 77.261C136.942 76.7316 135.851 76.4154 134.73 76.333C135.427 79.0378 136.539 81.6197 138.026 83.988C139 85.5147 140.246 86.8511 141.704 87.9312C141.875 88.1123 142.111 88.2196 142.36 88.2303C142.473 88.2782 142.594 88.3028 142.716 88.3028C142.838 88.3028 142.959 88.2782 143.072 88.2303C144.855 87.6721 146.456 86.6485 147.707 85.2662C150.784 82.2748 152.042 76.5097 152.001 76.5233C150.856 76.6489 149.748 76.9997 148.741 77.5553C147.734 78.1109 146.848 78.8601 146.135 79.7594C144.98 81.0129 143.92 82.349 142.962 83.7569Z" fill="white"/>
<path d="M145.587 66.1625C144.678 67.6255 143.879 69.1524 143.194 70.7311C142.347 69.2982 141.276 68.0085 140.021 66.9103C139.196 66.1622 138.217 65.601 137.152 65.2654C136.088 64.9297 134.963 64.8276 133.854 64.966C134.982 67.4945 136.51 69.8266 138.38 71.8732C139.596 73.193 141.047 74.2765 142.66 75.0685C142.862 75.2141 143.111 75.2773 143.358 75.2452C143.606 75.2749 143.857 75.2066 144.055 75.0549C145.737 74.1807 147.153 72.8758 148.157 71.275C150.687 67.767 150.892 61.8523 150.892 61.8795C148.624 62.5538 146.716 64.0937 145.587 66.1625Z" fill="white"/>
<path d="M137.464 54.7822C136.515 54.1987 135.45 53.8272 134.343 53.6934C133.236 53.5596 132.112 53.6666 131.051 54.0071C132.604 56.2774 134.51 58.2876 136.698 59.9626C138.123 61.034 139.737 61.8317 141.457 62.3149C141.685 62.4057 141.94 62.4057 142.168 62.3149C142.418 62.2965 142.653 62.1848 142.824 62.0021C144.313 60.8259 145.468 59.284 146.174 57.5287C148.075 53.5992 147.323 47.7253 147.282 47.7525C145.172 48.8469 143.573 50.7146 142.824 52.9602C142.172 54.5637 141.642 56.2136 141.238 57.8959C140.156 56.6631 138.882 55.6117 137.464 54.7822Z" fill="white"/>
<path d="M132.802 43.279C131.755 42.8902 130.636 42.7278 129.521 42.8028C128.405 42.8779 127.319 43.1885 126.334 43.7141C128.283 45.6535 130.525 47.2776 132.98 48.5274C134.579 49.2948 136.309 49.756 138.08 49.8871C138.32 49.9121 138.563 49.8781 138.787 49.788C139.011 49.6979 139.21 49.5545 139.365 49.3704C140.629 47.9373 141.5 46.2047 141.895 44.3395C143.071 40.1245 141.252 34.4954 141.225 34.5226C139.343 35.9906 138.104 38.1239 137.765 40.478C137.42 42.1778 137.196 43.8999 137.095 45.6312C135.804 44.6175 134.353 43.8227 132.802 43.279Z" fill="white"/>
<path d="M126.047 32.8498C124.93 32.6591 123.786 32.7071 122.689 32.9908C121.593 33.2745 120.57 33.7873 119.688 34.4951C122.005 36.0211 124.541 37.1901 127.209 37.9623C128.939 38.4393 130.743 38.5914 132.528 38.411C132.769 38.3858 133.001 38.3051 133.205 38.1753C133.409 38.0455 133.58 37.8701 133.704 37.6632C134.689 36.0151 135.226 34.141 135.263 32.2244C135.646 27.8598 132.733 22.7065 132.692 22.7065C131.119 24.4933 130.309 26.8206 130.436 29.1923C130.427 30.924 130.532 32.6545 130.751 34.3727C129.275 33.6176 127.687 33.1034 126.047 32.8498Z" fill="white"/>
<path d="M111.143 26.7313C113.766 27.7843 116.53 28.453 119.347 28.7165C121.162 28.8702 122.99 28.6811 124.734 28.159C124.98 28.1295 125.205 28.0079 125.364 27.8191C125.468 27.7497 125.558 27.6595 125.626 27.5542C125.694 27.449 125.74 27.3308 125.76 27.2072C126.413 25.4094 126.573 23.4714 126.225 21.5917C125.719 17.2407 121.671 12.7129 121.644 12.7537C121.046 13.77 120.659 14.8955 120.506 16.0633C120.354 17.2311 120.438 18.4175 120.755 19.5522C121.104 21.256 121.561 22.9363 122.123 24.583C120.486 24.1031 118.783 23.8828 117.077 23.9304C115.945 23.9555 114.832 24.218 113.809 24.7007C112.786 25.1834 111.878 25.8753 111.143 26.7313Z" fill="white"/>
<path d="M106.206 16.7785C105.066 16.9949 103.986 17.4546 103.042 18.1259C102.098 18.7973 101.311 19.6644 100.736 20.6673C103.676 21.2034 106.676 21.3315 109.652 21.048C111.513 20.8489 113.324 20.3193 114.998 19.4843C115.21 19.4203 115.391 19.2796 115.504 19.09C115.611 18.9919 115.694 18.8716 115.749 18.7376C115.803 18.6036 115.827 18.4592 115.819 18.315C116.062 16.4285 115.788 14.5118 115.026 12.7675C113.562 8.59321 108.353 4.93562 108.325 4.97641C107.952 6.09309 107.819 7.27526 107.934 8.44639C108.05 9.61752 108.411 10.7515 108.995 11.7749C109.754 13.3809 110.613 14.9385 111.566 16.4386C109.772 16.2735 107.964 16.3882 106.206 16.7785Z" fill="white"/>
<path d="M102.869 12.9038C103.067 12.7986 103.218 12.6242 103.293 12.4144C103.382 12.3003 103.442 12.1661 103.465 12.0236C103.489 11.8812 103.477 11.7351 103.43 11.5985C103.233 9.67535 102.493 7.84666 101.297 6.32292C98.7671 2.52937 92.3678 -0.0540334 92.3405 0.000354339C92.3131 0.054742 91.7525 3.07328 94.7471 6.5269C95.9449 7.95735 97.2231 9.31922 98.5757 10.606C96.6937 10.7806 94.8494 11.2391 93.1061 11.9657C91.9733 12.3508 90.9448 12.9902 90.1006 13.8343C89.2564 14.6785 88.6192 15.7047 88.2383 16.8334C91.4292 16.7875 94.6007 16.3305 97.6734 15.4737C99.5477 14.9372 101.308 14.0664 102.869 12.9038Z" fill="white"/>
</g>
<path d="M33.2835 75.7257V71.0904L42.1872 63.7666C42.7776 63.2799 43.2826 62.8241 43.7022 62.3992C44.1295 61.9666 44.4558 61.5224 44.6811 61.0666C44.9142 60.6108 45.0307 60.1047 45.0307 59.5485C45.0307 58.9382 44.8987 58.4167 44.6345 57.9841C44.3781 57.5514 44.0207 57.2192 43.5623 56.9875C43.1039 56.748 42.5756 56.6282 41.9774 56.6282C41.3792 56.6282 40.8508 56.748 40.3925 56.9875C39.9418 57.227 39.5922 57.5785 39.3436 58.042C39.095 58.5055 38.9707 59.0695 38.9707 59.7339H32.8174C32.8174 58.0652 33.1942 56.6282 33.9478 55.4231C34.7014 54.2179 35.7658 53.2908 37.141 52.6419C38.5162 51.9929 40.1283 51.6685 41.9774 51.6685C43.8886 51.6685 45.5435 51.9736 46.942 52.5839C48.3482 53.1865 49.4321 54.0363 50.1934 55.1334C50.9626 56.2304 51.3472 57.5167 51.3472 58.9923C51.3472 59.9039 51.1568 60.8116 50.7761 61.7155C50.3954 62.6117 49.7117 63.6044 48.725 64.6937C47.7383 65.783 46.336 67.0809 44.518 68.5874L42.2804 70.4415V70.5805H51.6036V75.7257H33.2835Z" fill="white"/>
<path d="M65.059 76.3747C62.8914 76.367 61.019 75.8687 59.4418 74.8798C57.8646 73.8909 56.6487 72.4656 55.7941 70.6037C54.9395 68.7419 54.5161 66.5092 54.5238 63.9057C54.5316 61.2945 54.9589 59.0772 55.8058 57.254C56.6604 55.4308 57.8724 54.0441 59.4418 53.0938C61.019 52.1436 62.8914 51.6685 65.059 51.6685C67.2266 51.6685 69.099 52.1474 70.6762 53.1054C72.2534 54.0556 73.4693 55.4424 74.3239 57.2656C75.1785 59.0888 75.602 61.3022 75.5942 63.9057C75.5942 66.5246 75.1669 68.765 74.3123 70.6269C73.4576 72.4887 72.2417 73.9141 70.6646 74.903C69.0952 75.8841 67.2266 76.3747 65.059 76.3747ZM65.059 71.1368C66.1778 71.1368 67.0946 70.5574 67.8093 69.3985C68.5319 68.232 68.8893 66.401 68.8815 63.9057C68.8815 62.2756 68.7183 60.943 68.392 59.9077C68.0657 58.8725 67.6151 58.1077 67.0402 57.6132C66.4652 57.1111 65.8049 56.86 65.059 56.86C63.9402 56.86 63.0273 57.424 62.3203 58.5519C61.6133 59.6798 61.252 61.4644 61.2365 63.9057C61.2287 65.5667 61.388 66.9341 61.7143 68.0079C62.0406 69.0741 62.4912 69.8621 63.0662 70.372C63.6489 70.8818 64.3132 71.1368 65.059 71.1368Z" fill="white"/>
<path d="M78.8 75.7257V71.0904L87.7036 63.7666C88.2941 63.2799 88.7991 62.8241 89.2186 62.3992C89.6459 61.9666 89.9722 61.5224 90.1975 61.0666C90.4306 60.6108 90.5472 60.1047 90.5472 59.5485C90.5472 58.9382 90.4151 58.4167 90.1509 57.9841C89.8945 57.5514 89.5372 57.2192 89.0788 56.9875C88.6204 56.748 88.0921 56.6282 87.4938 56.6282C86.8956 56.6282 86.3673 56.748 85.9089 56.9875C85.4583 57.227 85.1086 57.5785 84.86 58.042C84.6114 58.5055 84.4871 59.0695 84.4871 59.7339H78.3338C78.3338 58.0652 78.7106 56.6282 79.4642 55.4231C80.2179 54.2179 81.2823 53.2908 82.6574 52.6419C84.0326 51.9929 85.6447 51.6685 87.4938 51.6685C89.4051 51.6685 91.0599 51.9736 92.4584 52.5839C93.8647 53.1865 94.9485 54.0363 95.7099 55.1334C96.479 56.2304 96.8636 57.5167 96.8636 58.9923C96.8636 59.9039 96.6733 60.8116 96.2926 61.7155C95.9119 62.6117 95.2282 63.6044 94.2415 64.6937C93.2548 65.783 91.8524 67.0809 90.0344 68.5874L87.7968 70.4415V70.5805H97.12V75.7257H78.8Z" fill="white"/>
<path d="M109.503 76.0502C107.623 76.0502 105.953 75.7296 104.492 75.0884C103.039 74.4394 101.897 73.5471 101.066 72.4115C100.234 71.2758 99.8149 69.9702 99.8072 68.4946H106.333C106.341 68.9505 106.481 69.3599 106.753 69.723C107.033 70.0784 107.413 70.3565 107.895 70.5574C108.377 70.7582 108.928 70.8587 109.55 70.8587C110.148 70.8587 110.676 70.7544 111.135 70.5458C111.593 70.3295 111.951 70.032 112.207 69.6535C112.463 69.2749 112.588 68.8423 112.58 68.3556C112.588 67.8766 112.44 67.4517 112.137 67.0809C111.842 66.7101 111.426 66.4203 110.89 66.2118C110.354 66.0032 109.736 65.8989 109.037 65.8989H106.613V61.449H109.037C109.682 61.449 110.249 61.3447 110.739 61.1361C111.236 60.9275 111.62 60.6378 111.892 60.267C112.172 59.8961 112.308 59.4712 112.3 58.9923C112.308 58.5287 112.195 58.1193 111.962 57.7639C111.729 57.4085 111.403 57.1304 110.983 56.9295C110.572 56.7287 110.094 56.6282 109.55 56.6282C108.959 56.6282 108.431 56.7325 107.965 56.9411C107.507 57.1497 107.145 57.4394 106.881 57.8102C106.617 58.1811 106.481 58.606 106.473 59.085H100.273C100.281 57.6326 100.681 56.3501 101.474 55.2376C102.274 54.1252 103.369 53.2522 104.76 52.6187C106.151 51.9852 107.747 51.6685 109.55 51.6685C111.314 51.6685 112.871 51.9659 114.223 52.5608C115.583 53.1556 116.643 53.9745 117.405 55.0175C118.174 56.0527 118.555 57.2386 118.547 58.5751C118.562 59.9039 118.104 60.9932 117.172 61.843C116.247 62.6928 115.074 63.1949 113.652 63.3495V63.5349C115.579 63.7435 117.028 64.3306 117.999 65.2963C118.97 66.2542 119.448 67.4594 119.432 68.9118C119.44 70.3024 119.021 71.5346 118.174 72.6085C117.335 73.6823 116.165 74.5244 114.666 75.1347C113.174 75.7451 111.453 76.0502 109.503 76.0502Z" fill="white"/>
<path d="M47.2006 101.333H43.6367L47.652 89.7524H52.1662L56.1815 101.333H52.6176L49.9566 92.9417H49.8616L47.2006 101.333ZM46.5353 96.7643H53.2353V99.1167H46.5353V96.7643Z" fill="white"/>
<path d="M59.1043 101.333L55.5167 89.7524H59.1993L60.8624 96.8774H60.9575L62.9295 89.7524H65.8281L67.8001 96.9001H67.8951L69.5582 89.7524H73.2409L69.6533 101.333H66.4933L64.4263 94.8643H64.3313L62.2642 101.333H59.1043Z" fill="white"/>
<path d="M76.1325 101.333H72.5687L76.5839 89.7524H81.0981L85.1134 101.333H81.5496L78.8886 92.9417H78.7935L76.1325 101.333ZM75.4673 96.7643H82.1673V99.1167H75.4673V96.7643Z" fill="white"/>
<path d="M86.3687 101.333V89.7524H91.6194C92.5222 89.7524 93.3122 89.9089 93.9893 90.2218C94.6665 90.5347 95.1931 90.9852 95.5693 91.5733C95.9455 92.1614 96.1336 92.8663 96.1336 93.6882C96.1336 94.5175 95.9396 95.2168 95.5515 95.7861C95.1674 96.3553 94.6269 96.7851 93.9299 97.0754C93.237 97.3656 92.4272 97.5108 91.5006 97.5108H88.3644V95.0679H90.8353C91.2234 95.0679 91.554 95.0227 91.8273 94.9322C92.1045 94.838 92.3163 94.689 92.4628 94.4855C92.6133 94.2819 92.6885 94.0161 92.6885 93.6882C92.6885 93.3564 92.6133 93.0869 92.4628 92.8795C92.3163 92.6684 92.1045 92.5139 91.8273 92.4158C91.554 92.314 91.2234 92.2632 90.8353 92.2632H89.6712V101.333H86.3687ZM93.4963 96.0179L96.5375 101.333H92.9499L89.98 96.0179H93.4963Z" fill="white"/>
<path d="M102.305 101.333H97.6249V89.7524H102.258C103.509 89.7524 104.59 89.9843 105.501 90.448C106.416 90.9079 107.121 91.5714 107.616 92.4385C108.115 93.3017 108.364 94.3366 108.364 95.5429C108.364 96.7493 108.117 97.786 107.622 98.653C107.127 99.5163 106.426 100.18 105.519 100.644C104.612 101.103 103.541 101.333 102.305 101.333ZM100.927 98.6643H102.187C102.789 98.6643 103.301 98.572 103.725 98.3873C104.153 98.2025 104.477 97.884 104.699 97.4316C104.925 96.9792 105.038 96.3497 105.038 95.5429C105.038 94.7362 104.923 94.1066 104.693 93.6542C104.468 93.2018 104.135 92.8833 103.695 92.6986C103.26 92.5139 102.725 92.4215 102.092 92.4215H100.927V98.6643Z" fill="white"/>
<defs>
<clipPath id="clip0_159_6190">
<rect width="152" height="152" fill="white"/>
</clipPath>
</defs>
</svg>
