<svg width="20" height="21" viewBox="0 0 20 21" fill="none" xmlns="http://www.w3.org/2000/svg">
<path d="M14.4137 11.1632L8.16374 17.4132C7.98762 17.5894 7.74874 17.6883 7.49967 17.6883C7.2506 17.6883 7.01173 17.5894 6.83561 17.4132C6.65949 17.2371 6.56055 16.9983 6.56055 16.7492C6.56055 16.5001 6.65949 16.2612 6.83561 16.0851L12.4223 10.5L6.83717 4.91325C6.74997 4.82604 6.68079 4.72251 6.6336 4.60857C6.5864 4.49463 6.56211 4.37251 6.56211 4.24918C6.56211 4.12586 6.5864 4.00374 6.6336 3.8898C6.68079 3.77586 6.74997 3.67233 6.83717 3.58512C6.92438 3.49792 7.02791 3.42874 7.14185 3.38155C7.25579 3.33435 7.37791 3.31006 7.50124 3.31006C7.62456 3.31006 7.74668 3.33435 7.86062 3.38155C7.97456 3.42874 8.07809 3.49792 8.1653 3.58512L14.4153 9.83512C14.5026 9.92232 14.5718 10.0259 14.619 10.1399C14.6662 10.2539 14.6904 10.3761 14.6903 10.4995C14.6901 10.6229 14.6656 10.745 14.6182 10.8589C14.5707 10.9728 14.5012 11.0763 14.4137 11.1632Z" fill="white"/>
</svg>
