<svg width="60" height="61" viewBox="0 0 60 61" fill="none" xmlns="http://www.w3.org/2000/svg">
<g clip-path="url(#clip0_159_7387)">
<path d="M17.2803 21.2273H34.5283" stroke="white" stroke-width="5" stroke-linecap="round" stroke-linejoin="round"/>
<path d="M17.2803 29.2273H29.2598" stroke="white" stroke-width="5" stroke-linecap="round" stroke-linejoin="round"/>
<path d="M17.2798 37.2273H22.6675" stroke="white" stroke-width="5" stroke-linecap="round" stroke-linejoin="round"/>
<path fill-rule="evenodd" clip-rule="evenodd" d="M44.0229 34.3827C38.4036 34.3827 33.8481 38.9381 33.8481 44.5575C33.8481 50.1769 38.4036 54.7323 44.0229 54.7323C49.6423 54.7323 54.1978 50.1769 54.1978 44.5575C54.1978 38.9381 49.6423 34.3827 44.0229 34.3827ZM28.8481 44.5575C28.8481 36.1767 35.6421 29.3827 44.0229 29.3827C52.4038 29.3827 59.1978 36.1767 59.1978 44.5575C59.1978 52.9383 52.4038 59.7323 44.0229 59.7323C35.6421 59.7323 28.8481 52.9383 28.8481 44.5575Z" fill="white"/>
<path d="M39.0508 45.7134L42.3524 49.015L48.9557 42.4117" stroke="white" stroke-width="5" stroke-linecap="round" stroke-linejoin="round"/>
<path fill-rule="evenodd" clip-rule="evenodd" d="M10.4883 49.1265V9.12646H31.3277L42.9883 20.787V30.8603C43.2952 30.8399 43.6049 30.8296 43.917 30.8296C45.334 30.8296 46.7012 31.0429 47.9883 31.4392V19.7515C47.9883 19.0884 47.7249 18.4525 47.2561 17.9837L34.131 4.8587C33.6622 4.38986 33.0263 4.12646 32.3633 4.12646H9.86328C8.70296 4.12646 7.59016 4.5874 6.76969 5.40787C5.94922 6.22834 5.48828 7.34114 5.48828 8.50146V49.7515C5.48828 50.9118 5.94922 52.0246 6.76969 52.8451C7.59016 53.6655 8.70296 54.1265 9.86328 54.1265H33.8641C32.5274 52.7094 31.4869 51.0097 30.8419 49.1265H10.4883Z" fill="white"/>
</g>
<defs>
<clipPath id="clip0_159_7387">
<rect width="60" height="60" fill="white" transform="translate(0 0.5)"/>
</clipPath>
</defs>
</svg>
