<svg width="60" height="60" viewBox="0 0 60 60" fill="none" xmlns="http://www.w3.org/2000/svg">
<g clip-path="url(#clip0_159_7751)">
<path d="M46.1299 19.42C50.5261 19.42 54.0899 15.8562 54.0899 11.46C54.0899 7.06381 50.5261 3.5 46.1299 3.5C41.7337 3.5 38.1699 7.06381 38.1699 11.46C38.1699 15.8562 41.7337 19.42 46.1299 19.42Z" stroke="white" stroke-width="5" stroke-linecap="round" stroke-linejoin="round"/>
<path d="M51.7598 17.09L56.3698 21.7" stroke="white" stroke-width="5" stroke-linecap="round" stroke-linejoin="round"/>
<path d="M33.2799 40.88C33.2799 46.96 32.01 49.99 29.7 55.62" stroke="white" stroke-width="5" stroke-linecap="round" stroke-linejoin="round"/>
<path d="M30.81 31.67C27.37 27.83 21.48 27.5 17.63 30.93C15.65 32.7 14.52 35.23 14.52 37.89C14.52 42.63 13.32 47.3 11.02 51.45" stroke="white" stroke-width="5" stroke-linecap="round" stroke-linejoin="round"/>
<path d="M17.6299 20.29C27.3599 16.86 38.0199 21.97 41.4499 31.7C42.1499 33.69 42.5099 35.78 42.5099 37.89C42.5099 42.08 42.0499 46.25 41.1199 50.33" stroke="white" stroke-width="5" stroke-linecap="round" stroke-linejoin="round"/>
<path d="M3.5 45.67C4.62 43.23 5.2 40.58 5.19 37.89C5.19 32.58 7 28.5 10.5 25" stroke="white" stroke-width="5" stroke-linecap="round" stroke-linejoin="round"/>
<path d="M20.4699 53.44C20.0799 54.3 19.6599 55.14 19.1899 55.97" stroke="white" stroke-width="5" stroke-linecap="round" stroke-linejoin="round"/>
<path d="M23.85 37.89C23.85 41.04 24.05 42.29 23.27 45.34" stroke="white" stroke-width="5" stroke-linecap="round" stroke-linejoin="round"/>
</g>
<defs>
<clipPath id="clip0_159_7751">
<rect width="57.87" height="57.47" fill="white" transform="translate(1 1)"/>
</clipPath>
</defs>
</svg>
