<svg width="108" height="38" viewBox="0 0 108 38" fill="none" xmlns="http://www.w3.org/2000/svg">
<rect y="1" width="36" height="36" rx="18" fill="white"/>
<path d="M19.325 11.3455C18.5143 10.8388 17.4857 10.8388 16.675 11.3455L11.675 14.4705C10.944 14.9273 10.5 15.7285 10.5 16.5905V21.4096C10.5 22.2716 10.944 23.0728 11.675 23.5296L16.675 26.6546C17.4857 27.1613 18.5143 27.1613 19.325 26.6546L24.325 23.5296C25.056 23.0728 25.5 22.2716 25.5 21.4096V16.5905C25.5 15.7285 25.056 14.9273 24.325 14.4705L19.325 11.3455Z" fill="#0B0C0D" stroke="#0B0C0D" stroke-width="1.5" stroke-linecap="round"/>
<path d="M49.125 27.5V10.0455H53.8636V23.6818H60.9205V27.5H49.125ZM69.2109 27.7386C67.7905 27.7386 66.5746 27.4574 65.5632 26.8949C64.5518 26.3267 63.7763 25.5369 63.2365 24.5256C62.6967 23.5085 62.4268 22.3295 62.4268 20.9886C62.4268 19.6477 62.6967 18.4716 63.2365 17.4602C63.7763 16.4432 64.5518 15.6534 65.5632 15.0909C66.5746 14.5227 67.7905 14.2386 69.2109 14.2386C70.6314 14.2386 71.8473 14.5227 72.8587 15.0909C73.87 15.6534 74.6456 16.4432 75.1854 17.4602C75.7251 18.4716 75.995 19.6477 75.995 20.9886C75.995 22.3295 75.7251 23.5085 75.1854 24.5256C74.6456 25.5369 73.87 26.3267 72.8587 26.8949C71.8473 27.4574 70.6314 27.7386 69.2109 27.7386ZM69.245 24.2614C69.6428 24.2614 69.9865 24.1278 70.2763 23.8608C70.5661 23.5937 70.7905 23.2131 70.9496 22.7188C71.1087 22.2244 71.1882 21.6364 71.1882 20.9545C71.1882 20.267 71.1087 19.679 70.9496 19.1903C70.7905 18.696 70.5661 18.3153 70.2763 18.0483C69.9865 17.7812 69.6428 17.6477 69.245 17.6477C68.8246 17.6477 68.4638 17.7812 68.1626 18.0483C67.8615 18.3153 67.6314 18.696 67.4723 19.1903C67.3132 19.679 67.2337 20.267 67.2337 20.9545C67.2337 21.6364 67.3132 22.2244 67.4723 22.7188C67.6314 23.2131 67.8615 23.5937 68.1626 23.8608C68.4638 24.1278 68.8246 24.2614 69.245 24.2614ZM84.2109 32.6818C82.8984 32.6818 81.7734 32.4943 80.8359 32.1193C79.9041 31.75 79.1797 31.2386 78.6626 30.5852C78.1513 29.9375 77.8643 29.1932 77.8018 28.3523H82.3359C82.3814 28.6307 82.495 28.8551 82.6768 29.0256C82.8587 29.196 83.0916 29.3182 83.3757 29.392C83.6655 29.4716 83.9893 29.5114 84.3473 29.5114C84.9553 29.5114 85.4581 29.3636 85.8558 29.0682C86.2592 28.7727 86.4609 28.2386 86.4609 27.4659V25.25H86.3246C86.1541 25.6932 85.8928 26.071 85.5405 26.3835C85.1882 26.6903 84.7649 26.9261 84.2706 27.0909C83.7763 27.25 83.2337 27.3295 82.6428 27.3295C81.7109 27.3295 80.853 27.1136 80.0689 26.6818C79.2905 26.25 78.6655 25.5653 78.1939 24.6278C77.728 23.6903 77.495 22.4659 77.495 20.9545C77.495 19.375 77.7393 18.0909 78.228 17.1023C78.7223 16.1136 79.3587 15.3892 80.1371 14.929C80.9212 14.4688 81.745 14.2386 82.6087 14.2386C83.2564 14.2386 83.8246 14.3523 84.3132 14.5795C84.8018 14.8011 85.2109 15.0994 85.5405 15.4744C85.87 15.8437 86.12 16.25 86.2905 16.6932H86.3928V14.4091H91.0973V27.4659C91.0973 28.5739 90.8104 29.5142 90.2365 30.2869C89.6683 31.0653 88.8672 31.6591 87.8331 32.0682C86.799 32.4773 85.5916 32.6818 84.2109 32.6818ZM84.3814 23.9886C84.8132 23.9886 85.1825 23.8693 85.4893 23.6307C85.8018 23.3864 86.0405 23.0398 86.2053 22.5909C86.3757 22.1364 86.4609 21.5909 86.4609 20.9545C86.4609 20.3068 86.3757 19.7528 86.2053 19.2926C86.0405 18.8267 85.8018 18.4716 85.4893 18.2273C85.1825 17.9773 84.8132 17.8523 84.3814 17.8523C83.9496 17.8523 83.5803 17.9773 83.2734 18.2273C82.9723 18.4716 82.7393 18.8267 82.5746 19.2926C82.4155 19.7528 82.3359 20.3068 82.3359 20.9545C82.3359 21.6023 82.4155 22.1534 82.5746 22.608C82.7393 23.0568 82.9723 23.4006 83.2734 23.6392C83.5803 23.8722 83.9496 23.9886 84.3814 23.9886ZM99.7969 27.7386C98.3764 27.7386 97.1605 27.4574 96.1491 26.8949C95.1378 26.3267 94.3622 25.5369 93.8224 24.5256C93.2827 23.5085 93.0128 22.3295 93.0128 20.9886C93.0128 19.6477 93.2827 18.4716 93.8224 17.4602C94.3622 16.4432 95.1378 15.6534 96.1491 15.0909C97.1605 14.5227 98.3764 14.2386 99.7969 14.2386C101.217 14.2386 102.433 14.5227 103.445 15.0909C104.456 15.6534 105.232 16.4432 105.771 17.4602C106.311 18.4716 106.581 19.6477 106.581 20.9886C106.581 22.3295 106.311 23.5085 105.771 24.5256C105.232 25.5369 104.456 26.3267 103.445 26.8949C102.433 27.4574 101.217 27.7386 99.7969 27.7386ZM99.831 24.2614C100.229 24.2614 100.572 24.1278 100.862 23.8608C101.152 23.5937 101.376 23.2131 101.536 22.7188C101.695 22.2244 101.774 21.6364 101.774 20.9545C101.774 20.267 101.695 19.679 101.536 19.1903C101.376 18.696 101.152 18.3153 100.862 18.0483C100.572 17.7812 100.229 17.6477 99.831 17.6477C99.4105 17.6477 99.0497 17.7812 98.7486 18.0483C98.4474 18.3153 98.2173 18.696 98.0582 19.1903C97.8991 19.679 97.8196 20.267 97.8196 20.9545C97.8196 21.6364 97.8991 22.2244 98.0582 22.7188C98.2173 23.2131 98.4474 23.5937 98.7486 23.8608C99.0497 24.1278 99.4105 24.2614 99.831 24.2614Z" fill="white"/>
</svg>
