<svg width="250" height="84" viewBox="0 0 250 84" fill="none" xmlns="http://www.w3.org/2000/svg">
<g clip-path="url(#clip0_159_9156)">
<path d="M26.4042 83.7865V71.9385H34.1212V72.8625H27.4379V77.2485H33.9946V78.1726H27.4379V83.7865H26.4042Z" fill="white"/>
<path d="M36.0031 73.1459C36.0031 73.0049 36.0462 72.867 36.127 72.7499C36.2078 72.6329 36.3225 72.5418 36.4567 72.4884C36.5908 72.435 36.7382 72.4217 36.8801 72.4501C37.022 72.4786 37.1521 72.5475 37.2536 72.6481C37.3552 72.7487 37.4237 72.8764 37.4504 73.015C37.4771 73.1536 37.4608 73.2969 37.4037 73.4264C37.3465 73.556 37.2509 73.6661 37.1292 73.7427C37.0076 73.8193 36.8652 73.8588 36.7203 73.8564C36.5289 73.8532 36.3465 73.7769 36.2123 73.644C36.0782 73.5111 36.003 73.3322 36.0031 73.1459ZM36.2604 83.7866V75.2075H37.2098V83.7866H36.2604Z" fill="white"/>
<path d="M40.4712 83.7864V76.0246H39.0114V75.2032H40.4712V74.4229C40.4712 72.7515 41.3826 71.7576 42.8635 71.7576C43.1721 71.7427 43.4806 71.7885 43.7705 71.8923C44.0605 71.996 44.326 72.1555 44.5512 72.3613L44.0956 73.002C43.7939 72.7142 43.3872 72.5547 42.9648 72.5584C41.9606 72.5584 41.4332 73.232 41.4332 74.4229V75.2032H43.2222V76.0246H41.4332V83.7864H40.4797H40.4712Z" fill="white"/>
<path d="M45.18 82.1356V76.0247H43.7201V75.2034H45.18V72.8584H46.1462V75.2034H47.9351V76.0247H46.1462V81.9919C46.1462 82.6859 46.4373 83.1623 47.0575 83.1623C47.4295 83.158 47.7846 83.0103 48.0448 82.7516L48.4077 83.4621C48.2096 83.6472 47.9742 83.7902 47.7164 83.8821C47.4585 83.974 47.1839 84.0128 46.9099 83.996C45.7411 83.996 45.1757 83.3019 45.1757 82.1315L45.18 82.1356Z" fill="white"/>
<path d="M55.9643 83.7865V77.9426C55.9643 76.2999 55.1204 75.8276 53.8294 75.8276C53.2697 75.8524 52.7225 75.9975 52.2272 76.2524C51.7319 76.5073 51.3007 76.8657 50.9645 77.3019V83.7865H50.0151V71.9385H50.9645V76.5011C51.3604 76.0519 51.8464 75.6861 52.3927 75.4262C52.9391 75.1663 53.5342 75.0178 54.1416 74.9898C55.9305 74.9898 56.9136 75.8112 56.9136 77.7414V83.7783H55.9643V83.7865Z" fill="white"/>
<path d="M64.6307 83.7865V71.9385H68.5167C72.2929 71.9385 74.6642 74.6202 74.6642 77.8687C74.6642 81.1171 72.2929 83.7824 68.5167 83.7824H64.6307V83.7865ZM73.5714 77.8728C73.5714 75.1007 71.7486 72.8625 68.5082 72.8625H65.6602V82.8625H68.5082C71.7191 82.8625 73.5714 80.6407 73.5714 77.8728Z" fill="white"/>
<path d="M76.9636 73.1458C76.9636 73.0053 77.0064 72.8679 77.0866 72.7511C77.1668 72.6342 77.2808 72.5432 77.4142 72.4894C77.5476 72.4356 77.6944 72.4215 77.836 72.449C77.9776 72.4764 78.1076 72.544 78.2097 72.6434C78.3118 72.7428 78.3813 72.8694 78.4095 73.0072C78.4376 73.145 78.4232 73.2878 78.3679 73.4177C78.3127 73.5475 78.2191 73.6584 78.0991 73.7365C77.979 73.8146 77.8379 73.8562 77.6936 73.8562C77.5 73.8562 77.3143 73.7814 77.1774 73.6482C77.0405 73.5149 76.9636 73.3342 76.9636 73.1458ZM77.221 83.7864V75.2074H78.1703V83.7864H77.221Z" fill="white"/>
<path d="M91.6172 83.7865V77.7824C91.6172 76.575 91.0898 75.8276 89.8451 75.8276C89.3354 75.8609 88.8408 76.0102 88.4012 76.2634C87.9615 76.5166 87.589 76.8667 87.3136 77.2855V83.7865H86.3473V77.7824C86.3473 76.575 85.8368 75.8276 84.5753 75.8276C83.6428 75.8276 82.588 76.5216 82.0437 77.3019V83.7865H81.0944V75.2074H82.0437V76.5052C82.3781 76.068 82.8059 75.7066 83.2975 75.4457C83.7892 75.1848 84.333 75.0307 84.8917 74.9939C85.4116 74.9558 85.9286 75.0971 86.3521 75.393C86.7757 75.6888 87.0787 76.1204 87.2081 76.612C87.5268 76.135 87.9581 75.7393 88.4661 75.4578C88.974 75.1763 89.5438 75.0172 90.1278 74.9939C91.7522 74.9939 92.537 75.8809 92.537 77.6058V83.766H91.5919L91.6172 83.7865Z" fill="white"/>
<path d="M95.0094 79.4867C95.0094 77.0226 96.8152 74.9939 99.2624 74.9939C101.946 74.9939 103.423 77.0719 103.423 79.5401V79.7906H96.0516C96.1444 81.6551 97.4186 83.1992 99.4987 83.1992C100.038 83.2079 100.573 83.1063 101.069 82.9012C101.566 82.6961 102.012 82.3919 102.38 82.0083L102.874 82.612C102.433 83.0666 101.897 83.425 101.303 83.6636C100.709 83.9022 100.069 84.0154 99.427 83.9959C96.8532 83.9959 95.0094 82.1315 95.0094 79.4785V79.4867ZM99.2287 75.7906C97.1486 75.7906 96.1064 77.5647 96.0347 79.076H102.44C102.44 77.6181 101.435 75.7906 99.2287 75.7906Z" fill="white"/>
<path d="M111.823 83.7866V77.9796C111.823 76.3369 110.979 75.8317 109.688 75.8317C109.129 75.8565 108.581 76.0016 108.086 76.2565C107.591 76.5114 107.16 76.8698 106.823 77.3061V83.7907H105.874V75.2116H106.823V76.5093C107.219 76.0601 107.705 75.6943 108.252 75.4344C108.798 75.1745 109.393 75.026 110 74.998C111.789 74.998 112.773 75.8523 112.773 77.7866V83.7907H111.823V83.7866Z" fill="white"/>
<path d="M114.954 82.6489L115.519 81.9548C115.869 82.3562 116.306 82.6774 116.798 82.8954C117.291 83.1133 117.827 83.2227 118.367 83.2156C119.844 83.2156 120.722 82.4682 120.722 81.4743C120.722 79.1294 115.156 80.4435 115.156 77.3676C115.156 76.0534 116.304 74.9856 118.296 74.9856C118.884 74.9592 119.472 75.0583 120.017 75.2761C120.562 75.4939 121.052 75.825 121.452 76.2464L120.924 76.9035C120.607 76.5282 120.204 76.2301 119.748 76.0326C119.292 75.8351 118.794 75.7438 118.296 75.7659C116.929 75.7659 116.089 76.4394 116.089 77.3306C116.089 79.4785 121.654 78.152 121.654 81.4702C121.654 82.8542 120.561 83.9918 118.35 83.9918C117.72 84.0245 117.09 83.9203 116.506 83.6866C115.922 83.4529 115.399 83.0956 114.975 82.6407L114.954 82.6489Z" fill="white"/>
<path d="M123.84 73.1458C123.84 73.0053 123.883 72.8679 123.963 72.7511C124.043 72.6342 124.157 72.5432 124.29 72.4894C124.424 72.4356 124.57 72.4215 124.712 72.449C124.854 72.4764 124.984 72.544 125.086 72.6434C125.188 72.7428 125.257 72.8694 125.286 73.0072C125.314 73.145 125.299 73.2878 125.244 73.4177C125.189 73.5475 125.095 73.6584 124.975 73.7365C124.855 73.8146 124.714 73.8562 124.57 73.8562C124.376 73.8562 124.19 73.7814 124.054 73.6482C123.917 73.5149 123.84 73.3342 123.84 73.1458ZM124.097 83.7864V75.2074H125.046V83.7864H124.097Z" fill="white"/>
<path d="M127.489 79.4867C127.489 76.9816 129.152 74.9939 131.709 74.9939C134.266 74.9939 135.962 76.9816 135.962 79.4867C135.962 81.9918 134.32 84.0042 131.709 84.0042C129.097 84.0042 127.489 81.9877 127.489 79.4867ZM134.953 79.4867C134.953 77.5853 133.806 75.8276 131.726 75.8276C129.645 75.8276 128.515 77.5853 128.515 79.4867C128.515 81.3881 129.683 83.1828 131.726 83.1828C133.768 83.1828 134.953 81.4046 134.953 79.4867Z" fill="white"/>
<path d="M144.366 83.7866V77.9796C144.366 76.3369 143.523 75.8317 142.231 75.8317C141.672 75.8565 141.125 76.0016 140.629 76.2565C140.134 76.5114 139.703 76.8698 139.367 77.3061V83.7907H138.405V75.2116H139.354V76.5093C139.75 76.0601 140.236 75.6943 140.782 75.4344C141.328 75.1745 141.924 75.026 142.531 74.998C144.32 74.998 145.303 75.8523 145.303 77.7866V83.7907H144.354L144.366 83.7866Z" fill="white"/>
<path d="M153.033 83.7865V71.9385H156.919C160.695 71.9385 163.066 74.6202 163.066 77.8687C163.066 81.1171 160.695 83.7824 156.919 83.7824H153.033V83.7865ZM161.973 77.8728C161.973 75.1007 160.151 72.8625 156.91 72.8625H154.062V82.8625H156.91C160.121 82.8625 161.973 80.6407 161.973 77.8728Z" fill="white"/>
<path d="M165.113 79.4867C165.113 77.0226 166.918 74.9939 169.366 74.9939C172.049 74.9939 173.526 77.0719 173.526 79.5401V79.7906H166.155C166.248 81.6551 167.522 83.1992 169.602 83.1992C170.141 83.2079 170.676 83.1063 171.172 82.9012C171.669 82.6961 172.116 82.3919 172.484 82.0083L172.977 82.612C172.536 83.0666 172 83.425 171.406 83.6636C170.812 83.9022 170.173 84.0154 169.53 83.9959C166.956 83.9959 165.113 82.1315 165.113 79.4785V79.4867ZM169.332 75.7906C167.252 75.7906 166.21 77.5647 166.138 79.076H172.543C172.538 77.5976 171.551 75.7906 169.344 75.7906H169.332Z" fill="white"/>
<path d="M176.281 83.7864V76.0246H174.821V75.2032H176.281V74.4229C176.281 72.7515 177.192 71.7576 178.673 71.7576C178.982 71.7427 179.29 71.7885 179.58 71.8923C179.87 71.996 180.136 72.1555 180.361 72.3613L179.905 73.002C179.604 72.7142 179.197 72.5547 178.774 72.5584C177.77 72.5584 177.243 73.232 177.243 74.4229V75.2032H179.032V76.0246H177.222V83.7864H176.268H176.281Z" fill="white"/>
<path d="M180.293 79.4867C180.293 77.0226 182.099 74.9939 184.546 74.9939C187.23 74.9939 188.707 77.0719 188.707 79.5401V79.7906H181.336C181.428 81.6551 182.703 83.1992 184.783 83.1992C185.322 83.2079 185.857 83.1063 186.353 82.9012C186.85 82.6961 187.296 82.3919 187.665 82.0083L188.158 82.612C187.717 83.0666 187.181 83.425 186.587 83.6636C185.993 83.9022 185.353 84.0154 184.711 83.9959C182.137 83.9959 180.293 82.1315 180.293 79.4785V79.4867ZM184.513 75.7906C182.433 75.7906 181.39 77.5647 181.319 79.076H187.724C187.719 77.5976 186.732 75.7906 184.525 75.7906H184.513Z" fill="white"/>
<path d="M197.099 83.7866V77.9796C197.099 76.3369 196.255 75.8317 194.964 75.8317C194.404 75.8565 193.857 76.0016 193.362 76.2565C192.866 76.5114 192.435 76.8698 192.099 77.3061V83.7907H191.146V75.2116H192.095V76.5093C192.491 76.0601 192.977 75.6943 193.523 75.4344C194.069 75.1745 194.665 75.026 195.272 74.998C197.061 74.998 198.044 75.8523 198.044 77.7866V83.7907H197.095L197.099 83.7866Z" fill="white"/>
<path d="M200.491 79.4866C200.491 76.9815 202.179 74.9938 204.778 74.9938C205.382 74.9658 205.983 75.0843 206.528 75.3388C207.073 75.5933 207.545 75.9758 207.9 76.4517L207.242 77.0184C206.977 76.6372 206.617 76.3278 206.196 76.1194C205.774 75.9111 205.305 75.8106 204.833 75.8274C202.769 75.8274 201.512 77.425 201.512 79.4866C201.512 81.5482 202.778 83.1827 204.833 83.1827C205.306 83.1958 205.776 83.092 206.197 82.8808C206.618 82.6697 206.978 82.3582 207.242 81.9753L207.9 82.542C207.549 83.0234 207.079 83.4109 206.533 83.6686C205.987 83.9263 205.384 84.0459 204.778 84.0164C202.187 84.0164 200.491 82.0081 200.491 79.4989V79.4866Z" fill="white"/>
<path d="M209.508 79.4867C209.508 77.0226 211.314 74.9939 213.761 74.9939C216.444 74.9939 217.921 77.0719 217.921 79.5401V79.7906H210.554C210.647 81.6551 211.921 83.1992 214.001 83.1992C214.54 83.2079 215.075 83.1063 215.572 82.9012C216.068 82.6961 216.515 82.3919 216.883 82.0083L217.377 82.612C216.935 83.0666 216.4 83.425 215.805 83.6636C215.211 83.9022 214.572 84.0154 213.929 83.9959C211.356 83.9959 209.512 82.1315 209.512 79.4785L209.508 79.4867ZM213.727 75.7906C211.647 75.7906 210.605 77.5647 210.533 79.076H216.938C216.934 77.5976 215.946 75.7906 213.74 75.7906H213.727Z" fill="white"/>
<path d="M219.908 83.1662C219.914 82.9625 220 82.7688 220.15 82.6262C220.3 82.4836 220.5 82.4033 220.71 82.4023C220.92 82.407 221.121 82.4879 221.273 82.6292C221.425 82.7705 221.518 82.962 221.533 83.1662C221.527 83.377 221.439 83.5776 221.286 83.7267C221.133 83.8758 220.926 83.9618 220.71 83.967C220.497 83.9567 220.296 83.8684 220.147 83.7199C219.999 83.5713 219.913 83.3735 219.908 83.1662Z" fill="white"/>
<path d="M0.0126953 56.7556V41.2649C0.0126953 39.74 0.635035 38.2776 1.74281 37.1994C2.85058 36.1211 4.35304 35.5154 5.91967 35.5154H46.9225C50.0405 35.5154 50.973 39.6222 48.1419 40.9158L5.36694 60.0985C4.79088 60.3506 4.15932 60.4588 3.52945 60.4134C2.89958 60.368 2.29129 60.1704 1.75967 59.8385C1.22804 59.5066 0.789872 59.0508 0.484831 58.5125C0.17979 57.9742 0.0175131 57.3704 0.0126953 56.7556Z" fill="white"/>
<path d="M64.2384 48.8501V58.8501C64.2384 59.8303 63.8383 60.7705 63.1261 61.4636C62.414 62.1568 61.4481 62.5462 60.441 62.5462H32.7626C32.1617 62.5604 31.5743 62.371 31.1009 62.0105C30.6274 61.65 30.2973 61.1407 30.1668 60.5696C30.0362 59.9985 30.1135 59.4009 30.3853 58.8791C30.6572 58.3573 31.1067 57.9435 31.6572 57.7084L58.8504 45.5031C59.428 45.2445 60.0632 45.1313 60.6975 45.1738C61.3318 45.2162 61.945 45.4131 62.4809 45.7462C63.0167 46.0793 63.458 46.5381 63.7644 47.0804C64.0707 47.6227 64.2322 48.2312 64.2341 48.8501H64.2384Z" fill="white"/>
<path d="M0.0126953 21.2567V3.6756C0.0126953 2.69533 0.412771 1.75521 1.12491 1.06206C1.83705 0.368908 2.80292 -0.0205012 3.81003 -0.0205012H47.2685C47.915 -0.0218765 48.5426 0.192183 49.0468 0.586088C49.551 0.979993 49.9015 1.53001 50.04 2.1447C50.1786 2.75939 50.0968 3.40171 49.8082 3.96487C49.5197 4.52804 49.0419 4.97812 48.4541 5.24028L5.36694 24.6202C4.78958 24.8728 4.1565 24.9809 3.52527 24.9347C2.89404 24.8885 2.28469 24.6894 1.75264 24.3556C1.22058 24.0218 0.782706 23.5638 0.478829 23.0233C0.174953 22.4828 0.0147174 21.8769 0.0126953 21.2608V21.2567Z" fill="white"/>
<path d="M64.2384 13.3511V23.3511C64.2384 24.3314 63.8383 25.2715 63.1261 25.9647C62.414 26.6578 61.4481 27.0472 60.441 27.0472H32.0285C31.4749 27.0456 30.9385 26.8604 30.5075 26.5222C30.0766 26.184 29.777 25.713 29.6581 25.1868C29.5391 24.6605 29.608 24.1106 29.8533 23.6276C30.0986 23.1446 30.5057 22.7573 31.0074 22.5298L58.8546 10.0246C59.4312 9.76985 60.0641 9.65948 60.6958 9.70355C61.3274 9.74763 61.9377 9.94475 62.471 10.277C63.0044 10.6092 63.444 11.066 63.7497 11.6058C64.0554 12.1456 64.2176 12.7512 64.2215 13.3675L64.2384 13.3511Z" fill="white"/>
<path d="M77.1704 16.9897C79.5049 19.1586 82.6095 20.3664 85.8367 20.3614C87.3683 20.3614 88.8198 19.8522 88.8198 18.8296C88.8198 17.807 87.6932 17.2977 85.0224 16.8296C80.588 16.0452 73.816 15.0267 73.816 8.47228C73.816 4.04107 77.6134 0 84.9802 0C89.3725 0 93.3217 1.23203 96.3723 3.64682L92.0391 9.25667C89.867 7.67454 87.2523 6.77225 84.5414 6.66941C82.5246 6.66941 82.0816 7.37577 82.0816 8.04107C82.0816 9.05955 83.1702 9.41273 86.0308 9.88501C90.4653 10.6283 97.0558 11.8891 97.0558 17.9261C97.0558 23.963 92.6635 27.0267 85.4486 27.0267C79.7272 27.0267 75.816 25.384 72.9553 22.8665L77.1746 16.9815L77.1704 16.9897Z" fill="white"/>
<path d="M117.477 26.5626V16.5585H107.844V26.5626H99.7013V0.390137H107.844V9.65502H117.477V0.390137H125.62V26.5585H117.477V26.5626Z" fill="white"/>
<path d="M150.484 26.5626L147.02 11.7331L143.552 26.5626H135.029L127.312 0.390137H136.422L139.886 16.4066L143.957 0.390137H150.084L154.155 16.4066L157.581 0.390137H166.729L159.033 26.5626H150.484Z" fill="white"/>
<path d="M168.42 26.5626V0.390137H188.816V6.96098H176.58V10.0205H188.551V16.6365H176.564V19.9712H188.799V26.5626H168.42Z" fill="white"/>
<path d="M198.204 26.5626V7.29774H190.989V0.390137H213.507V7.29774H206.335V26.5585H198.192L198.204 26.5626Z" fill="white"/>
<path d="M232.338 26.5626L231.292 23.191H220.976L219.929 26.5626H211.103L221.018 0.390137H231.254L241.169 26.5544H232.338V26.5626ZM226.132 7.37166L223.068 16.5914H229.195L226.132 7.37166Z" fill="white"/>
<path d="M72.9385 62.5832V35.9385H74.2718V61.4005H88.0224V62.5997L72.9385 62.5832Z" fill="white"/>
<path d="M113.511 62.5831L110.49 55.4209H95.2204L92.1825 62.5708H90.6636L102.056 35.926H103.617L115.009 62.5708H113.511V62.5831ZM102.857 37.4168L95.714 54.2546H109.996L102.853 37.4168H102.857Z" fill="white"/>
<path d="M119.519 62.5832V35.9385H129.823C134.215 35.9385 137.291 38.3368 137.291 42.7311C137.328 44.1372 136.866 45.5129 135.984 46.6271C135.102 47.7414 133.853 48.5263 132.447 48.8502C135.363 49.2896 137.822 52.3245 137.822 55.421C137.822 59.9754 134.784 62.612 129.983 62.612L119.519 62.5832ZM120.831 48.2834H129.818C133.839 48.2834 135.852 45.8194 135.852 42.7311C135.852 39.6428 133.839 37.1377 129.818 37.1377H120.831V48.2834ZM120.831 61.3882H129.966C133.987 61.3882 136.367 59.0719 136.367 55.4374C136.367 52.4025 134.232 49.4867 129.966 49.4867H120.831V61.3964V61.3882Z" fill="white"/>
<path d="M143.776 57.9096C144.799 59.1441 146.094 60.14 147.564 60.8243C149.035 61.5086 150.644 61.864 152.273 61.8645C158.602 61.8645 160.193 58.3491 160.193 55.8316C160.193 51.5154 156.21 50.3573 152.147 49.2608C147.928 48.1027 143.569 46.9445 143.569 42.308C143.569 37.9918 147.632 35.5154 152.147 35.5154C156.168 35.5154 159.083 36.9528 161.007 39.269L159.982 40.1889C158.054 37.7536 155.303 36.7146 152.143 36.7146C148.16 36.7146 144.999 39.0308 144.999 42.308C144.999 45.9014 148.691 46.9035 152.594 47.9794C156.986 49.2115 161.623 50.5749 161.623 55.848C161.623 58.846 159.653 63.0801 152.265 63.0801C147.995 63.0801 144.67 61.2813 142.704 58.846L143.772 57.9261L143.776 57.9096Z" fill="white"/>
<path d="M241.625 5.31829V0.960996H240.03V0.414795H243.857V0.960996H242.253V5.31829H241.625Z" fill="white"/>
<path d="M249.371 5.31827V1.28131L247.658 5.31827H247.401L245.692 1.2772V5.31827H245.063V0.390137H245.962L247.528 4.08624L249.101 0.390137H250V5.31827H249.371Z" fill="white"/>
</g>
<defs>
<clipPath id="clip0_159_9156">
<rect width="250" height="84" fill="white"/>
</clipPath>
</defs>
</svg>
