<svg width="201" height="200" viewBox="0 0 201 200" fill="none" xmlns="http://www.w3.org/2000/svg">
<path d="M123.027 99.9249C123.03 104.473 121.683 108.92 119.158 112.702C116.634 116.485 113.044 119.435 108.843 121.177C104.642 122.919 100.018 123.376 95.5572 122.491C91.0962 121.605 86.998 119.416 83.7811 116.201C80.5642 112.986 78.373 108.89 77.4848 104.429C76.5965 99.9687 77.0512 95.3449 78.791 91.1428C80.5308 86.9407 83.4777 83.349 87.259 80.8219C91.0404 78.2949 95.4862 76.946 100.034 76.946C103.053 76.9443 106.043 77.5374 108.832 78.6914C111.622 79.8454 114.157 81.5377 116.292 83.6716C118.427 85.8056 120.121 88.3393 121.276 91.1281C122.432 93.9169 123.027 96.9061 123.027 99.9249Z" stroke="white" stroke-width="5" stroke-linecap="round" stroke-linejoin="round"/>
<path d="M145.923 97.196L155.57 85.1335C154.266 80.2454 152.321 75.5516 149.785 71.1743L134.434 69.4413C133.208 68.063 131.9 66.7598 130.517 65.5387L128.798 50.1877C124.416 47.6518 119.717 45.7065 114.825 44.4021L102.763 54.0494C100.918 53.9402 99.0679 53.9402 97.2229 54.0494L85.1466 44.4021C80.2678 45.6888 75.5825 47.6208 71.2147 50.1468L69.4817 65.4842C68.1024 66.7135 66.7946 68.021 65.5654 69.4004L50.228 71.1197C47.6888 75.5004 45.7432 80.1992 44.4424 85.0926L54.0897 97.155C53.9806 99.0001 53.9806 100.85 54.0897 102.695L44.4424 114.771C45.7433 119.66 47.6889 124.355 50.228 128.73L65.579 130.532C66.8083 131.911 68.116 133.219 69.4954 134.448L71.2284 149.799C75.6085 152.319 80.3021 154.251 85.1876 155.544L97.2502 145.896C99.0952 146.005 100.945 146.005 102.79 145.896L114.866 155.544C119.755 154.243 124.45 152.297 128.825 149.758L130.545 134.407C131.931 133.189 133.238 131.886 134.461 130.504L149.812 128.771C152.338 124.394 154.27 119.7 155.557 114.812L145.923 102.736C146.032 100.891 146.032 99.041 145.923 97.196ZM99.9793 122.931C95.4347 122.92 90.995 121.563 87.2214 119.031C83.4478 116.498 80.5093 112.904 78.777 108.703C77.0447 104.501 76.5965 99.8809 77.4887 95.4248C78.3809 90.9687 80.5737 86.8769 83.7901 83.6662C87.0064 80.4556 91.1021 78.2701 95.5598 77.3858C100.018 76.5015 104.637 76.9581 108.836 78.6978C113.034 80.4375 116.623 83.3824 119.148 87.1605C121.674 90.9386 123.023 95.3805 123.026 99.9251C123.032 102.953 122.439 105.951 121.282 108.749C120.126 111.547 118.428 114.089 116.287 116.229C114.146 118.369 111.603 120.065 108.804 121.22C106.006 122.375 103.007 122.966 99.9793 122.958V122.931Z" fill="white" fill-opacity="0.13" stroke="white" stroke-width="5" stroke-linecap="round" stroke-linejoin="round"/>
<path d="M123.027 99.9249C123.03 104.473 121.683 108.92 119.158 112.702C116.634 116.485 113.044 119.435 108.843 121.177C104.642 122.919 100.018 123.376 95.5572 122.491C91.0962 121.605 86.998 119.416 83.7811 116.201C80.5642 112.986 78.373 108.89 77.4848 104.429C76.5965 99.9687 77.0512 95.3449 78.791 91.1428C80.5308 86.9407 83.4777 83.349 87.259 80.8219C91.0404 78.2949 95.4862 76.946 100.034 76.946C103.053 76.9443 106.043 77.5374 108.832 78.6914C111.622 79.8454 114.157 81.5377 116.292 83.6716C118.427 85.8056 120.121 88.3393 121.276 91.1281C122.432 93.9169 123.027 96.9061 123.027 99.9249Z" stroke="white" stroke-width="5" stroke-linecap="round" stroke-linejoin="round"/>
<path d="M183.066 78.9521V121.021C180.427 121.037 177.851 121.832 175.661 123.305C173.472 124.778 171.765 126.865 170.756 129.303C169.746 131.742 169.479 134.424 169.986 137.014C170.494 139.603 171.754 141.986 173.61 143.863L143.904 173.61C142.021 171.749 139.629 170.487 137.031 169.982C134.432 169.478 131.742 169.754 129.3 170.775C126.857 171.796 124.772 173.517 123.306 175.722C121.84 177.926 121.059 180.514 121.061 183.162H78.9789C78.9623 180.519 78.1659 177.941 76.6892 175.749C75.2125 173.558 73.1213 171.852 70.6784 170.845C68.2355 169.838 65.5495 169.574 62.9576 170.088C60.3656 170.602 57.9832 171.87 56.1092 173.733L26.3486 143.972C28.2188 142.091 29.4893 139.697 29.9992 137.094C30.509 134.49 30.2353 131.794 29.213 129.346C28.1906 126.899 26.4652 124.809 24.2552 123.341C22.0452 121.874 19.4497 121.095 16.7969 121.103V78.9794C19.4483 78.9762 22.0396 78.1873 24.2429 76.7124C26.4462 75.2374 28.1626 73.1425 29.176 70.6924C30.1893 68.2423 30.454 65.5468 29.9362 62.9464C29.4184 60.3461 28.1416 57.9575 26.267 56.0824L56.0136 26.3219C57.8895 28.1973 60.2796 29.4745 62.8813 29.9919C65.4829 30.5092 68.1794 30.2436 70.6301 29.2286C73.0808 28.2135 75.1753 26.4947 76.6492 24.2893C78.1231 22.0839 78.9101 19.491 78.9106 16.8384H120.993C120.999 19.4854 121.788 22.0715 123.26 24.271C124.733 26.4706 126.823 28.1853 129.268 29.1992C131.714 30.2132 134.404 30.481 137.001 29.969C139.598 29.457 141.985 28.188 143.863 26.3219L173.623 56.0824C171.759 57.9581 170.49 60.343 169.977 62.9375C169.464 65.532 169.73 68.2202 170.741 70.6642C171.751 73.1082 173.462 75.1989 175.657 76.6735C177.852 78.1481 180.435 78.9409 183.079 78.9521H183.066Z" stroke="white" stroke-width="5" stroke-linecap="round" stroke-linejoin="round"/>
<path d="M78.9518 16.8384C78.9518 19.4913 78.1653 22.0846 76.6915 24.2904C75.2176 26.4963 73.1226 28.2155 70.6716 29.2307C68.2207 30.2459 65.5235 30.5116 62.9215 29.994C60.3196 29.4765 57.9298 28.199 56.0539 26.3231C54.178 24.4472 52.9002 22.0571 52.3827 19.4552C51.8651 16.8532 52.131 14.1563 53.1462 11.7053C54.1615 9.25432 55.8805 7.15944 58.0863 5.68556C60.2922 4.21168 62.8857 3.42505 65.5387 3.42505C69.095 3.42866 72.5044 4.84295 75.0191 7.35767C77.5338 9.87238 78.9482 13.282 78.9518 16.8384Z" fill="white" fill-opacity="0.13" stroke="white" stroke-width="5" stroke-linecap="round" stroke-linejoin="round"/>
<path d="M26.3085 75.0495C24.4327 76.9257 22.0425 78.2035 19.4405 78.7214C16.8384 79.2392 14.1412 78.9738 11.69 77.9586C9.23884 76.9435 7.14389 75.2243 5.66986 73.0184C4.19583 70.8125 3.40918 68.219 3.40918 65.566C3.40918 62.9129 4.19583 60.3195 5.66986 58.1136C7.14389 55.9077 9.23884 54.1884 11.69 53.1733C14.1412 52.1582 16.8384 51.8927 19.4405 52.4106C22.0425 52.9284 24.4327 54.2062 26.3085 56.0824C28.8232 58.5978 30.2358 62.0091 30.2358 65.566C30.2358 69.1228 28.8232 72.5341 26.3085 75.0495Z" fill="white" fill-opacity="0.13" stroke="white" stroke-width="5" stroke-linecap="round" stroke-linejoin="round"/>
<path d="M30.2379 134.461C30.2379 137.114 29.4511 139.708 27.9773 141.913C26.5034 144.119 24.4088 145.838 21.9578 146.854C19.5068 147.869 16.8096 148.135 14.2076 147.617C11.6057 147.099 9.21589 145.822 7.33999 143.946C5.4641 142.07 4.18637 139.68 3.66881 137.078C3.15125 134.476 3.41713 131.779 4.43236 129.328C5.44759 126.877 7.16665 124.782 9.37247 123.309C11.5783 121.835 14.1715 121.048 16.8245 121.048C18.5874 121.043 20.3343 121.386 21.9641 122.058C23.5939 122.73 25.0746 123.718 26.3212 124.965C27.5679 126.211 28.5557 127.692 29.2279 129.322C29.9 130.952 30.2433 132.698 30.2379 134.461Z" fill="white" fill-opacity="0.13" stroke="white" stroke-width="5" stroke-linecap="round" stroke-linejoin="round"/>
<path d="M78.9789 183.162C78.9905 185.37 78.4564 187.548 77.4241 189.501C76.3918 191.454 74.8931 193.121 73.0613 194.356C71.2295 195.59 69.1211 196.353 66.9236 196.576C64.7261 196.8 62.5073 196.477 60.4644 195.637C58.4215 194.797 56.6177 193.466 55.2131 191.761C53.8086 190.056 52.847 188.031 52.4134 185.865C51.9798 183.699 52.0875 181.46 52.7276 179.345C53.3676 177.231 54.5199 175.308 56.0819 173.746C57.9559 171.883 60.3383 170.615 62.9303 170.102C65.5222 169.588 68.2082 169.851 70.6511 170.858C73.094 171.866 75.1852 173.572 76.6619 175.763C78.1386 177.954 78.935 180.533 78.9516 183.175L78.9789 183.162Z" fill="white" fill-opacity="0.13" stroke="white" stroke-width="5" stroke-linecap="round" stroke-linejoin="round"/>
<path d="M147.888 183.162C147.888 186.719 146.475 190.131 143.959 192.646C141.444 195.162 138.032 196.575 134.475 196.575C130.917 196.575 127.506 195.162 124.99 192.646C122.475 190.131 121.062 186.719 121.062 183.162C121.062 179.604 122.475 176.192 124.99 173.677C127.506 171.161 130.917 169.748 134.475 169.748C138.032 169.748 141.444 171.161 143.959 173.677C146.475 176.192 147.888 179.604 147.888 183.162Z" fill="white" fill-opacity="0.13" stroke="white" stroke-width="5" stroke-linecap="round" stroke-linejoin="round"/>
<path d="M192.618 143.918C190.102 146.432 186.691 147.845 183.134 147.845C179.577 147.845 176.166 146.432 173.651 143.918C171.78 142.039 170.508 139.649 169.995 137.049C169.482 134.448 169.751 131.754 170.768 129.306C171.784 126.859 173.504 124.767 175.708 123.296C177.913 121.824 180.504 121.039 183.155 121.039C185.805 121.039 188.396 121.824 190.601 123.296C192.806 124.767 194.525 126.859 195.542 129.306C196.559 131.754 196.827 134.448 196.314 137.049C195.801 139.649 194.529 142.039 192.659 143.918H192.618Z" fill="white" fill-opacity="0.13" stroke="white" stroke-width="5" stroke-linecap="round" stroke-linejoin="round"/>
<path d="M196.588 65.5387C196.588 69.0962 195.175 72.5079 192.66 75.0234C190.144 77.5389 186.733 78.9521 183.175 78.9521C180.525 78.9414 177.937 78.1455 175.738 76.6651C173.539 75.1846 171.829 73.086 170.822 70.6341C169.815 68.1822 169.557 65.487 170.081 62.8886C170.605 60.2903 171.886 57.9054 173.764 56.035C175.642 54.1645 178.033 52.8924 180.633 52.3793C183.233 51.8661 185.927 52.1349 188.375 53.1517C190.823 54.1685 192.915 55.8877 194.386 58.0923C195.858 60.297 196.643 62.8881 196.643 65.5387H196.588Z" fill="white" fill-opacity="0.13" stroke="white" stroke-width="5" stroke-linecap="round" stroke-linejoin="round"/>
<path d="M143.932 26.3083C142.055 28.1826 139.665 29.4585 137.063 29.9748C134.462 30.4911 131.766 30.2244 129.316 29.2087C126.866 28.1931 124.772 26.4739 123.299 24.2684C121.826 22.0629 121.039 19.4701 121.039 16.8179C121.039 14.1657 121.826 11.573 123.299 9.36751C124.772 7.16204 126.866 5.44285 129.316 4.42715C131.766 3.41145 134.462 3.14484 137.063 3.6611C139.665 4.17736 142.055 5.45333 143.932 7.32762C145.181 8.57451 146.171 10.0559 146.846 11.6867C147.521 13.3174 147.867 15.0654 147.865 16.8304C147.862 18.5954 147.511 20.3425 146.831 21.9713C146.152 23.6001 145.157 25.0786 143.904 26.3219L143.932 26.3083Z" fill="white" fill-opacity="0.13" stroke="white" stroke-width="5" stroke-linecap="round" stroke-linejoin="round"/>
</svg>
