<svg width="201" height="200" viewBox="0 0 201 200" fill="none" xmlns="http://www.w3.org/2000/svg">
<path d="M123.026 99.9249C123.029 104.473 121.682 108.92 119.157 112.702C116.633 116.485 113.043 119.435 108.842 121.177C104.641 122.919 100.017 123.376 95.5562 122.491C91.0952 121.605 86.997 119.416 83.7801 116.201C80.5632 112.986 78.3721 108.89 77.4838 104.429C76.5955 99.9687 77.0502 95.3449 78.79 91.1428C80.5299 86.9407 83.4767 83.349 87.2581 80.8219C91.0394 78.2949 95.4852 76.946 100.033 76.946C103.052 76.9443 106.042 77.5374 108.831 78.6914C111.621 79.8454 114.156 81.5377 116.291 83.6716C118.426 85.8056 120.12 88.3393 121.276 91.1281C122.431 93.9169 123.026 96.9061 123.026 99.9249Z" stroke="white" stroke-width="5" stroke-linecap="round" stroke-linejoin="round"/>
<path d="M145.924 97.196L155.571 85.1335C154.267 80.2454 152.322 75.5516 149.786 71.1743L134.435 69.4413C133.209 68.063 131.901 66.7598 130.518 65.5387L128.799 50.1877C124.417 47.6518 119.718 45.7065 114.826 44.4021L102.764 54.0494C100.919 53.9402 99.0689 53.9402 97.2238 54.0494L85.1476 44.4021C80.2688 45.6888 75.5835 47.6208 71.2157 50.1468L69.4827 65.4842C68.1033 66.7135 66.7956 68.021 65.5663 69.4004L50.229 71.1197C47.6898 75.5004 45.7442 80.1992 44.4434 85.0926L54.0907 97.155C53.9816 99.0001 53.9816 100.85 54.0907 102.695L44.4434 114.771C45.7443 119.66 47.6899 124.355 50.229 128.73L65.58 130.532C66.8093 131.911 68.117 133.219 69.4964 134.448L71.2294 149.799C75.6095 152.319 80.3031 154.251 85.1885 155.544L97.2512 145.896C99.0962 146.005 100.946 146.005 102.791 145.896L114.867 155.544C119.756 154.243 124.45 152.297 128.826 149.758L130.546 134.407C131.932 133.189 133.239 131.886 134.462 130.504L149.813 128.771C152.339 124.394 154.271 119.7 155.558 114.812L145.924 102.736C146.033 100.891 146.033 99.041 145.924 97.196ZM99.9802 122.931C95.4357 122.92 90.996 121.563 87.2224 119.031C83.4488 116.498 80.5102 112.904 78.778 108.703C77.0457 104.501 76.5975 99.8809 77.4897 95.4248C78.3819 90.9687 80.5747 86.8769 83.791 83.6662C87.0074 80.4556 91.1031 78.2701 95.5608 77.3858C100.019 76.5015 104.638 76.9581 108.837 78.6978C113.035 80.4375 116.624 83.3824 119.149 87.1605C121.675 90.9386 123.024 95.3805 123.027 99.9251C123.032 102.953 122.44 105.951 121.283 108.749C120.127 111.547 118.429 114.089 116.288 116.229C114.147 118.369 111.604 120.065 108.805 121.22C106.007 122.375 103.008 122.966 99.9802 122.958V122.931Z" fill="white" fill-opacity="0.13" stroke="white" stroke-width="5" stroke-linecap="round" stroke-linejoin="round"/>
<path d="M123.026 99.9249C123.029 104.473 121.682 108.92 119.157 112.702C116.633 116.485 113.043 119.435 108.842 121.177C104.641 122.919 100.017 123.376 95.5562 122.491C91.0952 121.605 86.997 119.416 83.7801 116.201C80.5632 112.986 78.3721 108.89 77.4838 104.429C76.5955 99.9687 77.0502 95.3449 78.79 91.1428C80.5299 86.9407 83.4767 83.349 87.2581 80.8219C91.0394 78.2949 95.4852 76.946 100.033 76.946C103.052 76.9443 106.042 77.5374 108.831 78.6914C111.621 79.8454 114.156 81.5377 116.291 83.6716C118.426 85.8056 120.12 88.3393 121.276 91.1281C122.431 93.9169 123.026 96.9061 123.026 99.9249Z" stroke="white" stroke-width="5" stroke-linecap="round" stroke-linejoin="round"/>
<path d="M183.066 78.9521V121.021C180.427 121.037 177.851 121.832 175.661 123.305C173.472 124.778 171.765 126.865 170.756 129.303C169.746 131.742 169.479 134.424 169.986 137.014C170.494 139.603 171.754 141.986 173.61 143.863L143.904 173.61C142.021 171.749 139.629 170.487 137.031 169.982C134.432 169.478 131.742 169.754 129.3 170.775C126.857 171.796 124.772 173.517 123.306 175.722C121.84 177.926 121.059 180.514 121.061 183.162H78.9789C78.9623 180.519 78.1659 177.941 76.6892 175.749C75.2125 173.558 73.1213 171.852 70.6784 170.845C68.2355 169.838 65.5495 169.574 62.9576 170.088C60.3656 170.602 57.9832 171.87 56.1092 173.733L26.3486 143.972C28.2188 142.091 29.4893 139.697 29.9992 137.094C30.509 134.49 30.2353 131.794 29.213 129.346C28.1906 126.899 26.4652 124.809 24.2552 123.341C22.0452 121.874 19.4497 121.095 16.7969 121.103V78.9794C19.4483 78.9762 22.0396 78.1873 24.2429 76.7124C26.4462 75.2374 28.1626 73.1425 29.176 70.6924C30.1893 68.2423 30.454 65.5468 29.9362 62.9464C29.4184 60.3461 28.1416 57.9575 26.267 56.0824L56.0136 26.3219C57.8895 28.1973 60.2796 29.4745 62.8813 29.9919C65.4829 30.5092 68.1794 30.2436 70.6301 29.2286C73.0808 28.2135 75.1753 26.4947 76.6492 24.2893C78.1231 22.0839 78.9101 19.491 78.9106 16.8384H120.993C120.999 19.4854 121.788 22.0715 123.26 24.271C124.733 26.4706 126.823 28.1853 129.268 29.1992C131.714 30.2132 134.404 30.481 137.001 29.969C139.598 29.457 141.985 28.188 143.863 26.3219L173.623 56.0824C171.759 57.9581 170.49 60.343 169.977 62.9375C169.464 65.532 169.73 68.2202 170.741 70.6642C171.751 73.1082 173.462 75.1989 175.657 76.6735C177.852 78.1481 180.435 78.9409 183.079 78.9521H183.066Z" stroke="white" stroke-width="5" stroke-linecap="round" stroke-linejoin="round"/>
<path d="M78.9518 16.8384C78.9518 19.4913 78.1653 22.0846 76.6915 24.2904C75.2176 26.4963 73.1226 28.2155 70.6717 29.2307C68.2207 30.2459 65.5235 30.5116 62.9215 29.994C60.3196 29.4765 57.9298 28.199 56.0539 26.3231C54.178 24.4472 52.9002 22.0571 52.3827 19.4552C51.8651 16.8532 52.131 14.1563 53.1462 11.7053C54.1615 9.25432 55.8805 7.15944 58.0863 5.68556C60.2922 4.21168 62.8857 3.42505 65.5387 3.42505C69.095 3.42866 72.5044 4.84295 75.0191 7.35767C77.5338 9.87238 78.9482 13.282 78.9518 16.8384Z" fill="white" fill-opacity="0.13" stroke="white" stroke-width="5" stroke-linecap="round" stroke-linejoin="round"/>
<path d="M26.3075 75.0495C24.4317 76.9257 22.0415 78.2035 19.4395 78.7214C16.8375 79.2392 14.1402 78.9738 11.689 77.9586C9.23786 76.9435 7.14291 75.2243 5.66888 73.0184C4.19485 70.8125 3.4082 68.219 3.4082 65.566C3.4082 62.9129 4.19485 60.3195 5.66888 58.1136C7.14291 55.9077 9.23786 54.1884 11.689 53.1733C14.1402 52.1582 16.8375 51.8927 19.4395 52.4106C22.0415 52.9284 24.4317 54.2062 26.3075 56.0824C28.8223 58.5978 30.2349 62.0091 30.2349 65.566C30.2349 69.1228 28.8223 72.5341 26.3075 75.0495Z" fill="white" fill-opacity="0.13" stroke="white" stroke-width="5" stroke-linecap="round" stroke-linejoin="round"/>
<path d="M30.2389 134.461C30.2389 137.114 29.4521 139.708 27.9782 141.913C26.5044 144.119 24.4097 145.838 21.9588 146.854C19.5078 147.869 16.8106 148.135 14.2086 147.617C11.6067 147.099 9.21687 145.822 7.34097 143.946C5.46508 142.07 4.18734 139.68 3.66978 137.078C3.15223 134.476 3.41811 131.779 4.43334 129.328C5.44857 126.877 7.16763 124.782 9.37345 123.309C11.5793 121.835 14.1725 121.048 16.8254 121.048C18.5884 121.043 20.3353 121.386 21.9651 122.058C23.5949 122.73 25.0756 123.718 26.3222 124.965C27.5688 126.211 28.5567 127.692 29.2288 129.322C29.901 130.952 30.2443 132.698 30.2389 134.461Z" fill="white" fill-opacity="0.13" stroke="white" stroke-width="5" stroke-linecap="round" stroke-linejoin="round"/>
<path d="M78.9789 183.162C78.9905 185.37 78.4564 187.548 77.4241 189.501C76.3918 191.454 74.8931 193.121 73.0613 194.356C71.2295 195.59 69.1211 196.353 66.9236 196.576C64.7261 196.8 62.5073 196.477 60.4644 195.637C58.4215 194.797 56.6177 193.466 55.2131 191.761C53.8086 190.056 52.847 188.031 52.4134 185.865C51.9798 183.699 52.0875 181.46 52.7276 179.345C53.3676 177.231 54.5199 175.308 56.0819 173.746C57.9559 171.883 60.3383 170.615 62.9303 170.102C65.5222 169.588 68.2082 169.851 70.6511 170.858C73.094 171.866 75.1852 173.572 76.6619 175.763C78.1386 177.954 78.935 180.533 78.9516 183.175L78.9789 183.162Z" fill="white" fill-opacity="0.13" stroke="white" stroke-width="5" stroke-linecap="round" stroke-linejoin="round"/>
<path d="M147.889 183.162C147.889 186.719 146.476 190.131 143.96 192.646C141.445 195.162 138.033 196.575 134.476 196.575C130.918 196.575 127.507 195.162 124.991 192.646C122.476 190.131 121.063 186.719 121.062 183.162C121.063 179.604 122.476 176.192 124.991 173.677C127.507 171.161 130.918 169.748 134.476 169.748C138.033 169.748 141.445 171.161 143.96 173.677C146.476 176.192 147.889 179.604 147.889 183.162Z" fill="white" fill-opacity="0.13" stroke="white" stroke-width="5" stroke-linecap="round" stroke-linejoin="round"/>
<path d="M192.619 143.918C190.103 146.432 186.692 147.845 183.135 147.845C179.578 147.845 176.167 146.432 173.652 143.918C171.781 142.039 170.509 139.649 169.996 137.049C169.483 134.448 169.752 131.754 170.768 129.306C171.785 126.859 173.505 124.767 175.709 123.296C177.914 121.824 180.505 121.039 183.156 121.039C185.806 121.039 188.397 121.824 190.602 123.296C192.807 124.767 194.526 126.859 195.543 129.306C196.56 131.754 196.828 134.448 196.315 137.049C195.802 139.649 194.53 142.039 192.66 143.918H192.619Z" fill="white" fill-opacity="0.13" stroke="white" stroke-width="5" stroke-linecap="round" stroke-linejoin="round"/>
<path d="M196.588 65.5387C196.588 69.0962 195.175 72.5079 192.66 75.0234C190.144 77.5389 186.733 78.9521 183.175 78.9521C180.525 78.9414 177.937 78.1455 175.738 76.6651C173.539 75.1846 171.829 73.086 170.822 70.6341C169.815 68.1822 169.557 65.487 170.081 62.8886C170.605 60.2903 171.886 57.9054 173.764 56.035C175.642 54.1645 178.033 52.8924 180.633 52.3793C183.233 51.8661 185.927 52.1349 188.375 53.1517C190.823 54.1685 192.915 55.8877 194.386 58.0923C195.858 60.297 196.643 62.8881 196.643 65.5387H196.588Z" fill="white" fill-opacity="0.13" stroke="white" stroke-width="5" stroke-linecap="round" stroke-linejoin="round"/>
<path d="M143.932 26.3083C142.055 28.1826 139.665 29.4585 137.063 29.9748C134.462 30.4911 131.766 30.2244 129.316 29.2087C126.866 28.193 124.772 26.4739 123.299 24.2684C121.826 22.0629 121.039 19.4701 121.039 16.8179C121.039 14.1657 121.826 11.573 123.299 9.36751C124.772 7.16204 126.866 5.44285 129.316 4.42715C131.766 3.41145 134.462 3.14484 137.063 3.6611C139.665 4.17736 142.055 5.45333 143.932 7.32762C145.181 8.57451 146.171 10.0559 146.846 11.6867C147.521 13.3174 147.867 15.0654 147.865 16.8304C147.862 18.5954 147.511 20.3425 146.831 21.9713C146.152 23.6001 145.157 25.0786 143.904 26.3219L143.932 26.3083Z" fill="white" fill-opacity="0.13" stroke="white" stroke-width="5" stroke-linecap="round" stroke-linejoin="round"/>
</svg>
