<svg width="60" height="60" viewBox="0 0 60 60" fill="none" xmlns="http://www.w3.org/2000/svg">
<g clip-path="url(#clip0_159_7791)">
<path d="M48.7801 37.62V43.85C48.7801 47.3 45.9801 50.1 42.5301 50.1H31.6001" stroke="white" stroke-width="5" stroke-linecap="round" stroke-linejoin="round"/>
<path d="M48.78 28.24V39.17C48.78 40.89 50.18 42.29 51.9 42.29C54.49 42.29 56.58 40.19 56.58 37.61V32.93C56.58 30.34 54.48 28.25 51.9 28.25H48.78" stroke="white" stroke-width="5" stroke-linecap="round" stroke-linejoin="round"/>
<path d="M11.31 28.24H8.19001C5.60001 28.24 3.51001 30.34 3.51001 32.92V37.6C3.51001 40.19 5.61001 42.28 8.19001 42.28C9.91001 42.28 11.31 40.88 11.31 39.16V28.23" stroke="white" stroke-width="5" stroke-linecap="round" stroke-linejoin="round"/>
<path d="M48.7801 28.24C48.7801 17.89 40.3901 9.5 30.0401 9.5C19.6901 9.5 11.3101 17.89 11.3101 28.24" stroke="white" stroke-width="5" stroke-linecap="round" stroke-linejoin="round"/>
<path d="M41.8 28.52V32.83C34.7 31.04 29.34 24.9 28.72 17.41C28.73 17.7 28.75 17.99 28.75 18.3C28.75 25.16 24.78 31.09 19.02 33.91V28.52C19.02 22.8 23.23 18.07 28.71 17.26C29.27 17.17 29.84 17.13 30.41 17.13C33.56 17.13 36.41 18.4 38.46 20.47C40.51 22.54 41.8 25.38 41.8 28.52Z" fill="white"/>
<path d="M35.3498 41.02C37.0122 41.02 38.3598 39.6724 38.3598 38.01C38.3598 36.3476 37.0122 35 35.3498 35C33.6875 35 32.3398 36.3476 32.3398 38.01C32.3398 39.6724 33.6875 41.02 35.3498 41.02Z" fill="white"/>
<path d="M25.3303 41.02C26.9927 41.02 28.3403 39.6724 28.3403 38.01C28.3403 36.3476 26.9927 35 25.3303 35C23.6679 35 22.3203 36.3476 22.3203 38.01C22.3203 39.6724 23.6679 41.02 25.3303 41.02Z" fill="white"/>
</g>
<defs>
<clipPath id="clip0_159_7791">
<rect width="58.09" height="45.6" fill="white" transform="translate(1 7)"/>
</clipPath>
</defs>
</svg>
