<svg width="109" height="108" viewBox="0 0 109 108" fill="none" xmlns="http://www.w3.org/2000/svg">
<path d="M65.7016 33.7987C65.6896 31.3296 64.9073 28.9259 63.4638 26.9227C62.0203 24.9195 59.9877 23.4167 57.6493 22.6241C55.3109 21.8314 52.7834 21.7883 50.4193 22.5008C48.0553 23.2133 45.9725 24.6458 44.4616 26.5987C42.9525 24.6439 40.8704 23.2094 38.5063 22.4957C36.1422 21.782 33.6143 21.8247 31.2756 22.6178C28.937 23.4109 26.9045 24.9149 25.4623 26.9195C24.0201 28.9241 23.2402 31.3292 23.2316 33.7987C20.9721 34.947 19.0746 36.6983 17.7491 38.8587C16.4237 41.019 15.7222 43.5041 15.7222 46.0387C15.7222 48.5732 16.4237 51.0583 17.7491 53.2187C19.0746 55.379 20.9721 57.1304 23.2316 58.2787C23.2402 60.7482 24.0201 63.1532 25.4623 65.1578C26.9045 67.1624 28.937 68.6664 31.2756 69.4595C33.6143 70.2527 36.1422 70.2954 38.5063 69.5816C40.8704 68.8679 42.9525 67.4334 44.4616 65.4787C45.9731 67.4321 48.0567 68.865 50.4217 69.5772C52.7867 70.2895 55.3151 70.2456 57.654 69.4516C59.9928 68.6577 62.0254 67.1533 63.4681 65.1486C64.9109 63.1438 65.6917 60.7386 65.7016 58.2687C67.9585 57.1194 69.8535 55.3683 71.1771 53.209C72.5007 51.0497 73.2012 48.5663 73.2012 46.0337C73.2012 43.501 72.5007 41.0177 71.1771 38.8584C69.8535 36.6991 67.9585 34.948 65.7016 33.7987ZM35.1016 65.0887C33.5428 65.0864 32.031 64.5548 30.8137 63.5811C29.5965 62.6073 28.746 61.249 28.4016 59.7287C28.7516 59.7287 29.1116 59.7787 29.4616 59.7787H31.3516C32.0147 59.7787 32.6505 59.5153 33.1194 59.0465C33.5882 58.5776 33.8516 57.9417 33.8516 57.2787C33.8516 56.6157 33.5882 55.9797 33.1194 55.5109C32.6505 55.0421 32.0147 54.7787 31.3516 54.7787H29.4716C27.4001 54.7915 25.3913 54.068 23.8036 52.7373C22.216 51.4067 21.1525 49.5553 20.803 47.5135C20.4535 45.4716 20.8406 43.372 21.8953 41.589C22.95 39.806 24.6037 38.4556 26.5616 37.7787C27.0493 37.6055 27.4716 37.2857 27.7705 36.8633C28.0695 36.4408 28.2305 35.9362 28.2316 35.4187V33.8887C28.1813 32.9567 28.3214 32.0241 28.6434 31.148C28.9654 30.272 29.4625 29.4707 30.1045 28.7931C30.7464 28.1156 31.5198 27.5759 32.3772 27.2071C33.2346 26.8383 34.1582 26.6481 35.0916 26.6481C36.025 26.6481 36.9486 26.8383 37.806 27.2071C38.6635 27.5759 39.4368 28.1156 40.0787 28.7931C40.7207 29.4707 41.2178 30.272 41.5399 31.148C41.8619 32.0241 42.0019 32.9567 41.9516 33.8887V48.5887C39.9538 47.1498 37.5536 46.3765 35.0916 46.3787C34.4286 46.3787 33.7927 46.6421 33.3239 47.1109C32.855 47.5797 32.5916 48.2156 32.5916 48.8787C32.5916 49.5417 32.855 50.1776 33.3239 50.6465C33.7927 51.1153 34.4286 51.3787 35.0916 51.3787C36.9137 51.3787 38.661 52.1025 39.9494 53.3908C41.2378 54.6792 41.9616 56.4266 41.9616 58.2487C41.9616 60.0707 41.2378 61.8181 39.9494 63.1065C38.661 64.3949 36.9137 65.1187 35.0916 65.1187L35.1016 65.0887ZM65.6416 52.2287C64.8302 53.0398 63.8665 53.6826 62.806 54.1202C61.7454 54.5578 60.6089 54.7816 59.4616 54.7787H57.5816C56.9186 54.7787 56.2827 55.0421 55.8138 55.5109C55.345 55.9797 55.0816 56.6157 55.0816 57.2787C55.0816 57.9417 55.345 58.5776 55.8138 59.0465C56.2827 59.5153 56.9186 59.7787 57.5816 59.7787H59.4616C59.8216 59.7787 60.1816 59.7787 60.5316 59.7287C60.2472 60.9911 59.6119 62.1475 58.6991 63.0648C57.7863 63.982 56.6329 64.6228 55.3719 64.9133C54.1108 65.2038 52.7934 65.1323 51.5712 64.7069C50.3491 64.2814 49.2719 63.5195 48.4638 62.5088C47.6557 61.498 47.1495 60.2796 47.0035 58.9938C46.8575 57.708 47.0776 56.4071 47.6385 55.2409C48.1994 54.0747 49.0784 53.0906 50.174 52.402C51.2697 51.7134 52.5375 51.3483 53.8316 51.3487C54.4946 51.3487 55.1305 51.0853 55.5994 50.6164C56.0682 50.1476 56.3316 49.5117 56.3316 48.8487C56.3316 48.1856 56.0682 47.5497 55.5994 47.0809C55.1305 46.6121 54.4946 46.3487 53.8316 46.3487C51.3668 46.3485 48.964 47.1214 46.9616 48.5587V33.8887C46.9616 32.0666 47.6854 30.3192 48.9738 29.0309C50.2621 27.7425 52.0096 27.0187 53.8316 27.0187C55.6536 27.0187 57.4011 27.7425 58.6895 29.0309C59.9778 30.3192 60.7016 32.0666 60.7016 33.8887V35.4687C60.7027 35.9862 60.8638 36.4908 61.1627 36.9133C61.4617 37.3358 61.8839 37.6555 62.3716 37.8287C63.7638 38.3219 65.0085 39.1596 65.9897 40.2636C66.971 41.3676 67.6568 42.702 67.9832 44.1425C68.3097 45.583 68.2661 47.0828 67.8566 48.5019C67.4472 49.921 66.6852 51.2134 65.6416 52.2587V52.2287Z" fill="white"/>
<path d="M61.3315 40.7286H60.3915C59.3148 40.7286 58.2821 40.3009 57.5207 39.5395C56.7593 38.7781 56.3315 37.7454 56.3315 36.6686V35.7386C56.3315 35.0756 56.0681 34.4397 55.5993 33.9709C55.1305 33.502 54.4946 33.2386 53.8315 33.2386C53.1685 33.2386 52.5326 33.502 52.0638 33.9709C51.5949 34.4397 51.3315 35.0756 51.3315 35.7386V36.6686C51.3342 39.0707 52.2896 41.3736 53.9881 43.0721C55.6866 44.7706 57.9895 45.726 60.3915 45.7286H61.3315C61.9946 45.7286 62.6305 45.4652 63.0993 44.9964C63.5681 44.5276 63.8315 43.8917 63.8315 43.2286C63.8315 42.5656 63.5681 41.9297 63.0993 41.4609C62.6305 40.992 61.9946 40.7286 61.3315 40.7286Z" fill="white"/>
<path d="M37.6016 36.6686V35.7386C37.6016 35.0756 37.3382 34.4397 36.8693 33.9709C36.4005 33.502 35.7646 33.2386 35.1016 33.2386C34.4385 33.2386 33.8026 33.502 33.3338 33.9709C32.865 34.4397 32.6016 35.0756 32.6016 35.7386V36.6686C32.6016 37.7454 32.1738 38.7781 31.4124 39.5395C30.651 40.3009 29.6183 40.7286 28.5416 40.7286H27.6016C26.9385 40.7286 26.3026 40.992 25.8338 41.4609C25.365 41.9297 25.1016 42.5656 25.1016 43.2286C25.1016 43.8917 25.365 44.5276 25.8338 44.9964C26.3026 45.4652 26.9385 45.7286 27.6016 45.7286H28.5416C30.9436 45.726 33.2465 44.7706 34.945 43.0721C36.6435 41.3736 37.5989 39.0707 37.6016 36.6686Z" fill="white"/>
<path d="M63.5016 102.889H25.4316C24.7686 102.889 24.1327 103.152 23.6639 103.621C23.195 104.09 22.9316 104.726 22.9316 105.389C22.9316 106.052 23.195 106.688 23.6639 107.156C24.1327 107.625 24.7686 107.889 25.4316 107.889H63.5016C64.1647 107.889 64.8006 107.625 65.2694 107.156C65.7383 106.688 66.0016 106.052 66.0016 105.389C66.0016 104.726 65.7383 104.09 65.2694 103.621C64.8006 103.152 64.1647 102.889 63.5016 102.889Z" fill="white"/>
<path d="M72.4513 15.0986C68.4694 11.3316 63.7654 8.41054 58.6234 6.51179C53.4813 4.61304 48.0078 3.77597 42.5333 4.05116C37.0588 4.32634 31.6968 5.70807 26.771 8.1129C21.8453 10.5177 17.458 13.8958 13.8739 18.0431C10.2899 22.1905 7.58338 27.0211 5.91793 32.2434C4.25248 37.4657 3.66261 42.9713 4.18386 48.4279C4.7051 53.8845 6.32666 59.1789 8.9507 63.9914C11.5747 68.804 15.1468 73.0349 19.4513 76.4287C20.5298 77.2645 21.4024 78.3363 22.0022 79.5619C22.602 80.7875 22.913 82.1342 22.9113 83.4986V86.3486C22.9139 88.0214 23.5796 89.6248 24.7623 90.8076C25.9451 91.9904 27.5486 92.656 29.2213 92.6586H59.6712C61.3439 92.656 62.9474 91.9904 64.1301 90.8076C65.3129 89.6248 65.9786 88.0214 65.9813 86.3486V83.5087C65.9827 82.13 66.3008 80.7701 66.9112 79.5338C67.5215 78.2976 68.4076 77.2181 69.5012 76.3786C74.4536 72.4696 78.4311 67.4644 81.1208 61.7572C83.8104 56.05 85.1387 49.7964 85.0012 43.4887C84.8905 38.1617 83.7242 32.9097 81.57 28.0365C79.4158 23.1634 76.3164 18.7659 72.4513 15.0986ZM66.4513 72.4287C64.7594 73.736 63.3894 75.4134 62.4464 77.3323C61.5034 79.2512 61.0125 81.3606 61.0112 83.4986V86.3486C61.0112 86.6961 60.8733 87.0293 60.6276 87.275C60.3819 87.5207 60.0487 87.6586 59.7013 87.6586H29.2412C28.8938 87.6586 28.5606 87.5207 28.315 87.275C28.0693 87.0293 27.9312 86.6961 27.9312 86.3486V83.4887C27.9342 81.365 27.4499 79.2689 26.5154 77.3619C25.5809 75.4548 24.2214 73.7877 22.5413 72.4887C18.3122 69.1902 14.8904 64.9714 12.5356 60.1526C10.1808 55.3339 8.95499 50.042 8.95125 44.6787C8.89907 37.695 10.9045 30.8505 14.7172 24.9993C18.53 19.148 23.9814 14.549 30.3911 11.7761C36.8009 9.00313 43.8853 8.17901 50.7605 9.40654C57.6356 10.6341 63.9971 13.8589 69.0512 18.6787C72.4399 21.8936 75.1571 25.749 77.0453 30.0214C78.9335 34.2939 79.9552 38.8985 80.0512 43.5686C80.1765 49.1052 79.0121 54.5949 76.65 59.6038C74.2879 64.6127 70.7928 69.0034 66.4412 72.4287H66.4513Z" fill="white"/>
</svg>
