<svg width="48" height="48" viewBox="0 0 48 48" fill="none" xmlns="http://www.w3.org/2000/svg">
<path d="M40.5 4.5H7.5C6.70435 4.5 5.94129 4.81607 5.37868 5.37868C4.81607 5.94129 4.5 6.70435 4.5 7.5V40.5C4.5 41.2957 4.81607 42.0587 5.37868 42.6213C5.94129 43.1839 6.70435 43.5 7.5 43.5H40.5C41.2957 43.5 42.0587 43.1839 42.6213 42.6213C43.1839 42.0587 43.5 41.2957 43.5 40.5V7.5C43.5 6.70435 43.1839 5.94129 42.6213 5.37868C42.0587 4.81607 41.2957 4.5 40.5 4.5ZM40.5 40.5H7.5V7.5H40.5V40.5ZM18 21V33C18 33.3978 17.842 33.7794 17.5607 34.0607C17.2794 34.342 16.8978 34.5 16.5 34.5C16.1022 34.5 15.7206 34.342 15.4393 34.0607C15.158 33.7794 15 33.3978 15 33V21C15 20.6022 15.158 20.2206 15.4393 19.9393C15.7206 19.658 16.1022 19.5 16.5 19.5C16.8978 19.5 17.2794 19.658 17.5607 19.9393C17.842 20.2206 18 20.6022 18 21ZM34.5 26.25V33C34.5 33.3978 34.342 33.7794 34.0607 34.0607C33.7794 34.342 33.3978 34.5 33 34.5C32.6022 34.5 32.2206 34.342 31.9393 34.0607C31.658 33.7794 31.5 33.3978 31.5 33V26.25C31.5 25.2554 31.1049 24.3016 30.4016 23.5984C29.6984 22.8951 28.7446 22.5 27.75 22.5C26.7554 22.5 25.8016 22.8951 25.0984 23.5984C24.3951 24.3016 24 25.2554 24 26.25V33C24 33.3978 23.842 33.7794 23.5607 34.0607C23.2794 34.342 22.8978 34.5 22.5 34.5C22.1022 34.5 21.7206 34.342 21.4393 34.0607C21.158 33.7794 21 33.3978 21 33V21C21.0019 20.6326 21.1385 20.2786 21.384 20.0053C21.6295 19.7319 21.9668 19.5582 22.332 19.517C22.6971 19.4759 23.0646 19.5702 23.3648 19.782C23.665 19.9938 23.877 20.3085 23.9606 20.6663C24.9753 19.9779 26.1584 19.5789 27.3828 19.5122C28.6071 19.4455 29.8265 19.7136 30.91 20.2876C31.9936 20.8617 32.9002 21.72 33.5327 22.7705C34.1652 23.8209 34.4996 25.0238 34.5 26.25ZM18.75 15.75C18.75 16.195 18.618 16.63 18.3708 17C18.1236 17.37 17.7722 17.6584 17.361 17.8287C16.9499 17.999 16.4975 18.0436 16.061 17.9568C15.6246 17.87 15.2237 17.6557 14.909 17.341C14.5943 17.0263 14.38 16.6254 14.2932 16.189C14.2064 15.7525 14.251 15.3001 14.4213 14.889C14.5916 14.4778 14.88 14.1264 15.25 13.8792C15.62 13.632 16.055 13.5 16.5 13.5C17.0967 13.5 17.669 13.7371 18.091 14.159C18.5129 14.581 18.75 15.1533 18.75 15.75Z" fill="white"/>
</svg>
