<svg width="12" height="15" viewBox="0 0 12 15" fill="none" xmlns="http://www.w3.org/2000/svg">
<path d="M6 3.5C5.50555 3.5 5.0222 3.64662 4.61107 3.92133C4.19995 4.19603 3.87952 4.58648 3.6903 5.04329C3.50108 5.50011 3.45157 6.00277 3.54804 6.48773C3.6445 6.97268 3.8826 7.41814 4.23223 7.76777C4.58186 8.1174 5.02732 8.3555 5.51227 8.45196C5.99723 8.54843 6.49989 8.49892 6.95671 8.3097C7.41352 8.12048 7.80397 7.80005 8.07867 7.38893C8.35338 6.9778 8.5 6.49445 8.5 6C8.5 5.33696 8.23661 4.70107 7.76777 4.23223C7.29893 3.76339 6.66304 3.5 6 3.5ZM6 7.5C5.70333 7.5 5.41332 7.41203 5.16664 7.2472C4.91997 7.08238 4.72771 6.84811 4.61418 6.57403C4.50065 6.29994 4.47094 5.99834 4.52882 5.70736C4.5867 5.41639 4.72956 5.14912 4.93934 4.93934C5.14912 4.72956 5.41639 4.5867 5.70736 4.52882C5.99834 4.47094 6.29994 4.50065 6.57403 4.61418C6.84811 4.72771 7.08238 4.91997 7.2472 5.16664C7.41203 5.41332 7.5 5.70333 7.5 6C7.5 6.39782 7.34196 6.77936 7.06066 7.06066C6.77936 7.34196 6.39782 7.5 6 7.5ZM6 0.5C4.54182 0.501654 3.14383 1.08165 2.11274 2.11274C1.08165 3.14383 0.501654 4.54182 0.5 6C0.5 7.9625 1.40688 10.0425 3.125 12.0156C3.89701 12.9072 4.76591 13.7101 5.71562 14.4094C5.7997 14.4683 5.89985 14.4999 6.0025 14.4999C6.10515 14.4999 6.20531 14.4683 6.28938 14.4094C7.23734 13.7098 8.10455 12.9069 8.875 12.0156C10.5906 10.0425 11.5 7.9625 11.5 6C11.4983 4.54182 10.9184 3.14383 9.88726 2.11274C8.85617 1.08165 7.45818 0.501654 6 0.5ZM6 13.375C4.96688 12.5625 1.5 9.57812 1.5 6C1.5 4.80653 1.97411 3.66193 2.81802 2.81802C3.66193 1.97411 4.80653 1.5 6 1.5C7.19347 1.5 8.33807 1.97411 9.18198 2.81802C10.0259 3.66193 10.5 4.80653 10.5 6C10.5 9.57687 7.03312 12.5625 6 13.375Z" fill="white"/>
</svg>
