<svg width="103" height="81" viewBox="0 0 103 81" fill="none" xmlns="http://www.w3.org/2000/svg">
<path d="M37.7 52.5C34.761 52.5 31.888 51.6285 29.4443 49.9956C27.0005 48.3628 25.0959 46.042 23.9712 43.3267C22.8465 40.6114 22.5522 37.6235 23.1255 34.741C23.6989 31.8584 25.1142 29.2106 27.1924 27.1324C29.2706 25.0542 31.9185 23.6389 34.801 23.0655C37.6836 22.4921 40.6714 22.7864 43.3867 23.9112C46.102 25.0359 48.4228 26.9405 50.0557 29.3842C51.6885 31.8279 52.56 34.701 52.56 37.64C52.5639 39.6152 52.1693 41.5708 51.4 43.39L55.14 47.13C57.4115 42.9363 58.0972 38.065 57.0716 33.4073C56.046 28.7495 53.3776 24.6168 49.5547 21.7651C45.7319 18.9134 41.01 17.5335 36.2532 17.8777C31.4963 18.222 27.0223 20.2675 23.6499 23.6399C20.2775 27.0123 18.232 31.4862 17.8877 36.2431C17.5435 41 18.9235 45.7218 21.7751 49.5447C24.6268 53.3676 28.7596 56.0359 33.4173 57.0615C38.0751 58.0872 42.9463 57.4015 47.14 55.13L43.4 51.39C41.5916 52.1315 39.6545 52.5087 37.7 52.5Z" fill="white"/>
<path d="M43.3198 31.5L35.0397 39.76L31.5997 36.32C31.1235 35.8943 30.5022 35.667 29.8637 35.6849C29.2251 35.7027 28.6176 35.9644 28.1658 36.4161C27.7141 36.8679 27.4524 37.4754 27.4346 38.114C27.4167 38.7525 27.644 39.3738 28.0698 39.85L33.2697 45.06C33.74 45.5278 34.3764 45.7904 35.0397 45.7904C35.7031 45.7904 36.3394 45.5278 36.8098 45.06L46.8098 35.06C47.0633 34.8334 47.2679 34.5574 47.4111 34.2489C47.5543 33.9405 47.6331 33.6061 47.6426 33.2661C47.6522 32.9262 47.5922 32.5878 47.4664 32.2719C47.3407 31.9559 47.1519 31.6689 46.9114 31.4284C46.6709 31.1879 46.3839 30.999 46.0679 30.8733C45.752 30.7476 45.4136 30.6876 45.0737 30.6971C44.7337 30.7067 44.3993 30.7854 44.0908 30.9287C43.7824 31.0719 43.5064 31.2765 43.2797 31.53L43.3198 31.5Z" fill="white"/>
<path d="M37.6899 13.14C38.0186 13.1413 38.3443 13.0776 38.6482 12.9524C38.9521 12.8272 39.2282 12.6431 39.4606 12.4107C39.693 12.1783 39.8772 11.9022 40.0023 11.5983C40.1275 11.2944 40.1913 10.9687 40.1899 10.64V2.5C40.1899 1.83696 39.9265 1.20108 39.4577 0.732239C38.9889 0.263398 38.353 0 37.6899 0C37.0269 0 36.391 0.263398 35.9222 0.732239C35.4533 1.20108 35.1899 1.83696 35.1899 2.5V10.67C35.1978 11.3278 35.4647 11.956 35.9327 12.4184C36.4007 12.8808 37.0321 13.1401 37.6899 13.14Z" fill="white"/>
<path d="M16.8201 20.32C17.0524 20.5525 17.3283 20.7367 17.6321 20.862C17.9359 20.9873 18.2615 21.0511 18.5901 21.05C18.9173 21.052 19.2416 20.9885 19.5439 20.8631C19.8462 20.7377 20.1203 20.5531 20.3501 20.32C20.5826 20.0887 20.7671 19.8136 20.893 19.5107C21.0189 19.2078 21.0837 18.883 21.0837 18.555C21.0837 18.227 21.0189 17.9022 20.893 17.5993C20.7671 17.2964 20.5826 17.0214 20.3501 16.79L14.5801 11.01C14.3619 10.7351 14.0884 10.5092 13.7772 10.347C13.466 10.1847 13.1241 10.0898 12.7738 10.0685C12.4235 10.0471 12.0726 10.0998 11.744 10.223C11.4154 10.3462 11.1164 10.5372 10.8664 10.7836C10.6165 11.03 10.4213 11.3262 10.2934 11.653C10.1656 11.9798 10.1079 12.3299 10.1243 12.6805C10.1407 13.0311 10.2307 13.3743 10.3885 13.6878C10.5462 14.0013 10.7683 14.278 11.0401 14.5L16.8201 20.32Z" fill="white"/>
<path d="M13.17 37.66C13.17 36.997 12.9066 36.3611 12.4377 35.8923C11.9689 35.4234 11.333 35.16 10.67 35.16H2.5C1.83696 35.16 1.20108 35.4234 0.732239 35.8923C0.263398 36.3611 0 36.997 0 37.66C0 38.3231 0.263398 38.959 0.732239 39.4278C1.20108 39.8966 1.83696 40.16 2.5 40.16H10.67C11.333 40.16 11.9689 39.8966 12.4377 39.4278C12.9066 38.959 13.17 38.3231 13.17 37.66Z" fill="white"/>
<path d="M16.8197 55.0001L11.0397 60.7801C10.8069 61.0123 10.6221 61.2882 10.4961 61.5919C10.3701 61.8956 10.3052 62.2212 10.3052 62.5501C10.3052 62.8789 10.3701 63.2045 10.4961 63.5082C10.6221 63.812 10.8069 64.0878 11.0397 64.3201C11.51 64.7878 12.1464 65.0504 12.8097 65.0504C13.473 65.0504 14.1093 64.7878 14.5797 64.3201L20.3497 58.5401C20.5887 58.3098 20.7796 58.0342 20.911 57.7294C21.0424 57.4246 21.1119 57.0966 21.1152 56.7647C21.1186 56.4328 21.0557 56.1035 20.9305 55.7961C20.8052 55.4887 20.62 55.2093 20.3856 54.9742C20.1512 54.7392 19.8724 54.5531 19.5653 54.427C19.2583 54.3009 18.9292 54.2372 18.5972 54.2396C18.2653 54.242 17.9371 54.3104 17.632 54.441C17.3268 54.5716 17.0507 54.7616 16.8197 55.0001Z" fill="white"/>
<path d="M37.69 62.19C37.3613 62.1886 37.0356 62.2524 36.7316 62.3776C36.4277 62.5027 36.1516 62.6868 35.9192 62.9192C35.6868 63.1517 35.5027 63.4278 35.3775 63.7317C35.2524 64.0356 35.1886 64.3613 35.19 64.69V72.8599C35.19 73.523 35.4534 74.1589 35.9222 74.6277C36.391 75.0966 37.0269 75.3599 37.69 75.3599C38.353 75.3599 38.9889 75.0966 39.4577 74.6277C39.9266 74.1589 40.19 73.523 40.19 72.8599V64.69C40.1913 64.3613 40.1275 64.0356 40.0023 63.7317C39.8772 63.4278 39.6931 63.1517 39.4607 62.9192C39.2282 62.6868 38.9521 62.5027 38.6482 62.3776C38.3443 62.2524 38.0186 62.1886 37.69 62.19Z" fill="white"/>
<path d="M56.7998 21.05C57.1284 21.0512 57.454 20.9873 57.7578 20.862C58.0615 20.7367 58.3376 20.5525 58.5698 20.32L64.3498 14.54C64.5882 14.3091 64.7782 14.0329 64.9088 13.7278C65.0394 13.4226 65.1079 13.0944 65.1103 12.7625C65.1127 12.4305 65.049 12.1015 64.9229 11.7944C64.7967 11.4874 64.6107 11.2085 64.3756 10.9741C64.1406 10.7397 63.8612 10.5545 63.5538 10.4292C63.2464 10.3039 62.9171 10.2412 62.5852 10.2445C62.2533 10.2479 61.9253 10.3173 61.6205 10.4487C61.3157 10.5801 61.0401 10.771 60.8098 11.01L55.0398 16.79C54.8073 17.0214 54.6228 17.2964 54.4969 17.5993C54.371 17.9022 54.3062 18.227 54.3062 18.555C54.3062 18.883 54.371 19.2078 54.4969 19.5107C54.6228 19.8136 54.8073 20.0887 55.0398 20.32C55.2695 20.5531 55.5437 20.7378 55.8459 20.8631C56.1482 20.9885 56.4726 21.0521 56.7998 21.05Z" fill="white"/>
<path d="M98.2299 47.4L87.0399 36.24C86.799 35.9899 86.51 35.7911 86.1904 35.6553C85.8708 35.5196 85.5271 35.4498 85.1799 35.45C84.8343 35.4445 84.4912 35.511 84.1727 35.6453C83.8542 35.7796 83.5672 35.9787 83.3298 36.23C83.0763 36.4709 82.8746 36.761 82.737 37.0825C82.5994 37.404 82.5289 37.7503 82.5299 38.1C82.5267 38.4477 82.5952 38.7923 82.7311 39.1123C82.867 39.4323 83.0675 39.7209 83.3199 39.96L94.4699 51.11C95.2935 51.9189 95.9477 52.8838 96.3942 53.9483C96.8408 55.0128 97.0709 56.1556 97.0709 57.31C97.0709 58.4644 96.8408 59.6072 96.3942 60.6718C95.9477 61.7363 95.2935 62.7011 94.4699 63.51L83.9399 74.04C83.5392 74.4399 83.0679 74.7619 82.5499 74.99C82.0372 75.2199 81.4818 75.3391 80.9199 75.34H63.7199L73.4498 69.7L47.4498 43.7C47.2102 43.4366 46.9196 43.2246 46.5955 43.0769C46.2715 42.9292 45.9209 42.8488 45.5648 42.8406C45.2088 42.8325 44.8548 42.8967 44.5244 43.0294C44.1939 43.1621 43.8938 43.3606 43.6423 43.6127C43.3909 43.8649 43.1932 44.1655 43.0614 44.4963C42.9296 44.8271 42.8663 45.1813 42.8754 45.5373C42.8845 45.8933 42.9659 46.2437 43.1144 46.5673C43.263 46.891 43.4758 47.1811 43.7399 47.42L64.7698 68.5L57.2098 72.84C56.2588 73.3725 55.5007 74.1924 55.0444 75.1823C54.5881 76.1721 54.457 77.281 54.6699 78.35C54.7929 78.9953 55.1365 79.5777 55.6419 79.9973C56.1473 80.417 56.783 80.6477 57.4399 80.65H80.8799C82.1583 80.6583 83.4246 80.403 84.5999 79.9C85.7562 79.4014 86.8079 78.6889 87.6998 77.8L98.2299 67.26C100.85 64.6272 102.32 61.0641 102.32 57.35C102.32 53.6359 100.85 50.0729 98.2299 47.44V47.4Z" fill="white"/>
<path d="M62.1096 43.69C61.764 43.6845 61.421 43.751 61.1025 43.8853C60.784 44.0196 60.4969 44.2187 60.2596 44.47C60.006 44.7109 59.8043 45.0009 59.6667 45.3225C59.5292 45.644 59.4587 45.9903 59.4596 46.34C59.4564 46.6877 59.5249 47.0323 59.6608 47.3523C59.7967 47.6723 59.9972 47.9609 60.2496 48.2L70.7796 58.73L74.4996 55.02L63.9696 44.5C63.7315 44.2449 63.4436 44.0414 63.1236 43.9021C62.8037 43.7628 62.4586 43.6906 62.1096 43.69Z" fill="white"/>
<path d="M78.5899 50.93L82.3099 47.21L74.2499 39.21C74.0128 38.957 73.7262 38.7555 73.408 38.6179C73.0898 38.4803 72.7466 38.4095 72.3999 38.41C72.0519 38.405 71.7068 38.4727 71.3865 38.6087C71.0662 38.7448 70.7779 38.9462 70.5399 39.2001C70.288 39.4395 70.0878 39.7282 69.9519 40.0481C69.8161 40.368 69.7473 40.7125 69.7499 41.06C69.7436 41.4072 69.8097 41.7519 69.944 42.0722C70.0783 42.3924 70.2778 42.6812 70.5299 42.9201L78.5899 50.93Z" fill="white"/>
</svg>
