<svg width="40" height="40" viewBox="0 0 40 40" fill="none" xmlns="http://www.w3.org/2000/svg">
<path fill-rule="evenodd" clip-rule="evenodd" d="M19 10C14.0294 10 10 14.0294 10 19C10 23.9706 14.0294 28 19 28C21.125 28 23.078 27.2635 24.6177 26.0319L28.2932 29.7071C28.6837 30.0976 29.3169 30.0976 29.7074 29.7071C30.0979 29.3166 30.0979 28.6834 29.7073 28.2929L26.0319 24.6177C27.2635 23.078 28 21.125 28 19C28 14.0294 23.9706 10 19 10ZM12 19C12 15.134 15.134 12 19 12C22.866 12 26 15.134 26 19C26 22.866 22.866 26 19 26C15.134 26 12 22.866 12 19Z" fill="white"/>
</svg>
