<svg width="544" height="189" viewBox="0 0 544 189" fill="none" xmlns="http://www.w3.org/2000/svg">
<g clip-path="url(#clip0_159_7039)">
<path d="M205.167 162.028V136.243H213.309C221.214 136.243 226.18 142.08 226.18 149.173C226.18 156.265 221.214 162.047 213.309 162.047L205.167 162.028ZM223.889 149.154C223.889 143.124 220.073 138.257 213.309 138.257H207.349V160.015H213.309C220.018 160.015 223.889 155.185 223.889 149.154Z" fill="white"/>
<path d="M230.461 152.673C230.461 147.261 234.24 142.893 239.361 142.893C244.974 142.893 248.069 147.418 248.069 152.793V153.329H232.633C232.825 157.392 235.499 160.717 239.853 160.717C240.984 160.735 242.106 160.514 243.146 160.067C244.187 159.62 245.124 158.957 245.896 158.122L246.928 159.442C246.003 160.432 244.881 161.212 243.637 161.731C242.392 162.25 241.053 162.496 239.707 162.453C234.322 162.49 230.461 158.436 230.461 152.673ZM239.324 144.638C234.97 144.638 232.789 148.499 232.633 151.749H246.042C246.006 148.572 243.943 144.638 239.324 144.638Z" fill="white"/>
<path d="M253.572 158.436V145.137H250.515V143.355H253.572V138.238H255.617V143.336H259.369V145.119H255.617V158.103C255.617 159.618 256.229 160.662 257.534 160.662C257.921 160.655 258.303 160.569 258.658 160.411C259.012 160.252 259.331 160.023 259.597 159.738L260.364 161.29C259.947 161.69 259.453 162 258.913 162.199C258.372 162.397 257.797 162.481 257.224 162.444C254.75 162.49 253.572 160.985 253.572 158.436Z" fill="white"/>
<path d="M262.619 152.673C262.619 147.261 266.407 142.893 271.527 142.893C277.141 142.893 280.235 147.418 280.235 152.793V153.329H264.8C264.992 157.392 267.666 160.717 272.02 160.717C273.149 160.735 274.27 160.513 275.309 160.066C276.348 159.619 277.283 158.957 278.054 158.122L279.085 159.442C278.161 160.432 277.039 161.212 275.794 161.731C274.55 162.25 273.211 162.496 271.865 162.453C266.48 162.49 262.619 158.436 262.619 152.673ZM271.482 144.638C267.128 144.638 264.955 148.499 264.8 151.749H278.209C278.172 148.572 276.11 144.638 271.482 144.638Z" fill="white"/>
<path d="M284.279 152.673C284.279 147.224 287.839 142.893 293.261 142.893C294.524 142.832 295.783 143.09 296.924 143.643C298.064 144.195 299.052 145.026 299.797 146.06L298.418 147.298C297.862 146.469 297.107 145.798 296.225 145.345C295.342 144.893 294.36 144.675 293.371 144.712C289.053 144.712 286.424 148.194 286.424 152.673C286.424 157.152 289.053 160.68 293.371 160.68C294.363 160.707 295.346 160.48 296.229 160.02C297.111 159.56 297.865 158.881 298.418 158.048L299.797 159.285C299.06 160.33 298.075 161.172 296.933 161.731C295.791 162.291 294.529 162.552 293.261 162.49C287.839 162.49 284.279 158.122 284.279 152.673Z" fill="white"/>
<path d="M304.608 158.436V145.137H301.55V143.355H304.608V138.238H306.625V143.336H310.386V145.119H306.634V158.103C306.634 159.618 307.246 160.662 308.551 160.662C308.938 160.655 309.32 160.569 309.675 160.411C310.029 160.252 310.348 160.023 310.614 159.738L311.38 161.29C310.964 161.69 310.47 162 309.93 162.199C309.389 162.397 308.814 162.481 308.24 162.444C305.822 162.49 304.608 160.985 304.608 158.436Z" fill="white"/>
<path d="M341.547 162.028C340.635 161.252 339.484 160.135 338.298 158.934C337.387 160.049 336.243 160.945 334.949 161.56C333.655 162.175 332.243 162.492 330.813 162.49C326.605 162.49 323.127 160.098 323.127 155.453C323.127 151.361 325.866 149.311 328.823 147.649C327.601 145.911 326.875 143.866 326.724 141.738C326.727 140.945 326.888 140.16 327.197 139.43C327.507 138.701 327.958 138.042 328.525 137.493C329.091 136.944 329.761 136.516 330.494 136.235C331.228 135.954 332.01 135.825 332.794 135.856C335.925 135.856 338.143 137.601 338.143 140.732C338.143 144.592 334.82 146.273 331.534 148.074C332.554 149.489 333.651 150.846 334.82 152.137C336.007 153.486 337.111 154.76 338.225 155.924C339.469 153.98 340.446 151.873 341.128 149.662L342.953 150.429C342.091 152.844 340.962 155.152 339.585 157.309C341.073 158.86 342.643 160.329 344.514 162.028H341.547ZM336.983 157.586C335.414 155.961 333.926 154.372 333.159 153.449C332.054 152.137 330.831 150.678 329.763 149.117C327.317 150.549 325.327 152.285 325.327 155.342C325.327 158.86 328.002 160.717 330.941 160.717C332.112 160.682 333.262 160.387 334.309 159.855C335.357 159.322 336.276 158.563 337.002 157.632L336.983 157.586ZM330.594 146.679C333.497 145.137 336.135 143.705 336.135 140.806C336.157 140.363 336.086 139.92 335.925 139.508C335.763 139.095 335.516 138.722 335.2 138.415C334.884 138.108 334.507 137.872 334.093 137.726C333.68 137.579 333.239 137.524 332.803 137.564C332.266 137.566 331.734 137.678 331.241 137.893C330.748 138.107 330.302 138.421 329.931 138.814C329.56 139.207 329.272 139.672 329.083 140.181C328.894 140.69 328.809 141.232 328.832 141.775C328.984 143.542 329.602 145.236 330.621 146.679H330.594Z" fill="white"/>
<path d="M358.998 162.028V136.243H367.13C375.044 136.243 380.01 142.08 380.01 149.173C380.01 156.265 375.044 162.047 367.13 162.047L358.998 162.028ZM377.719 149.154C377.719 143.124 373.894 138.257 367.13 138.257H361.179V160.015H367.13C373.858 160.015 377.719 155.185 377.719 149.154Z" fill="white"/>
<path d="M384.32 152.673C384.32 147.261 388.108 142.893 393.229 142.893C398.842 142.893 401.937 147.418 401.937 152.793V153.329H386.465C386.657 157.392 389.331 160.717 393.685 160.717C394.814 160.735 395.934 160.513 396.974 160.066C398.013 159.619 398.948 158.957 399.718 158.122L400.75 159.479C399.825 160.469 398.704 161.249 397.459 161.768C396.214 162.287 394.875 162.533 393.53 162.49C388.144 162.49 384.32 158.436 384.32 152.673ZM393.183 144.638C388.829 144.638 386.657 148.499 386.501 151.749H399.837C399.837 148.572 397.774 144.638 393.146 144.638H393.183Z" fill="white"/>
<path d="M407.667 162.028V145.137H404.609V143.354H407.667V141.655C407.667 138.026 409.574 135.855 412.669 135.855C413.312 135.828 413.954 135.931 414.557 136.157C415.161 136.384 415.714 136.73 416.183 137.176L415.225 138.561C414.586 137.953 413.737 137.622 412.86 137.638C410.761 137.638 409.647 139.106 409.647 141.692V143.391H413.39V145.174H409.647V162.065L407.667 162.028Z" fill="white"/>
<path d="M416.067 152.673C416.067 147.261 419.855 142.893 424.976 142.893C430.59 142.893 433.684 147.418 433.684 152.793V153.329H418.249C418.441 157.392 421.115 160.717 425.469 160.717C426.598 160.735 427.718 160.513 428.758 160.066C429.797 159.619 430.732 158.957 431.503 158.122L432.534 159.442C431.609 160.432 430.488 161.212 429.243 161.731C427.998 162.25 426.659 162.496 425.314 162.453C419.919 162.49 416.067 158.436 416.067 152.673ZM424.93 144.638C420.577 144.638 418.404 148.499 418.249 151.749H431.658C431.621 148.572 429.558 144.638 424.93 144.638Z" fill="white"/>
<path d="M451.253 162.028V149.385C451.253 145.793 449.427 144.712 446.78 144.712C445.608 144.762 444.462 145.075 443.424 145.63C442.387 146.184 441.485 146.965 440.783 147.917V162.028H438.793V143.355H440.783V146.181C441.611 145.203 442.627 144.407 443.77 143.842C444.913 143.276 446.158 142.953 447.428 142.893C451.171 142.893 453.234 144.74 453.234 148.96V162.028H451.253Z" fill="white"/>
<path d="M473.022 162.028V159.054C472.307 160.103 471.354 160.963 470.242 161.56C469.13 162.158 467.892 162.477 466.633 162.49C461.74 162.49 458.418 158.704 458.418 152.71C458.418 146.716 461.777 142.893 466.633 142.893C467.897 142.909 469.138 143.233 470.25 143.84C471.363 144.446 472.314 145.316 473.022 146.375V136.216H475.049V162.001L473.022 162.028ZM473.022 157.355V148.12C472.365 147.092 471.467 146.244 470.408 145.651C469.349 145.059 468.162 144.739 466.952 144.721C462.863 144.721 460.49 148.203 460.49 152.719C460.49 157.235 462.863 160.689 466.952 160.689C468.156 160.674 469.337 160.362 470.395 159.781C471.452 159.2 472.354 158.368 473.022 157.355Z" fill="white"/>
<path d="M480.625 160.68C480.635 160.235 480.816 159.813 481.13 159.502C481.444 159.191 481.866 159.017 482.305 159.017C482.748 159.017 483.174 159.19 483.493 159.5C483.813 159.809 484.002 160.232 484.021 160.68C484.009 161.137 483.825 161.571 483.506 161.895C483.186 162.218 482.756 162.404 482.305 162.416C481.857 162.404 481.431 162.216 481.118 161.892C480.804 161.568 480.628 161.133 480.625 160.68Z" fill="white"/>
<path d="M74.7569 164.614L67.053 171.171C66.1402 171.06 65.2913 170.922 64.415 170.783L67.5824 158.556L74.7569 164.614Z" fill="white"/>
<path d="M76.3537 17.2565C57.3596 17.2633 39.0501 24.4334 25.001 37.3667C10.952 50.2999 2.17245 68.0674 0.377122 87.199C-1.4182 106.331 3.89962 125.452 15.292 140.829C26.6844 156.207 43.3331 166.735 61.9865 170.358L65.6377 156.256C65.948 156.311 66.2492 156.376 66.5505 156.422C67.4632 156.561 68.3121 156.681 69.1975 156.782L75.4044 162.047V157.198H76.3811C76.9197 157.198 77.4582 157.198 77.9967 157.198V161.926L84.0941 156.709C84.9339 156.598 85.7645 156.478 86.586 156.339L87.3619 156.201L90.7666 170.34C103.392 167.893 115.2 162.25 125.087 153.938L116.48 142.218C119.693 139.448 122.62 136.353 125.215 132.983L136.789 141.683C145.507 130.256 150.885 116.586 152.313 102.224C153.741 87.8617 151.163 73.3818 144.871 60.4268C138.579 47.4718 128.824 36.5602 116.713 28.9297C104.602 21.2992 90.6207 17.2552 76.3537 17.2565ZM76.3537 153.569C64.7974 153.58 53.4975 150.122 43.8835 143.634C34.2695 137.147 26.7734 127.919 22.3435 117.12C17.9135 106.321 16.7488 94.4352 18.9967 82.9662C21.2446 71.4972 26.8041 60.9604 34.9718 52.6888C43.1395 44.4172 53.5485 38.7825 64.882 36.4974C76.2155 34.2123 87.9642 35.3795 98.6419 39.8514C109.32 44.3234 118.447 51.899 124.868 61.6201C131.289 71.3411 134.717 82.7708 134.717 94.4631C134.717 110.129 128.57 125.155 117.626 136.237C106.682 147.32 91.8377 153.554 76.3537 153.569Z" fill="white"/>
<path d="M74.5009 116.729V128.957L69.1611 124.662L70.5029 116.729H74.5009Z" fill="white"/>
<path d="M82.0136 84.1011H78.2529V96.6333H82.0136V84.1011Z" fill="white"/>
<path d="M74.4838 100.438H70.7231V112.915H74.4838V100.438Z" fill="white"/>
<path d="M83.3829 124.801L78.2622 128.929V116.729H82.0229L83.3829 124.801Z" fill="white"/>
<path d="M74.4838 84.1011H70.7231V96.6333H74.4838V84.1011Z" fill="white"/>
<path d="M82.0136 100.438H78.2529V112.915H82.0136V100.438Z" fill="white"/>
<path d="M88.3378 170.792C87.5893 170.912 86.8408 171.023 86.0832 171.125L78.4341 164.66L85.426 158.722L88.3378 170.792Z" fill="white"/>
<path d="M76.3546 46.7444C67.0176 46.7444 57.8902 49.5458 50.1267 54.7942C42.3632 60.0427 36.3123 67.5025 32.7391 76.2303C29.166 84.9582 28.2311 94.5621 30.0526 103.827C31.8742 113.093 36.3704 121.604 42.9728 128.284C49.5751 134.964 57.9869 139.513 67.1446 141.356C76.3023 143.199 85.7944 142.253 94.4208 138.638C103.047 135.023 110.42 128.901 115.608 121.046C120.795 113.191 123.564 103.956 123.564 94.5091C123.552 81.8449 118.574 69.7028 109.723 60.7479C100.872 51.7929 88.8716 46.7567 76.3546 46.7444ZM59.2308 80.2868C60.8044 80.2868 62.3135 80.9193 63.4262 82.045C64.5388 83.1708 65.1639 84.6977 65.1639 86.2897C65.1639 87.8818 64.5388 89.4086 63.4262 90.5344C62.3135 91.6602 60.8044 92.2926 59.2308 92.2926V80.2868ZM93.2776 116.729H85.6924L89.0697 136.714C87.9196 137.065 86.7421 137.37 85.5555 137.638L83.8851 127.737L78.4084 132.133L85.2999 137.675C84.1772 137.915 83.0271 138.099 81.8678 138.256L78.2167 135.32V138.57C77.5869 138.57 76.9479 138.626 76.309 138.626C75.67 138.626 75.0676 138.626 74.4834 138.57V135.292L70.8323 138.256C69.6731 138.109 68.523 137.915 67.4002 137.675L74.3009 132.133L68.6781 127.599L66.9804 137.591C65.7937 137.324 64.6163 137.019 63.4661 136.668L66.8343 116.729H59.4682V112.924H66.9804V100.438H63.2379V96.6794H66.9804V69.8972H70.741V80.333H74.5017V61.9641H75.4875V50.4201C75.7796 50.4201 76.0625 50.4201 76.4003 50.4201C76.738 50.4201 77.0118 50.4201 77.3131 50.4201V61.9549H78.2623V80.2868H82.023V69.8972H85.7837V96.6794H89.4896V100.484H85.7837V112.961H93.2776V116.729ZM93.4784 92.2557C91.9049 92.2557 90.3958 91.6232 89.2831 90.4975C88.1704 89.3717 87.5453 87.8448 87.5453 86.2528C87.5453 84.6607 88.1704 83.1338 89.2831 82.0081C90.3958 80.8823 91.9049 80.2499 93.4784 80.2499V92.2557Z" fill="white"/>
<path d="M82.8426 171.467V171.476L82.8335 171.467H82.8426Z" fill="white"/>
<path d="M82.8349 171.485C81.2284 171.623 79.6036 171.707 77.9697 171.743V167.357L82.8349 171.485Z" fill="white"/>
<path d="M75.3692 167.2V171.744C73.6714 171.744 71.9827 171.633 70.3032 171.503L75.3692 167.2Z" fill="white"/>
<path d="M165.569 111.899L173.437 98.9699C178.439 103.744 188.744 108.519 197.324 108.519C205.193 108.519 208.908 105.333 208.908 100.992C208.908 89.4114 167.832 98.8221 167.832 71.3288C167.832 59.6093 177.983 49.3305 196.129 49.3305C206.233 49.1922 216.078 52.5627 224.023 58.8797L216.721 71.4674C212.577 66.979 204.709 63.368 196.266 63.368C189.684 63.368 185.394 66.4065 185.394 70.313C185.394 80.7303 226.296 72.0492 226.296 100.272C226.296 113.007 215.571 122.704 196.403 122.704C184.39 122.704 172.807 118.65 165.505 111.853L165.569 111.899Z" fill="white"/>
<path d="M232.796 122.76V26.2331H250.96V122.76H232.796Z" fill="white"/>
<path d="M257.369 86.0035C257.369 65.7414 272.102 49.395 293.123 49.395C314.145 49.395 327.727 65.0211 327.727 87.8875V91.9417H276.392C277.533 100.771 284.543 108.15 296.272 108.15C302.141 108.15 310.293 105.545 314.72 101.205L322.725 113.072C315.861 119.435 304.989 122.769 294.264 122.769C273.27 122.769 257.36 108.445 257.36 86.0127L257.369 86.0035ZM293.123 64.0052C281.823 64.0052 276.958 72.5385 276.1 79.4927H310.137C309.708 72.8341 305.135 64.0052 293.114 64.0052H293.123Z" fill="white"/>
<path d="M504.804 122.76V80.213C504.804 70.516 499.802 67.4776 491.933 67.4776C484.923 67.4776 479.346 71.5319 476.197 75.7247V122.76H458.033V26.2331H476.197V61.9735C480.633 56.617 489.213 51.1221 500.514 51.1221C515.675 51.1221 522.968 59.5169 522.968 73.1204V122.76H504.804Z" fill="white"/>
<path d="M435.123 67.1916H451.553V51.1315H435.123V32.033H416.813V51.1315H405.375V67.1916H416.813V103.661C416.813 116.111 423.677 122.76 436.41 122.76C443.995 122.76 448.851 120.737 451.571 118.272L447.71 104.419C446.706 105.435 444.132 106.441 441.421 106.441C437.414 106.441 435.132 103.117 435.132 98.776V67.1916H435.123Z" fill="white"/>
<path d="M380.785 51.1219V98.4433C378.919 100.878 376.536 102.857 373.812 104.235C371.088 105.612 368.094 106.354 365.049 106.404C357.327 106.404 352.316 103.218 352.316 93.5209V51.1219H334.115V100.761C334.115 114.365 341.262 122.76 356.423 122.76C360.984 122.834 365.508 121.931 369.699 120.11C373.89 118.289 377.652 115.591 380.74 112.195V122.76H398.922V51.1219H380.785Z" fill="white"/>
<path d="M526.303 37.0106V27.4152H522.935V26.2238H531.013V27.4152H527.626V36.9921L526.303 37.0106Z" fill="white"/>
<path d="M542.668 37.0106V28.1355L539.017 37.0014H538.479L534.873 28.1355V37.0014H533.55V26.2331H535.448L538.753 34.3416L542.075 26.2331H543.974V37.0106H542.641H542.668Z" fill="white"/>
</g>
<defs>
<clipPath id="clip0_159_7039">
<rect width="544" height="154.487" fill="white" transform="translate(0 17.2565)"/>
</clipPath>
</defs>
</svg>
