<svg width="16" height="7" viewBox="0 0 16 7" fill="none" xmlns="http://www.w3.org/2000/svg">
<path d="M15.9999 6.87667H14.8544L11.3267 2.05142V6.87667H10.1406V0.115234H11.3571L14.8138 4.80871V0.115234H15.9999V6.87667Z" fill="white"/>
<path d="M8.55323 6.87667H7.36719V0.115234H8.55323V6.87667Z" fill="white"/>
<path d="M3.54798 6.99752C1.55097 6.99752 0 5.57833 0 3.50023C0 1.42212 1.55097 0.00292969 3.54798 0.00292969C4.91649 0.00292969 5.75787 0.712526 6.26472 1.52349L5.25101 2.04048C4.92662 1.48294 4.27785 1.05719 3.54798 1.05719C2.20989 1.05719 1.21645 2.08103 1.21645 3.50023C1.21645 4.91942 2.20989 5.94326 3.54798 5.94326C4.27785 5.94326 4.92662 5.52764 5.25101 4.95997L6.26472 5.47696C5.74773 6.28792 4.91649 6.99752 3.54798 6.99752Z" fill="white"/>
</svg>
