<svg width="60" height="61" viewBox="0 0 60 61" fill="none" xmlns="http://www.w3.org/2000/svg">
<g clip-path="url(#clip0_159_8013)">
<path d="M49.77 56.63H10.67C9.47 56.63 8.5 55.66 8.5 54.46V6.67C8.5 5.47 9.47 4.5 10.67 4.5H36.73L51.93 19.7V54.45C51.93 55.65 50.96 56.62 49.76 56.62L49.77 56.63Z" stroke="white" stroke-width="5" stroke-linecap="round" stroke-linejoin="round"/>
<path d="M36.74 4.5V19.7H51.94" stroke="white" stroke-width="5" stroke-linecap="round" stroke-linejoin="round"/>
<path d="M38.3966 33.733L30.6042 25.9407L22.7412 33.8037L30.5335 41.596L38.3966 33.733Z" stroke="white" stroke-width="5" stroke-linecap="round" stroke-linejoin="round"/>
<path d="M25.9 21.23L18.04 29.09" stroke="white" stroke-width="5" stroke-linecap="round" stroke-linejoin="round"/>
<path d="M43.11 38.4399L35.25 46.2999" stroke="white" stroke-width="5" stroke-linecap="round" stroke-linejoin="round"/>
<path d="M26.6399 37.7L17.9399 46.4" stroke="white" stroke-width="5" stroke-linecap="round" stroke-linejoin="round"/>
</g>
<defs>
<clipPath id="clip0_159_8013">
<rect width="48.44" height="57.13" fill="white" transform="translate(6 2)"/>
</clipPath>
</defs>
</svg>
